<ttFont>
<head>
    <!-- Most of this table will be recalculated by the compiler -->
    <tableVersion value="1.0"/>
    <fontRevision value="1.052"/>
    <checkSumAdjustment value="0xeb8751a8"/>
    <magicNumber value="0x5f0f3cf5"/>
    <flags value="00000000 00000001"/>
    <unitsPerEm value="1000"/>
    <created value="Sat Apr  9 12:31:12 2016"/>
    <modified value="Tue Jul 26 15:59:23 2016"/>
    <xMin value="-157"/>
    <yMin value="-329"/>
    <xMax value="1180"/>
    <yMax value="930"/>
    <macStyle value="00000000 00000000"/>
    <lowestRecPPEM value="6"/>
    <fontDirectionHint value="2"/>
    <indexToLocFormat value="0"/>
    <glyphDataFormat value="0"/>
  </head>
    <TTGlyph name=".notdef" xMin="50" yMin="0" xMax="450" yMax="660">
      <contour>
        <pt x="450" y="0" on="1"/>
        <pt x="50" y="0" on="1"/>
        <pt x="50" y="660" on="1"/>
        <pt x="450" y="660" on="1"/>
      </contour>
      <contour>
        <pt x="130" y="580" on="1"/>
        <pt x="130" y="80" on="1"/>
        <pt x="370" y="80" on="1"/>
        <pt x="370" y="580" on="1"/>
      </contour>
    </TTGlyph>
    <TTGlyph name="Hinferior" xMin="63" yMin="-189" xMax="361" yMax="208">
      <component glyphName="Hsuperior" x="0" y="-522" flags="0x4"/>
    </TTGlyph>
    <TTGlyph name="Hsuperior" xMin="63" yMin="333" xMax="361" yMax="730">
      <contour>
        <pt x="345" y="333" on="1"/>
        <pt x="345" y="531" on="1"/>
        <pt x="79" y="531" on="1"/>
        <pt x="79" y="333" on="1"/>
        <pt x="63" y="333" on="1"/>
        <pt x="63" y="730" on="1"/>
        <pt x="79" y="730" on="1"/>
        <pt x="79" y="545" on="1"/>
        <pt x="345" y="545" on="1"/>
        <pt x="345" y="730" on="1"/>
        <pt x="361" y="730" on="1"/>
        <pt x="361" y="333" on="1"/>
      </contour>
    </TTGlyph>
    <TTGlyph name="Iacute_J.loclNLD" xMin="99" yMin="-10" xMax="704" yMax="891">
      <component glyphName="uni0049" x="0" y="0" flags="0x4"/>
      <component glyphName="uni0301.cap" x="107" y="0" flags="0x4"/>
      <component glyphName="uni004A" x="214" y="0" flags="0x4"/>
      <component glyphName="uni0301.cap" x="612" y="0" flags="0x4"/>
    </TTGlyph>
    <TTGlyph name="Iacute_J.loclNLD.ss05" xMin="87" yMin="-10" xMax="553" yMax="891">
      <component glyphName="uni0301.cap" x="461" y="0" flags="0x4"/>
      <component glyphName="uni0301.cap" x="99" y="0" flags="0x4"/>
      <component glyphName="uni0132.ss05" x="-8" y="0" flags="0x4"/>
    </TTGlyph>
    <TTGlyph name="Oinferior" xMin="37" yMin="-195" xMax="399" yMax="213">
      <component glyphName="Osuperior" x="0" y="-522" flags="0x4"/>
    </TTGlyph>
    <TTGlyph name="Osuperior" xMin="37" yMin="327" xMax="399" yMax="735">
      <contour>
        <pt x="37" y="531" on="1"/>
        <pt x="37" y="624" on="0"/>
        <pt x="136" y="735" on="0"/>
        <pt x="218" y="735" on="1"/>
        <pt x="301" y="735" on="0"/>
        <pt x="399" y="624" on="0"/>
        <pt x="399" y="531" on="1"/>
        <pt x="399" y="438" on="0"/>
        <pt x="301" y="327" on="0"/>
        <pt x="218" y="327" on="1"/>
        <pt x="136" y="327" on="0"/>
        <pt x="37" y="438" on="0"/>
      </contour>
      <contour>
        <pt x="383" y="531" on="1"/>
        <pt x="383" y="618" on="0"/>
        <pt x="293" y="721" on="0"/>
        <pt x="218" y="721" on="1"/>
        <pt x="143" y="721" on="0"/>
        <pt x="53" y="618" on="0"/>
        <pt x="53" y="531" on="1"/>
        <pt x="53" y="444" on="0"/>
        <pt x="143" y="341" on="0"/>
        <pt x="218" y="341" on="1"/>
        <pt x="293" y="341" on="0"/>
        <pt x="383" y="444" on="0"/>
      </contour>
    </TTGlyph>
    <TTGlyph name="__swash_topleft" xMin="34" yMin="350" xMax="457" yMax="660">
      <contour>
        <pt x="167" y="361" on="1"/>
        <pt x="156" y="350" on="1"/>
        <pt x="101" y="362" on="0"/>
        <pt x="34" y="438" on="0"/>
        <pt x="34" y="502" on="1"/>
        <pt x="34" y="660" on="0"/>
        <pt x="207" y="660" on="1"/>
        <pt x="457" y="660" on="1"/>
        <pt x="457" y="646" on="1"/>
        <pt x="212" y="646" on="1"/>
        <pt x="50" y="646" on="0"/>
        <pt x="50" y="502" on="1"/>
        <pt x="50" y="444" on="0"/>
        <pt x="113" y="373" on="0"/>
      </contour>
    </TTGlyph>
    <TTGlyph name="bracketleftinferior" xMin="74" yMin="-269" xMax="185" yMax="288">
      <component glyphName="bracketleftsuperior" x="0" y="-522" flags="0x4"/>
    </TTGlyph>
    <TTGlyph name="bracketleftsuperior" xMin="74" yMin="253" xMax="185" yMax="810">
      <contour>
        <pt x="74" y="253" on="1"/>
        <pt x="74" y="810" on="1"/>
        <pt x="185" y="810" on="1"/>
        <pt x="185" y="796" on="1"/>
        <pt x="90" y="796" on="1"/>
        <pt x="90" y="267" on="1"/>
        <pt x="185" y="267" on="1"/>
        <pt x="185" y="253" on="1"/>
      </contour>
    </TTGlyph>
    <TTGlyph name="bracketrightinferior" xMin="-1" yMin="-269" xMax="110" yMax="288">
      <component glyphName="bracketrightsuperior" x="0" y="-522" flags="0x4"/>
    </TTGlyph>
    <TTGlyph name="bracketrightsuperior" xMin="-1" yMin="253" xMax="110" yMax="810">
      <component glyphName="bracketleftsuperior" x="184" y="0" scalex="-1.0" scaley="1.0" flags="0x4"/>
    </TTGlyph>
    <TTGlyph name="coloninferior" xMin="45" yMin="-192" xMax="83" yMax="145">
      <component glyphName="colonsuperior" x="0" y="-522" flags="0x4"/>
    </TTGlyph>
    <TTGlyph name="colonsuperior" xMin="45" yMin="330" xMax="83" yMax="667">
      <component glyphName="periodsuperior" x="0" y="0" flags="0x4"/>
      <component glyphName="periodsuperior" x="0" y="299" flags="0x4"/>
    </TTGlyph>
    <TTGlyph name="commainferior" xMin="45" yMin="-262" xMax="95" yMax="-154">
      <component glyphName="commasuperior" x="0" y="-522" flags="0x4"/>
    </TTGlyph>
    <TTGlyph name="commasuperior" xMin="45" yMin="260" xMax="95" yMax="368">
      <contour>
        <pt x="45" y="349" on="1"/>
        <pt x="45" y="368" on="0"/>
        <pt x="65" y="368" on="1"/>
        <pt x="95" y="368" on="0"/>
        <pt x="95" y="329" on="1"/>
        <pt x="95" y="282" on="0"/>
        <pt x="59" y="260" on="1"/>
        <pt x="46" y="269" on="1"/>
        <pt x="63" y="277" on="0"/>
        <pt x="84" y="320" on="0"/>
        <pt x="79" y="336" on="1"/>
        <pt x="78" y="336" on="1"/>
        <pt x="76" y="330" on="0"/>
        <pt x="64" y="330" on="1"/>
        <pt x="45" y="330" on="0"/>
      </contour>
    </TTGlyph>
    <TTGlyph name="daggerdblsuperior" xMin="39" yMin="283" xMax="360" yMax="730">
      <contour>
        <pt x="360" y="426" on="1"/>
        <pt x="203" y="426" on="1"/>
        <pt x="203" y="283" on="1"/>
        <pt x="187" y="283" on="1"/>
        <pt x="187" y="426" on="1"/>
        <pt x="39" y="426" on="1"/>
        <pt x="39" y="439" on="1"/>
        <pt x="187" y="439" on="1"/>
        <pt x="187" y="574" on="1"/>
        <pt x="39" y="574" on="1"/>
        <pt x="39" y="587" on="1"/>
        <pt x="187" y="587" on="1"/>
        <pt x="187" y="730" on="1"/>
        <pt x="203" y="730" on="1"/>
        <pt x="203" y="587" on="1"/>
        <pt x="360" y="587" on="1"/>
        <pt x="360" y="574" on="1"/>
        <pt x="203" y="574" on="1"/>
        <pt x="203" y="439" on="1"/>
        <pt x="360" y="439" on="1"/>
      </contour>
    </TTGlyph>
    <TTGlyph name="daggersuperior" xMin="39" yMin="283" xMax="360" yMax="730">
      <contour>
        <pt x="360" y="574" on="1"/>
        <pt x="203" y="574" on="1"/>
        <pt x="203" y="283" on="1"/>
        <pt x="187" y="283" on="1"/>
        <pt x="187" y="574" on="1"/>
        <pt x="39" y="574" on="1"/>
        <pt x="39" y="587" on="1"/>
        <pt x="187" y="587" on="1"/>
        <pt x="187" y="730" on="1"/>
        <pt x="203" y="730" on="1"/>
        <pt x="203" y="587" on="1"/>
        <pt x="360" y="587" on="1"/>
      </contour>
    </TTGlyph>
    <TTGlyph name="emdashinferior" xMin="43" yMin="4" xMax="549" yMax="18">
      <component glyphName="emdashsuperior" x="0" y="-522" flags="0x4"/>
    </TTGlyph>
    <TTGlyph name="emdashsuperior" xMin="43" yMin="526" xMax="549" yMax="540">
      <contour>
        <pt x="43" y="540" on="1"/>
        <pt x="549" y="540" on="1"/>
        <pt x="549" y="526" on="1"/>
        <pt x="43" y="526" on="1"/>
      </contour>
    </TTGlyph>
    <TTGlyph name="endashinferior" xMin="43" yMin="4" xMax="341" yMax="18">
      <component glyphName="endashsuperior" x="0" y="-522" flags="0x4"/>
    </TTGlyph>
    <TTGlyph name="endashsuperior" xMin="43" yMin="526" xMax="341" yMax="540">
      <contour>
        <pt x="43" y="540" on="1"/>
        <pt x="341" y="540" on="1"/>
        <pt x="341" y="526" on="1"/>
        <pt x="43" y="526" on="1"/>
      </contour>
    </TTGlyph>
    <TTGlyph name="f_t.liga" xMin="12" yMin="-10" xMax="607" yMax="735">
      <contour>
        <pt x="607" y="28" on="1"/>
        <pt x="592" y="12" on="0"/>
        <pt x="541" y="-10" on="0"/>
        <pt x="511" y="-10" on="1"/>
        <pt x="391" y="-10" on="0"/>
        <pt x="391" y="126" on="1"/>
        <pt x="391" y="486" on="1"/>
        <pt x="128" y="486" on="1"/>
        <pt x="128" y="0" on="1"/>
        <pt x="112" y="0" on="1"/>
        <pt x="112" y="486" on="1"/>
        <pt x="12" y="486" on="1"/>
        <pt x="12" y="500" on="1"/>
        <pt x="112" y="500" on="1"/>
        <pt x="112" y="583" on="1"/>
        <pt x="112" y="654" on="0"/>
        <pt x="183" y="735" on="0"/>
        <pt x="245" y="735" on="1"/>
        <pt x="274" y="735" on="0"/>
        <pt x="310" y="718" on="0"/>
        <pt x="322" y="704" on="1"/>
        <pt x="315" y="692" on="1"/>
        <pt x="290" y="721" on="0"/>
        <pt x="245" y="721" on="1"/>
        <pt x="190" y="721" on="0"/>
        <pt x="128" y="648" on="0"/>
        <pt x="128" y="583" on="1"/>
        <pt x="128" y="500" on="1"/>
        <pt x="391" y="500" on="1"/>
        <pt x="391" y="630" on="1"/>
        <pt x="407" y="635" on="1"/>
        <pt x="407" y="500" on="1"/>
        <pt x="600" y="500" on="1"/>
        <pt x="600" y="486" on="1"/>
        <pt x="407" y="486" on="1"/>
        <pt x="407" y="126" on="1"/>
        <pt x="407" y="4" on="0"/>
        <pt x="511" y="4" on="1"/>
        <pt x="565" y="4" on="0"/>
        <pt x="599" y="41" on="1"/>
      </contour>
    </TTGlyph>
    <TTGlyph name="g.ss01_j.liga" xMin="51" yMin="-215" xMax="700" yMax="642">
      <contour>
        <pt x="656" y="620" on="1"/>
        <pt x="656" y="642" on="0"/>
        <pt x="678" y="642" on="1"/>
        <pt x="700" y="642" on="0"/>
        <pt x="700" y="620" on="1"/>
        <pt x="700" y="598" on="0"/>
        <pt x="678" y="598" on="1"/>
        <pt x="656" y="598" on="0"/>
      </contour>
      <contour>
        <pt x="283" y="4" on="1"/>
        <pt x="374" y="4" on="0"/>
        <pt x="484" y="133" on="0"/>
        <pt x="484" y="246" on="1"/>
        <pt x="484" y="255" on="1"/>
        <pt x="483" y="368" on="0"/>
        <pt x="373" y="496" on="0"/>
        <pt x="283" y="496" on="1"/>
        <pt x="182" y="496" on="0"/>
        <pt x="68" y="366" on="0"/>
        <pt x="68" y="250" on="1"/>
        <pt x="68" y="134" on="0"/>
        <pt x="182" y="4" on="0"/>
      </contour>
      <contour>
        <pt x="271" y="-215" on="1"/>
        <pt x="188" y="-215" on="0"/>
        <pt x="79" y="-149" on="0"/>
        <pt x="67" y="-90" on="1"/>
        <pt x="83" y="-83" on="1"/>
        <pt x="93" y="-139" on="0"/>
        <pt x="192" y="-201" on="0"/>
        <pt x="271" y="-201" on="1"/>
        <pt x="372" y="-201" on="0"/>
        <pt x="484" y="-91" on="0"/>
        <pt x="484" y="7" on="1"/>
        <pt x="484" y="148" on="1"/>
        <pt x="445" y="-10" on="0"/>
        <pt x="280" y="-10" on="1"/>
        <pt x="173" y="-10" on="0"/>
        <pt x="51" y="128" on="0"/>
        <pt x="51" y="250" on="1"/>
        <pt x="51" y="372" on="0"/>
        <pt x="173" y="510" on="0"/>
        <pt x="280" y="510" on="1"/>
        <pt x="357" y="510" on="0"/>
        <pt x="464" y="427" on="0"/>
        <pt x="484" y="351" on="1"/>
        <pt x="484" y="499" on="1"/>
        <pt x="500" y="499" on="1"/>
        <pt x="500" y="8" on="1"/>
        <pt x="500" y="-97" on="0"/>
        <pt x="379" y="-215" on="0"/>
      </contour>
      <contour>
        <pt x="670" y="500" on="1"/>
        <pt x="686" y="500" on="1"/>
        <pt x="686" y="-64" on="1"/>
        <pt x="686" y="-133" on="0"/>
        <pt x="614" y="-215" on="0"/>
        <pt x="554" y="-215" on="1"/>
        <pt x="508" y="-215" on="0"/>
        <pt x="483" y="-193" on="1"/>
        <pt x="488" y="-179" on="1"/>
        <pt x="511" y="-201" on="0"/>
        <pt x="554" y="-201" on="1"/>
        <pt x="607" y="-201" on="0"/>
        <pt x="670" y="-126" on="0"/>
        <pt x="670" y="-64" on="1"/>
      </contour>
    </TTGlyph>
    <TTGlyph name="g_j.liga" xMin="34" yMin="-215" xMax="640" yMax="642">
      <contour>
        <pt x="596" y="620" on="1"/>
        <pt x="596" y="642" on="0"/>
        <pt x="618" y="642" on="1"/>
        <pt x="640" y="642" on="0"/>
        <pt x="640" y="620" on="1"/>
        <pt x="640" y="598" on="0"/>
        <pt x="618" y="598" on="1"/>
        <pt x="596" y="598" on="0"/>
      </contour>
      <contour>
        <pt x="438" y="353" on="1"/>
        <pt x="438" y="418" on="0"/>
        <pt x="340" y="496" on="0"/>
        <pt x="258" y="496" on="1"/>
        <pt x="176" y="496" on="0"/>
        <pt x="76" y="418" on="0"/>
        <pt x="76" y="353" on="1"/>
        <pt x="76" y="289" on="0"/>
        <pt x="176" y="210" on="0"/>
        <pt x="258" y="210" on="1"/>
        <pt x="340" y="210" on="0"/>
        <pt x="438" y="289" on="0"/>
      </contour>
      <contour>
        <pt x="492" y="-73" on="1"/>
        <pt x="492" y="-136" on="0"/>
        <pt x="366" y="-215" on="0"/>
        <pt x="264" y="-215" on="1"/>
        <pt x="157" y="-215" on="0"/>
        <pt x="34" y="-141" on="0"/>
        <pt x="34" y="-81" on="1"/>
        <pt x="34" y="-39" on="0"/>
        <pt x="96" y="20" on="0"/>
        <pt x="146" y="29" on="1"/>
        <pt x="65" y="50" on="0"/>
        <pt x="65" y="114" on="1"/>
        <pt x="65" y="153" on="0"/>
        <pt x="124" y="203" on="0"/>
        <pt x="169" y="210" on="1"/>
        <pt x="60" y="247" on="0"/>
        <pt x="60" y="353" on="1"/>
        <pt x="60" y="424" on="0"/>
        <pt x="169" y="510" on="0"/>
        <pt x="258" y="510" on="1"/>
        <pt x="329" y="510" on="0"/>
        <pt x="379" y="481" on="1"/>
        <pt x="383" y="532" on="0"/>
        <pt x="441" y="592" on="0"/>
        <pt x="491" y="592" on="1"/>
        <pt x="496" y="578" on="1"/>
        <pt x="448" y="578" on="0"/>
        <pt x="394" y="521" on="0"/>
        <pt x="392" y="473" on="1"/>
        <pt x="454" y="430" on="0"/>
        <pt x="454" y="353" on="1"/>
        <pt x="454" y="282" on="0"/>
        <pt x="347" y="196" on="0"/>
        <pt x="258" y="196" on="1"/>
        <pt x="227" y="196" on="0"/>
        <pt x="200" y="201" on="1"/>
        <pt x="149" y="198" on="0"/>
        <pt x="81" y="150" on="0"/>
        <pt x="81" y="116" on="1"/>
        <pt x="81" y="82" on="0"/>
        <pt x="143" y="37" on="0"/>
        <pt x="203" y="37" on="1"/>
        <pt x="326" y="37" on="1"/>
        <pt x="403" y="37" on="0"/>
        <pt x="492" y="-24" on="0"/>
      </contour>
      <contour>
        <pt x="266" y="-201" on="1"/>
        <pt x="355" y="-201" on="0"/>
        <pt x="476" y="-131" on="0"/>
        <pt x="476" y="-75" on="1"/>
        <pt x="476" y="-31" on="0"/>
        <pt x="394" y="23" on="0"/>
        <pt x="325" y="23" on="1"/>
        <pt x="197" y="23" on="1"/>
        <pt x="133" y="23" on="0"/>
        <pt x="50" y="-34" on="0"/>
        <pt x="50" y="-79" on="1"/>
        <pt x="50" y="-133" on="0"/>
        <pt x="166" y="-201" on="0"/>
      </contour>
      <contour>
        <pt x="610" y="500" on="1"/>
        <pt x="626" y="500" on="1"/>
        <pt x="626" y="-94" on="1"/>
        <pt x="626" y="-215" on="0"/>
        <pt x="548" y="-215" on="1"/>
        <pt x="514" y="-215" on="0"/>
        <pt x="494" y="-200" on="1"/>
        <pt x="499" y="-186" on="1"/>
        <pt x="515" y="-201" on="0"/>
        <pt x="548" y="-201" on="1"/>
        <pt x="610" y="-201" on="0"/>
        <pt x="610" y="-94" on="1"/>
      </contour>
    </TTGlyph>
    <TTGlyph name="hypheninferior" xMin="43" yMin="4" xMax="220" yMax="18">
      <component glyphName="hyphensuperior" x="0" y="-522" flags="0x4"/>
    </TTGlyph>
    <TTGlyph name="hyphensuperior" xMin="43" yMin="526" xMax="220" yMax="540">
      <contour>
        <pt x="43" y="540" on="1"/>
        <pt x="220" y="540" on="1"/>
        <pt x="220" y="526" on="1"/>
        <pt x="43" y="526" on="1"/>
      </contour>
    </TTGlyph>
    <TTGlyph name="iacute_j.loclNLD" xMin="84" yMin="-215" xMax="375" yMax="730">
      <contour>
        <pt x="271" y="500" on="1"/>
        <pt x="287" y="500" on="1"/>
        <pt x="287" y="-64" on="1"/>
        <pt x="287" y="-133" on="0"/>
        <pt x="215" y="-215" on="0"/>
        <pt x="155" y="-215" on="1"/>
        <pt x="109" y="-215" on="0"/>
        <pt x="84" y="-193" on="1"/>
        <pt x="89" y="-179" on="1"/>
        <pt x="112" y="-201" on="0"/>
        <pt x="155" y="-201" on="1"/>
        <pt x="208" y="-201" on="0"/>
        <pt x="271" y="-126" on="0"/>
        <pt x="271" y="-64" on="1"/>
      </contour>
      <contour>
        <pt x="85" y="500" on="1"/>
        <pt x="101" y="500" on="1"/>
        <pt x="101" y="0" on="1"/>
        <pt x="85" y="0" on="1"/>
      </contour>
      <contour>
        <pt x="375" y="730" on="1"/>
        <pt x="357" y="730" on="1"/>
        <pt x="272" y="583" on="1"/>
        <pt x="287" y="583" on="1"/>
      </contour>
      <contour>
        <pt x="189" y="730" on="1"/>
        <pt x="171" y="730" on="1"/>
        <pt x="86" y="583" on="1"/>
        <pt x="101" y="583" on="1"/>
      </contour>
    </TTGlyph>
    <TTGlyph name="iacute_j.loclNLD.sc" xMin="90" yMin="-8" xMax="642" yMax="791">
      <component glyphName="uni0069.sc" x="0" y="0" flags="0x4"/>
      <component glyphName="uni006A.sc" x="196" y="0" flags="0x4"/>
      <component glyphName="uni0301.cap" x="550" y="-100" flags="0x4"/>
      <component glyphName="uni0301.cap" x="98" y="-100" flags="0x4"/>
    </TTGlyph>
    <TTGlyph name="iacute_j.loclNLD.sc.ss05" xMin="81" yMin="-8" xMax="504" yMax="791">
      <component glyphName="uni0133.sc.ss05" x="0" y="0" flags="0x4"/>
      <component glyphName="uni0301.cap" x="91" y="-100" flags="0x4"/>
      <component glyphName="uni0301.cap" x="412" y="-100" flags="0x4"/>
    </TTGlyph>
    <TTGlyph name="idotaccent" xMin="71" yMin="0" xMax="115" yMax="642">
      <component glyphName="uni0069" x="0" y="0" flags="0x4"/>
    </TTGlyph>
    <TTGlyph name="idotaccent.sc" xMin="76" yMin="0" xMax="120" yMax="680">
      <component glyphName="uni0069.sc" x="0" y="0" flags="0x4"/>
      <component glyphName="uni02D9" x="-177" y="38" flags="0x4"/>
    </TTGlyph>
    <TTGlyph name="indexring" xMin="91" yMin="-40" xMax="819" yMax="700">
      <contour>
        <pt x="819" y="330" on="1"/>
        <pt x="819" y="169" on="0"/>
        <pt x="614" y="-40" on="0"/>
        <pt x="455" y="-40" on="1"/>
        <pt x="296" y="-40" on="0"/>
        <pt x="91" y="169" on="0"/>
        <pt x="91" y="330" on="1"/>
        <pt x="91" y="491" on="0"/>
        <pt x="296" y="700" on="0"/>
        <pt x="455" y="700" on="1"/>
        <pt x="614" y="700" on="0"/>
        <pt x="819" y="491" on="0"/>
      </contour>
      <contour>
        <pt x="107" y="330" on="1"/>
        <pt x="107" y="175" on="0"/>
        <pt x="304" y="-26" on="0"/>
        <pt x="455" y="-26" on="1"/>
        <pt x="607" y="-26" on="0"/>
        <pt x="803" y="175" on="0"/>
        <pt x="803" y="330" on="1"/>
        <pt x="803" y="485" on="0"/>
        <pt x="607" y="686" on="0"/>
        <pt x="455" y="686" on="1"/>
        <pt x="304" y="686" on="0"/>
        <pt x="107" y="485" on="0"/>
      </contour>
    </TTGlyph>
    <TTGlyph name="j_j.liga" xMin="-102" yMin="-215" xMax="301" yMax="642">
      <contour>
        <pt x="257" y="620" on="1"/>
        <pt x="257" y="642" on="0"/>
        <pt x="279" y="642" on="1"/>
        <pt x="301" y="642" on="0"/>
        <pt x="301" y="620" on="1"/>
        <pt x="301" y="598" on="0"/>
        <pt x="279" y="598" on="1"/>
        <pt x="257" y="598" on="0"/>
      </contour>
      <contour>
        <pt x="71" y="620" on="1"/>
        <pt x="71" y="642" on="0"/>
        <pt x="93" y="642" on="1"/>
        <pt x="115" y="642" on="0"/>
        <pt x="115" y="620" on="1"/>
        <pt x="115" y="598" on="0"/>
        <pt x="93" y="598" on="1"/>
        <pt x="71" y="598" on="0"/>
      </contour>
      <contour>
        <pt x="271" y="500" on="1"/>
        <pt x="287" y="500" on="1"/>
        <pt x="287" y="-64" on="1"/>
        <pt x="287" y="-133" on="0"/>
        <pt x="215" y="-215" on="0"/>
        <pt x="155" y="-215" on="1"/>
        <pt x="109" y="-215" on="0"/>
        <pt x="84" y="-193" on="1"/>
        <pt x="89" y="-179" on="1"/>
        <pt x="112" y="-201" on="0"/>
        <pt x="155" y="-201" on="1"/>
        <pt x="208" y="-201" on="0"/>
        <pt x="271" y="-126" on="0"/>
        <pt x="271" y="-64" on="1"/>
      </contour>
      <contour>
        <pt x="85" y="500" on="1"/>
        <pt x="101" y="500" on="1"/>
        <pt x="101" y="-64" on="1"/>
        <pt x="101" y="-133" on="0"/>
        <pt x="29" y="-215" on="0"/>
        <pt x="-31" y="-215" on="1"/>
        <pt x="-77" y="-215" on="0"/>
        <pt x="-102" y="-193" on="1"/>
        <pt x="-97" y="-179" on="1"/>
        <pt x="-74" y="-201" on="0"/>
        <pt x="-31" y="-201" on="1"/>
        <pt x="22" y="-201" on="0"/>
        <pt x="85" y="-126" on="0"/>
        <pt x="85" y="-64" on="1"/>
      </contour>
    </TTGlyph>
    <TTGlyph name="periodinferior" xMin="45" yMin="-192" xMax="83" yMax="-154">
      <component glyphName="periodsuperior" x="0" y="-522" flags="0x4"/>
    </TTGlyph>
    <TTGlyph name="periodsuperior" xMin="45" yMin="330" xMax="83" yMax="368">
      <contour>
        <pt x="45" y="349" on="1"/>
        <pt x="45" y="368" on="0"/>
        <pt x="64" y="368" on="1"/>
        <pt x="83" y="368" on="0"/>
        <pt x="83" y="349" on="1"/>
        <pt x="83" y="330" on="0"/>
        <pt x="64" y="330" on="1"/>
        <pt x="45" y="330" on="0"/>
      </contour>
    </TTGlyph>
    <TTGlyph name="registeredsuperior" xMin="20" yMin="228" xMax="464" yMax="670">
      <contour>
        <pt x="464" y="449" on="1"/>
        <pt x="464" y="355" on="0"/>
        <pt x="337" y="228" on="0"/>
        <pt x="242" y="228" on="1"/>
        <pt x="147" y="228" on="0"/>
        <pt x="20" y="355" on="0"/>
        <pt x="20" y="449" on="1"/>
        <pt x="20" y="544" on="0"/>
        <pt x="147" y="670" on="0"/>
        <pt x="242" y="670" on="1"/>
        <pt x="337" y="670" on="0"/>
        <pt x="464" y="544" on="0"/>
      </contour>
      <contour>
        <pt x="36" y="449" on="1"/>
        <pt x="36" y="361" on="0"/>
        <pt x="154" y="242" on="0"/>
        <pt x="242" y="242" on="1"/>
        <pt x="330" y="242" on="0"/>
        <pt x="448" y="361" on="0"/>
        <pt x="448" y="449" on="1"/>
        <pt x="448" y="537" on="0"/>
        <pt x="330" y="655" on="0"/>
        <pt x="242" y="655" on="1"/>
        <pt x="154" y="655" on="0"/>
        <pt x="36" y="537" on="0"/>
      </contour>
      <contour>
        <pt x="263" y="553" on="1"/>
        <pt x="178" y="553" on="1"/>
        <pt x="178" y="446" on="1"/>
        <pt x="263" y="446" on="1"/>
        <pt x="326" y="446" on="0"/>
        <pt x="326" y="500" on="1"/>
        <pt x="326" y="553" on="0"/>
      </contour>
      <contour>
        <pt x="327" y="326" on="1"/>
        <pt x="259" y="432" on="1"/>
        <pt x="178" y="432" on="1"/>
        <pt x="178" y="326" on="1"/>
        <pt x="162" y="326" on="1"/>
        <pt x="162" y="567" on="1"/>
        <pt x="259" y="567" on="1"/>
        <pt x="342" y="567" on="0"/>
        <pt x="342" y="499" on="1"/>
        <pt x="342" y="440" on="0"/>
        <pt x="276" y="433" on="1"/>
        <pt x="346" y="326" on="1"/>
      </contour>
    </TTGlyph>
    <TTGlyph name="t_t.liga" xMin="11" yMin="-10" xMax="656" yMax="635">
      <contour>
        <pt x="656" y="28" on="1"/>
        <pt x="641" y="12" on="0"/>
        <pt x="590" y="-10" on="0"/>
        <pt x="560" y="-10" on="1"/>
        <pt x="440" y="-10" on="0"/>
        <pt x="440" y="126" on="1"/>
        <pt x="440" y="486" on="1"/>
        <pt x="340" y="486" on="1"/>
        <pt x="340" y="500" on="1"/>
        <pt x="440" y="500" on="1"/>
        <pt x="440" y="630" on="1"/>
        <pt x="456" y="635" on="1"/>
        <pt x="456" y="500" on="1"/>
        <pt x="649" y="500" on="1"/>
        <pt x="649" y="486" on="1"/>
        <pt x="456" y="486" on="1"/>
        <pt x="456" y="126" on="1"/>
        <pt x="456" y="4" on="0"/>
        <pt x="560" y="4" on="1"/>
        <pt x="614" y="4" on="0"/>
        <pt x="648" y="41" on="1"/>
      </contour>
      <contour>
        <pt x="327" y="28" on="1"/>
        <pt x="312" y="12" on="0"/>
        <pt x="261" y="-10" on="0"/>
        <pt x="231" y="-10" on="1"/>
        <pt x="111" y="-10" on="0"/>
        <pt x="111" y="126" on="1"/>
        <pt x="111" y="486" on="1"/>
        <pt x="11" y="486" on="1"/>
        <pt x="11" y="500" on="1"/>
        <pt x="111" y="500" on="1"/>
        <pt x="111" y="630" on="1"/>
        <pt x="127" y="635" on="1"/>
        <pt x="127" y="500" on="1"/>
        <pt x="320" y="500" on="1"/>
        <pt x="320" y="486" on="1"/>
        <pt x="127" y="486" on="1"/>
        <pt x="127" y="126" on="1"/>
        <pt x="127" y="4" on="0"/>
        <pt x="231" y="4" on="1"/>
        <pt x="285" y="4" on="0"/>
        <pt x="319" y="41" on="1"/>
      </contour>
    </TTGlyph>
    <TTGlyph name="uni0021" xMin="69" yMin="-5" xMax="113" yMax="660">
      <contour>
        <pt x="99" y="170" on="1"/>
        <pt x="83" y="170" on="1"/>
        <pt x="83" y="660" on="1"/>
        <pt x="99" y="660" on="1"/>
      </contour>
      <contour>
        <pt x="69" y="17" on="1"/>
        <pt x="69" y="39" on="0"/>
        <pt x="91" y="39" on="1"/>
        <pt x="113" y="39" on="0"/>
        <pt x="113" y="17" on="1"/>
        <pt x="113" y="-5" on="0"/>
        <pt x="91" y="-5" on="1"/>
        <pt x="69" y="-5" on="0"/>
      </contour>
    </TTGlyph>
    <TTGlyph name="uni0021.sc" xMin="62" yMin="-5" xMax="106" yMax="560">
      <contour>
        <pt x="92" y="145" on="1"/>
        <pt x="76" y="145" on="1"/>
        <pt x="76" y="560" on="1"/>
        <pt x="92" y="560" on="1"/>
      </contour>
      <contour>
        <pt x="62" y="17" on="1"/>
        <pt x="62" y="39" on="0"/>
        <pt x="84" y="39" on="1"/>
        <pt x="106" y="39" on="0"/>
        <pt x="106" y="17" on="1"/>
        <pt x="106" y="-5" on="0"/>
        <pt x="84" y="-5" on="1"/>
        <pt x="62" y="-5" on="0"/>
      </contour>
    </TTGlyph>
    <TTGlyph name="uni0022" xMin="66" yMin="521" xMax="175" yMax="680">
      <component glyphName="uni0027" x="92" y="0" flags="0x4"/>
      <component glyphName="uni0027" x="0" y="0" flags="0x4"/>
    </TTGlyph>
    <TTGlyph name="uni0022.sc" xMin="66" yMin="411" xMax="175" yMax="570">
      <component glyphName="uni0027.sc" x="92" y="0" flags="0x4"/>
      <component glyphName="uni0027.sc" x="0" y="0" flags="0x4"/>
    </TTGlyph>
    <TTGlyph name="uni0023" xMin="43" yMin="0" xMax="589" yMax="660">
      <contour>
        <pt x="396" y="227" on="1"/>
        <pt x="429" y="443" on="1"/>
        <pt x="232" y="443" on="1"/>
        <pt x="199" y="227" on="1"/>
      </contour>
      <contour>
        <pt x="362" y="0" on="1"/>
        <pt x="394" y="213" on="1"/>
        <pt x="197" y="213" on="1"/>
        <pt x="165" y="0" on="1"/>
        <pt x="149" y="0" on="1"/>
        <pt x="181" y="213" on="1"/>
        <pt x="43" y="213" on="1"/>
        <pt x="43" y="227" on="1"/>
        <pt x="183" y="227" on="1"/>
        <pt x="216" y="443" on="1"/>
        <pt x="73" y="443" on="1"/>
        <pt x="73" y="457" on="1"/>
        <pt x="218" y="457" on="1"/>
        <pt x="249" y="660" on="1"/>
        <pt x="265" y="660" on="1"/>
        <pt x="234" y="457" on="1"/>
        <pt x="431" y="457" on="1"/>
        <pt x="462" y="660" on="1"/>
        <pt x="478" y="660" on="1"/>
        <pt x="447" y="457" on="1"/>
        <pt x="589" y="457" on="1"/>
        <pt x="589" y="443" on="1"/>
        <pt x="445" y="443" on="1"/>
        <pt x="412" y="227" on="1"/>
        <pt x="559" y="227" on="1"/>
        <pt x="559" y="213" on="1"/>
        <pt x="410" y="213" on="1"/>
        <pt x="378" y="0" on="1"/>
      </contour>
    </TTGlyph>
    <TTGlyph name="uni0023.tf" xMin="39" yMin="0" xMax="565" yMax="660">
      <contour>
        <pt x="377" y="227" on="1"/>
        <pt x="410" y="443" on="1"/>
        <pt x="223" y="443" on="1"/>
        <pt x="190" y="227" on="1"/>
      </contour>
      <contour>
        <pt x="343" y="0" on="1"/>
        <pt x="375" y="213" on="1"/>
        <pt x="188" y="213" on="1"/>
        <pt x="156" y="0" on="1"/>
        <pt x="140" y="0" on="1"/>
        <pt x="172" y="213" on="1"/>
        <pt x="39" y="213" on="1"/>
        <pt x="39" y="227" on="1"/>
        <pt x="174" y="227" on="1"/>
        <pt x="207" y="443" on="1"/>
        <pt x="69" y="443" on="1"/>
        <pt x="69" y="457" on="1"/>
        <pt x="209" y="457" on="1"/>
        <pt x="240" y="660" on="1"/>
        <pt x="256" y="660" on="1"/>
        <pt x="225" y="457" on="1"/>
        <pt x="412" y="457" on="1"/>
        <pt x="443" y="660" on="1"/>
        <pt x="459" y="660" on="1"/>
        <pt x="428" y="457" on="1"/>
        <pt x="565" y="457" on="1"/>
        <pt x="565" y="443" on="1"/>
        <pt x="426" y="443" on="1"/>
        <pt x="393" y="227" on="1"/>
        <pt x="535" y="227" on="1"/>
        <pt x="535" y="213" on="1"/>
        <pt x="391" y="213" on="1"/>
        <pt x="359" y="0" on="1"/>
      </contour>
    </TTGlyph>
    <TTGlyph name="uni0024" xMin="57" yMin="-100" xMax="523" yMax="760">
      <contour>
        <pt x="87" y="487" on="1"/>
        <pt x="87" y="405" on="0"/>
        <pt x="213" y="351" on="0"/>
        <pt x="291" y="335" on="1"/>
        <pt x="291" y="646" on="1"/>
        <pt x="197" y="646" on="0"/>
        <pt x="87" y="555" on="0"/>
      </contour>
      <contour>
        <pt x="305" y="316" on="1"/>
        <pt x="305" y="14" on="1"/>
        <pt x="389" y="15" on="0"/>
        <pt x="507" y="93" on="0"/>
        <pt x="507" y="165" on="1"/>
        <pt x="507" y="245" on="0"/>
        <pt x="382" y="300" on="0"/>
      </contour>
      <contour>
        <pt x="305" y="-100" on="1"/>
        <pt x="291" y="-100" on="1"/>
        <pt x="291" y="0" on="1"/>
        <pt x="201" y="3" on="0"/>
        <pt x="77" y="91" on="0"/>
        <pt x="57" y="171" on="1"/>
        <pt x="72" y="179" on="1"/>
        <pt x="88" y="102" on="0"/>
        <pt x="207" y="17" on="0"/>
        <pt x="291" y="14" on="1"/>
        <pt x="291" y="318" on="1"/>
        <pt x="236" y="330" on="0"/>
        <pt x="135" y="361" on="0"/>
        <pt x="71" y="426" on="0"/>
        <pt x="71" y="487" on="1"/>
        <pt x="71" y="555" on="0"/>
        <pt x="187" y="660" on="0"/>
        <pt x="291" y="660" on="1"/>
        <pt x="291" y="760" on="1"/>
        <pt x="305" y="760" on="1"/>
        <pt x="305" y="660" on="1"/>
        <pt x="473" y="654" on="0"/>
        <pt x="514" y="512" on="1"/>
        <pt x="501" y="502" on="1"/>
        <pt x="465" y="640" on="0"/>
        <pt x="305" y="646" on="1"/>
        <pt x="305" y="332" on="1"/>
        <pt x="360" y="321" on="0"/>
        <pt x="459" y="290" on="0"/>
        <pt x="523" y="226" on="0"/>
        <pt x="523" y="165" on="1"/>
        <pt x="523" y="92" on="0"/>
        <pt x="405" y="1" on="0"/>
        <pt x="305" y="0" on="1"/>
      </contour>
    </TTGlyph>
    <TTGlyph name="uni0024.tf" xMin="91" yMin="-100" xMax="533" yMax="760">
      <contour>
        <pt x="120" y="487" on="1"/>
        <pt x="120" y="408" on="0"/>
        <pt x="234" y="352" on="0"/>
        <pt x="306" y="336" on="1"/>
        <pt x="306" y="646" on="1"/>
        <pt x="220" y="645" on="0"/>
        <pt x="120" y="554" on="0"/>
      </contour>
      <contour>
        <pt x="324" y="14" on="1"/>
        <pt x="404" y="14" on="0"/>
        <pt x="517" y="92" on="0"/>
        <pt x="517" y="165" on="1"/>
        <pt x="517" y="246" on="0"/>
        <pt x="395" y="301" on="0"/>
        <pt x="320" y="317" on="1"/>
        <pt x="320" y="14" on="1"/>
      </contour>
      <contour>
        <pt x="324" y="0" on="1"/>
        <pt x="322" y="0" on="0"/>
        <pt x="320" y="0" on="1"/>
        <pt x="320" y="-100" on="1"/>
        <pt x="306" y="-100" on="1"/>
        <pt x="306" y="0" on="1"/>
        <pt x="223" y="5" on="0"/>
        <pt x="109" y="92" on="0"/>
        <pt x="91" y="171" on="1"/>
        <pt x="106" y="179" on="1"/>
        <pt x="121" y="103" on="0"/>
        <pt x="229" y="19" on="0"/>
        <pt x="306" y="15" on="1"/>
        <pt x="306" y="320" on="1"/>
        <pt x="230" y="336" on="0"/>
        <pt x="104" y="398" on="0"/>
        <pt x="104" y="487" on="1"/>
        <pt x="104" y="555" on="0"/>
        <pt x="212" y="660" on="0"/>
        <pt x="306" y="660" on="1"/>
        <pt x="306" y="760" on="1"/>
        <pt x="320" y="760" on="1"/>
        <pt x="320" y="660" on="1"/>
        <pt x="484" y="656" on="0"/>
        <pt x="524" y="512" on="1"/>
        <pt x="511" y="502" on="1"/>
        <pt x="477" y="642" on="0"/>
        <pt x="320" y="646" on="1"/>
        <pt x="320" y="333" on="1"/>
        <pt x="373" y="322" on="0"/>
        <pt x="470" y="292" on="0"/>
        <pt x="533" y="227" on="0"/>
        <pt x="533" y="165" on="1"/>
        <pt x="533" y="92" on="0"/>
        <pt x="419" y="0" on="0"/>
      </contour>
    </TTGlyph>
    <TTGlyph name="uni0025" xMin="39" yMin="0" xMax="716" yMax="660">
      <contour>
        <pt x="163" y="0" on="1"/>
        <pt x="144" y="0" on="1"/>
        <pt x="591" y="660" on="1"/>
        <pt x="610" y="660" on="1"/>
      </contour>
      <contour>
        <pt x="39" y="492" on="1"/>
        <pt x="39" y="556" on="0"/>
        <pt x="104" y="660" on="0"/>
        <pt x="178" y="660" on="1"/>
        <pt x="252" y="660" on="0"/>
        <pt x="316" y="556" on="0"/>
        <pt x="316" y="492" on="1"/>
        <pt x="316" y="428" on="0"/>
        <pt x="252" y="327" on="0"/>
        <pt x="178" y="327" on="1"/>
        <pt x="105" y="327" on="0"/>
        <pt x="39" y="428" on="0"/>
      </contour>
      <contour>
        <pt x="300" y="492" on="1"/>
        <pt x="300" y="552" on="0"/>
        <pt x="242" y="646" on="0"/>
        <pt x="178" y="646" on="1"/>
        <pt x="114" y="646" on="0"/>
        <pt x="55" y="552" on="0"/>
        <pt x="55" y="492" on="1"/>
        <pt x="55" y="432" on="0"/>
        <pt x="114" y="341" on="0"/>
        <pt x="178" y="341" on="1"/>
        <pt x="243" y="341" on="0"/>
        <pt x="300" y="432" on="0"/>
      </contour>
      <contour>
        <pt x="438" y="166" on="1"/>
        <pt x="438" y="230" on="0"/>
        <pt x="504" y="333" on="0"/>
        <pt x="578" y="333" on="1"/>
        <pt x="652" y="333" on="0"/>
        <pt x="716" y="230" on="0"/>
        <pt x="716" y="166" on="1"/>
        <pt x="716" y="102" on="0"/>
        <pt x="652" y="0" on="0"/>
        <pt x="578" y="0" on="1"/>
        <pt x="505" y="0" on="0"/>
        <pt x="438" y="102" on="0"/>
      </contour>
      <contour>
        <pt x="700" y="166" on="1"/>
        <pt x="700" y="226" on="0"/>
        <pt x="642" y="319" on="0"/>
        <pt x="578" y="319" on="1"/>
        <pt x="513" y="319" on="0"/>
        <pt x="454" y="226" on="0"/>
        <pt x="454" y="166" on="1"/>
        <pt x="454" y="106" on="0"/>
        <pt x="514" y="14" on="0"/>
        <pt x="578" y="14" on="1"/>
        <pt x="642" y="14" on="0"/>
        <pt x="700" y="106" on="0"/>
      </contour>
    </TTGlyph>
    <TTGlyph name="uni0026" xMin="45" yMin="-10" xMax="579" yMax="666">
      <contour>
        <pt x="578" y="-10" on="1"/>
        <pt x="543" y="-10" on="0"/>
        <pt x="479" y="32" on="0"/>
        <pt x="433" y="85" on="1"/>
        <pt x="401" y="42" on="0"/>
        <pt x="303" y="-10" on="0"/>
        <pt x="234" y="-10" on="1"/>
        <pt x="154" y="-10" on="0"/>
        <pt x="45" y="69" on="0"/>
        <pt x="45" y="139" on="1"/>
        <pt x="45" y="216" on="0"/>
        <pt x="144" y="309" on="0"/>
        <pt x="223" y="355" on="1"/>
        <pt x="172" y="422" on="0"/>
        <pt x="134" y="493" on="0"/>
        <pt x="134" y="533" on="1"/>
        <pt x="134" y="594" on="0"/>
        <pt x="210" y="666" on="0"/>
        <pt x="274" y="666" on="1"/>
        <pt x="335" y="666" on="0"/>
        <pt x="408" y="602" on="0"/>
        <pt x="408" y="548" on="1"/>
        <pt x="408" y="495" on="0"/>
        <pt x="343" y="407" on="0"/>
        <pt x="251" y="354" on="1"/>
        <pt x="245" y="350" on="1"/>
        <pt x="259" y="331" on="0"/>
        <pt x="295" y="284" on="0"/>
        <pt x="316" y="256" on="1"/>
        <pt x="352" y="209" on="0"/>
        <pt x="408" y="136" on="0"/>
        <pt x="431" y="109" on="1"/>
        <pt x="465" y="159" on="0"/>
        <pt x="495" y="292" on="0"/>
        <pt x="495" y="366" on="1"/>
        <pt x="510" y="366" on="1"/>
        <pt x="510" y="295" on="0"/>
        <pt x="480" y="152" on="0"/>
        <pt x="442" y="97" on="1"/>
        <pt x="489" y="42" on="0"/>
        <pt x="549" y="3" on="0"/>
        <pt x="579" y="3" on="1"/>
      </contour>
      <contour>
        <pt x="150" y="533" on="1"/>
        <pt x="150" y="496" on="0"/>
        <pt x="181" y="436" on="0"/>
        <pt x="235" y="363" on="1"/>
        <pt x="241" y="366" on="1"/>
        <pt x="330" y="418" on="0"/>
        <pt x="392" y="499" on="0"/>
        <pt x="392" y="548" on="1"/>
        <pt x="392" y="595" on="0"/>
        <pt x="328" y="652" on="0"/>
        <pt x="274" y="652" on="1"/>
        <pt x="218" y="652" on="0"/>
        <pt x="150" y="587" on="0"/>
      </contour>
      <contour>
        <pt x="231" y="4" on="1"/>
        <pt x="296" y="4" on="0"/>
        <pt x="391" y="54" on="0"/>
        <pt x="423" y="97" on="1"/>
        <pt x="400" y="125" on="0"/>
        <pt x="343" y="198" on="0"/>
        <pt x="307" y="245" on="1"/>
        <pt x="285" y="274" on="0"/>
        <pt x="248" y="323" on="0"/>
        <pt x="232" y="343" on="1"/>
        <pt x="156" y="299" on="0"/>
        <pt x="61" y="213" on="0"/>
        <pt x="61" y="139" on="1"/>
        <pt x="61" y="75" on="0"/>
        <pt x="160" y="4" on="0"/>
      </contour>
    </TTGlyph>
    <TTGlyph name="uni0026.sc" xMin="42" yMin="-8" xMax="514" yMax="565">
      <contour>
        <pt x="512" y="-8" on="1"/>
        <pt x="481" y="-8" on="0"/>
        <pt x="425" y="26" on="0"/>
        <pt x="385" y="71" on="1"/>
        <pt x="356" y="35" on="0"/>
        <pt x="270" y="-8" on="0"/>
        <pt x="209" y="-8" on="1"/>
        <pt x="139" y="-8" on="0"/>
        <pt x="42" y="58" on="0"/>
        <pt x="42" y="118" on="1"/>
        <pt x="42" y="185" on="0"/>
        <pt x="132" y="264" on="0"/>
        <pt x="198" y="302" on="1"/>
        <pt x="154" y="358" on="0"/>
        <pt x="121" y="418" on="0"/>
        <pt x="121" y="452" on="1"/>
        <pt x="121" y="503" on="0"/>
        <pt x="188" y="565" on="0"/>
        <pt x="244" y="565" on="1"/>
        <pt x="298" y="565" on="0"/>
        <pt x="363" y="511" on="0"/>
        <pt x="363" y="464" on="1"/>
        <pt x="363" y="419" on="0"/>
        <pt x="305" y="343" on="0"/>
        <pt x="220" y="296" on="1"/>
        <pt x="232" y="280" on="0"/>
        <pt x="263" y="240" on="0"/>
        <pt x="282" y="217" on="1"/>
        <pt x="313" y="178" on="0"/>
        <pt x="363" y="117" on="0"/>
        <pt x="383" y="94" on="1"/>
        <pt x="412" y="136" on="0"/>
        <pt x="439" y="248" on="0"/>
        <pt x="439" y="310" on="1"/>
        <pt x="453" y="310" on="1"/>
        <pt x="453" y="250" on="0"/>
        <pt x="426" y="129" on="0"/>
        <pt x="393" y="82" on="1"/>
        <pt x="435" y="37" on="0"/>
        <pt x="487" y="4" on="0"/>
        <pt x="514" y="4" on="1"/>
      </contour>
      <contour>
        <pt x="136" y="452" on="1"/>
        <pt x="136" y="421" on="0"/>
        <pt x="162" y="369" on="0"/>
        <pt x="210" y="308" on="1"/>
        <pt x="293" y="355" on="0"/>
        <pt x="347" y="423" on="0"/>
        <pt x="347" y="464" on="1"/>
        <pt x="347" y="504" on="0"/>
        <pt x="291" y="551" on="0"/>
        <pt x="244" y="551" on="1"/>
        <pt x="195" y="551" on="0"/>
        <pt x="136" y="497" on="0"/>
      </contour>
      <contour>
        <pt x="207" y="5" on="1"/>
        <pt x="264" y="5" on="0"/>
        <pt x="347" y="46" on="0"/>
        <pt x="375" y="82" on="1"/>
        <pt x="354" y="106" on="0"/>
        <pt x="304" y="167" on="0"/>
        <pt x="273" y="207" on="1"/>
        <pt x="254" y="231" on="0"/>
        <pt x="221" y="272" on="0"/>
        <pt x="208" y="290" on="1"/>
        <pt x="144" y="255" on="0"/>
        <pt x="58" y="183" on="0"/>
        <pt x="58" y="119" on="1"/>
        <pt x="58" y="65" on="0"/>
        <pt x="145" y="5" on="0"/>
      </contour>
    </TTGlyph>
    <TTGlyph name="uni0027" xMin="66" yMin="521" xMax="83" yMax="680">
      <contour>
        <pt x="66" y="680" on="1"/>
        <pt x="83" y="680" on="1"/>
        <pt x="83" y="521" on="1"/>
        <pt x="66" y="521" on="1"/>
      </contour>
    </TTGlyph>
    <TTGlyph name="uni0027.sc" xMin="66" yMin="411" xMax="83" yMax="570">
      <contour>
        <pt x="66" y="570" on="1"/>
        <pt x="83" y="570" on="1"/>
        <pt x="83" y="411" on="1"/>
        <pt x="66" y="411" on="1"/>
      </contour>
    </TTGlyph>
    <TTGlyph name="uni0028" xMin="53" yMin="-170" xMax="244" yMax="740">
      <contour>
        <pt x="53" y="285" on="1"/>
        <pt x="53" y="585" on="0"/>
        <pt x="236" y="740" on="1"/>
        <pt x="244" y="730" on="1"/>
        <pt x="153" y="654" on="0"/>
        <pt x="68" y="434" on="0"/>
        <pt x="68" y="285" on="1"/>
        <pt x="68" y="137" on="0"/>
        <pt x="153" y="-84" on="0"/>
        <pt x="244" y="-160" on="1"/>
        <pt x="236" y="-170" on="1"/>
        <pt x="53" y="-15" on="0"/>
      </contour>
    </TTGlyph>
    <TTGlyph name="uni0028.case" xMin="53" yMin="-128" xMax="244" yMax="782">
      <component glyphName="uni0028" x="0" y="42" flags="0x4"/>
    </TTGlyph>
    <TTGlyph name="uni0029" xMin="9" yMin="-170" xMax="200" yMax="740">
      <component glyphName="uni0028" x="253" y="0" scalex="-1.0" scaley="1.0" flags="0x4"/>
    </TTGlyph>
    <TTGlyph name="uni0029.case" xMin="9" yMin="-128" xMax="200" yMax="782">
      <component glyphName="uni0028.case" x="253" y="0" scalex="-1.0" scaley="1.0" flags="0x4"/>
    </TTGlyph>
    <TTGlyph name="uni002A" xMin="46" yMin="333" xMax="464" yMax="730">
      <contour>
        <pt x="376" y="333" on="1"/>
        <pt x="297" y="441" on="1"/>
        <pt x="255" y="503" on="1"/>
        <pt x="213" y="441" on="1"/>
        <pt x="134" y="333" on="1"/>
        <pt x="121" y="342" on="1"/>
        <pt x="200" y="451" on="1"/>
        <pt x="245" y="510" on="1"/>
        <pt x="173" y="531" on="1"/>
        <pt x="46" y="573" on="1"/>
        <pt x="51" y="588" on="1"/>
        <pt x="178" y="547" on="1"/>
        <pt x="249" y="522" on="1"/>
        <pt x="247" y="596" on="1"/>
        <pt x="247" y="730" on="1"/>
        <pt x="263" y="730" on="1"/>
        <pt x="263" y="596" on="1"/>
        <pt x="261" y="522" on="1"/>
        <pt x="331" y="547" on="1"/>
        <pt x="459" y="588" on="1"/>
        <pt x="464" y="573" on="1"/>
        <pt x="336" y="531" on="1"/>
        <pt x="265" y="510" on="1"/>
        <pt x="310" y="451" on="1"/>
        <pt x="389" y="342" on="1"/>
      </contour>
    </TTGlyph>
    <TTGlyph name="uni002B" xMin="70" yMin="79" xMax="534" yMax="545">
      <contour>
        <pt x="534" y="309" on="1"/>
        <pt x="310" y="309" on="1"/>
        <pt x="310" y="79" on="1"/>
        <pt x="294" y="79" on="1"/>
        <pt x="294" y="309" on="1"/>
        <pt x="70" y="309" on="1"/>
        <pt x="70" y="323" on="1"/>
        <pt x="294" y="323" on="1"/>
        <pt x="294" y="545" on="1"/>
        <pt x="310" y="545" on="1"/>
        <pt x="310" y="323" on="1"/>
        <pt x="534" y="323" on="1"/>
      </contour>
    </TTGlyph>
    <TTGlyph name="uni002C" xMin="47" yMin="-107" xMax="118" yMax="39">
      <contour>
        <pt x="62" y="17" on="1"/>
        <pt x="62" y="39" on="0"/>
        <pt x="85" y="39" on="1"/>
        <pt x="118" y="39" on="0"/>
        <pt x="118" y="-6" on="1"/>
        <pt x="118" y="-35" on="0"/>
        <pt x="88" y="-91" on="0"/>
        <pt x="59" y="-107" on="1"/>
        <pt x="47" y="-98" on="1"/>
        <pt x="78" y="-85" on="0"/>
        <pt x="113" y="-18" on="0"/>
        <pt x="102" y="7" on="1"/>
        <pt x="100" y="7" on="1"/>
        <pt x="96" y="-5" on="0"/>
        <pt x="83" y="-5" on="1"/>
        <pt x="62" y="-5" on="0"/>
      </contour>
    </TTGlyph>
    <TTGlyph name="uni002C.tf" xMin="116" yMin="-107" xMax="187" yMax="39">
      <component glyphName="uni002C" x="69" y="0" flags="0x4"/>
    </TTGlyph>
    <TTGlyph name="uni002D" xMin="68" yMin="262" xMax="349" yMax="278">
      <contour>
        <pt x="68" y="278" on="1"/>
        <pt x="349" y="278" on="1"/>
        <pt x="349" y="262" on="1"/>
        <pt x="68" y="262" on="1"/>
      </contour>
    </TTGlyph>
    <TTGlyph name="uni002D.case" xMin="68" yMin="329" xMax="349" yMax="345">
      <component glyphName="uni002D" x="0" y="67" flags="0x4"/>
    </TTGlyph>
    <TTGlyph name="uni002E" xMin="62" yMin="-5" xMax="106" yMax="39">
      <contour>
        <pt x="62" y="17" on="1"/>
        <pt x="62" y="39" on="0"/>
        <pt x="84" y="39" on="1"/>
        <pt x="106" y="39" on="0"/>
        <pt x="106" y="17" on="1"/>
        <pt x="106" y="-5" on="0"/>
        <pt x="84" y="-5" on="1"/>
        <pt x="62" y="-5" on="0"/>
      </contour>
    </TTGlyph>
    <TTGlyph name="uni002E.tf" xMin="129" yMin="-5" xMax="173" yMax="39">
      <component glyphName="uni002E" x="67" y="0" flags="0x4"/>
    </TTGlyph>
    <TTGlyph name="uni002F" xMin="35" yMin="-70" xMax="313" yMax="730">
      <contour>
        <pt x="296" y="730" on="1"/>
        <pt x="313" y="730" on="1"/>
        <pt x="52" y="-70" on="1"/>
        <pt x="35" y="-70" on="1"/>
      </contour>
    </TTGlyph>
    <TTGlyph name="uni0030" xMin="60" yMin="-10" xMax="530" yMax="670">
      <contour>
        <pt x="530" y="330" on="1"/>
        <pt x="530" y="166" on="0"/>
        <pt x="408" y="-10" on="0"/>
        <pt x="295" y="-10" on="1"/>
        <pt x="182" y="-10" on="0"/>
        <pt x="60" y="166" on="0"/>
        <pt x="60" y="330" on="1"/>
        <pt x="60" y="494" on="0"/>
        <pt x="182" y="670" on="0"/>
        <pt x="295" y="670" on="1"/>
        <pt x="408" y="670" on="0"/>
        <pt x="530" y="494" on="0"/>
      </contour>
      <contour>
        <pt x="76" y="330" on="1"/>
        <pt x="76" y="172" on="0"/>
        <pt x="189" y="4" on="0"/>
        <pt x="295" y="4" on="1"/>
        <pt x="401" y="4" on="0"/>
        <pt x="514" y="172" on="0"/>
        <pt x="514" y="330" on="1"/>
        <pt x="514" y="488" on="0"/>
        <pt x="401" y="656" on="0"/>
        <pt x="295" y="656" on="1"/>
        <pt x="189" y="656" on="0"/>
        <pt x="76" y="488" on="0"/>
      </contour>
    </TTGlyph>
    <TTGlyph name="uni0030.dnom" xMin="38" yMin="-10" xMax="320" yMax="398">
      <component glyphName="uni2070" x="0" y="-337" flags="0x4"/>
    </TTGlyph>
    <TTGlyph name="uni0030.numr" xMin="38" yMin="262" xMax="320" yMax="670">
      <component glyphName="uni2070" x="0" y="-65" flags="0x4"/>
    </TTGlyph>
    <TTGlyph name="uni0030.osf" xMin="55" yMin="-10" xMax="515" yMax="570">
      <contour>
        <pt x="55" y="280" on="1"/>
        <pt x="55" y="420" on="0"/>
        <pt x="174" y="570" on="0"/>
        <pt x="285" y="570" on="1"/>
        <pt x="396" y="570" on="0"/>
        <pt x="515" y="420" on="0"/>
        <pt x="515" y="280" on="1"/>
        <pt x="515" y="140" on="0"/>
        <pt x="396" y="-10" on="0"/>
        <pt x="285" y="-10" on="1"/>
        <pt x="174" y="-10" on="0"/>
        <pt x="55" y="140" on="0"/>
      </contour>
      <contour>
        <pt x="499" y="280" on="1"/>
        <pt x="499" y="414" on="0"/>
        <pt x="389" y="556" on="0"/>
        <pt x="285" y="556" on="1"/>
        <pt x="182" y="556" on="0"/>
        <pt x="71" y="414" on="0"/>
        <pt x="71" y="280" on="1"/>
        <pt x="71" y="146" on="0"/>
        <pt x="182" y="4" on="0"/>
        <pt x="285" y="4" on="1"/>
        <pt x="389" y="4" on="0"/>
        <pt x="499" y="146" on="0"/>
      </contour>
    </TTGlyph>
    <TTGlyph name="uni0030.osf.zero" xMin="55" yMin="-10" xMax="515" yMax="570">
      <contour>
        <pt x="416" y="523" on="1"/>
        <pt x="167" y="27" on="1"/>
        <pt x="154" y="37" on="1"/>
        <pt x="402" y="533" on="1"/>
      </contour>
      <contour>
        <pt x="55" y="280" on="1"/>
        <pt x="55" y="420" on="0"/>
        <pt x="174" y="570" on="0"/>
        <pt x="285" y="570" on="1"/>
        <pt x="396" y="570" on="0"/>
        <pt x="515" y="420" on="0"/>
        <pt x="515" y="280" on="1"/>
        <pt x="515" y="140" on="0"/>
        <pt x="396" y="-10" on="0"/>
        <pt x="285" y="-10" on="1"/>
        <pt x="174" y="-10" on="0"/>
        <pt x="55" y="140" on="0"/>
      </contour>
      <contour>
        <pt x="499" y="280" on="1"/>
        <pt x="499" y="414" on="0"/>
        <pt x="389" y="556" on="0"/>
        <pt x="285" y="556" on="1"/>
        <pt x="182" y="556" on="0"/>
        <pt x="71" y="414" on="0"/>
        <pt x="71" y="280" on="1"/>
        <pt x="71" y="146" on="0"/>
        <pt x="182" y="4" on="0"/>
        <pt x="285" y="4" on="1"/>
        <pt x="389" y="4" on="0"/>
        <pt x="499" y="146" on="0"/>
      </contour>
    </TTGlyph>
    <TTGlyph name="uni0030.sc" xMin="55" yMin="-10" xMax="499" yMax="570">
      <contour>
        <pt x="55" y="280" on="1"/>
        <pt x="55" y="420" on="0"/>
        <pt x="170" y="570" on="0"/>
        <pt x="277" y="570" on="1"/>
        <pt x="384" y="570" on="0"/>
        <pt x="499" y="420" on="0"/>
        <pt x="499" y="280" on="1"/>
        <pt x="499" y="140" on="0"/>
        <pt x="384" y="-10" on="0"/>
        <pt x="277" y="-10" on="1"/>
        <pt x="170" y="-10" on="0"/>
        <pt x="55" y="140" on="0"/>
      </contour>
      <contour>
        <pt x="483" y="280" on="1"/>
        <pt x="483" y="414" on="0"/>
        <pt x="377" y="556" on="0"/>
        <pt x="277" y="556" on="1"/>
        <pt x="177" y="556" on="0"/>
        <pt x="71" y="414" on="0"/>
        <pt x="71" y="280" on="1"/>
        <pt x="71" y="146" on="0"/>
        <pt x="177" y="4" on="0"/>
        <pt x="277" y="4" on="1"/>
        <pt x="377" y="4" on="0"/>
        <pt x="483" y="146" on="0"/>
      </contour>
    </TTGlyph>
    <TTGlyph name="uni0030.tf" xMin="67" yMin="-10" xMax="537" yMax="670">
      <contour>
        <pt x="537" y="330" on="1"/>
        <pt x="537" y="166" on="0"/>
        <pt x="415" y="-10" on="0"/>
        <pt x="302" y="-10" on="1"/>
        <pt x="189" y="-10" on="0"/>
        <pt x="67" y="166" on="0"/>
        <pt x="67" y="330" on="1"/>
        <pt x="67" y="494" on="0"/>
        <pt x="189" y="670" on="0"/>
        <pt x="302" y="670" on="1"/>
        <pt x="415" y="670" on="0"/>
        <pt x="537" y="494" on="0"/>
      </contour>
      <contour>
        <pt x="83" y="330" on="1"/>
        <pt x="83" y="172" on="0"/>
        <pt x="196" y="4" on="0"/>
        <pt x="302" y="4" on="1"/>
        <pt x="408" y="4" on="0"/>
        <pt x="521" y="172" on="0"/>
        <pt x="521" y="330" on="1"/>
        <pt x="521" y="488" on="0"/>
        <pt x="408" y="656" on="0"/>
        <pt x="302" y="656" on="1"/>
        <pt x="196" y="656" on="0"/>
        <pt x="83" y="488" on="0"/>
      </contour>
    </TTGlyph>
    <TTGlyph name="uni0030.tf.zero" xMin="67" yMin="-10" xMax="537" yMax="670">
      <contour>
        <pt x="428" y="619" on="1"/>
        <pt x="190" y="32" on="1"/>
        <pt x="177" y="42" on="1"/>
        <pt x="414" y="629" on="1"/>
      </contour>
      <contour>
        <pt x="537" y="330" on="1"/>
        <pt x="537" y="166" on="0"/>
        <pt x="415" y="-10" on="0"/>
        <pt x="302" y="-10" on="1"/>
        <pt x="189" y="-10" on="0"/>
        <pt x="67" y="166" on="0"/>
        <pt x="67" y="330" on="1"/>
        <pt x="67" y="494" on="0"/>
        <pt x="189" y="670" on="0"/>
        <pt x="302" y="670" on="1"/>
        <pt x="415" y="670" on="0"/>
        <pt x="537" y="494" on="0"/>
      </contour>
      <contour>
        <pt x="83" y="330" on="1"/>
        <pt x="83" y="172" on="0"/>
        <pt x="196" y="4" on="0"/>
        <pt x="302" y="4" on="1"/>
        <pt x="408" y="4" on="0"/>
        <pt x="521" y="172" on="0"/>
        <pt x="521" y="330" on="1"/>
        <pt x="521" y="488" on="0"/>
        <pt x="408" y="656" on="0"/>
        <pt x="302" y="656" on="1"/>
        <pt x="196" y="656" on="0"/>
        <pt x="83" y="488" on="0"/>
      </contour>
    </TTGlyph>
    <TTGlyph name="uni0030.tosf" xMin="72" yMin="-10" xMax="532" yMax="570">
      <contour>
        <pt x="72" y="280" on="1"/>
        <pt x="72" y="420" on="0"/>
        <pt x="191" y="570" on="0"/>
        <pt x="302" y="570" on="1"/>
        <pt x="413" y="570" on="0"/>
        <pt x="532" y="420" on="0"/>
        <pt x="532" y="280" on="1"/>
        <pt x="532" y="140" on="0"/>
        <pt x="413" y="-10" on="0"/>
        <pt x="302" y="-10" on="1"/>
        <pt x="191" y="-10" on="0"/>
        <pt x="72" y="140" on="0"/>
      </contour>
      <contour>
        <pt x="516" y="280" on="1"/>
        <pt x="516" y="414" on="0"/>
        <pt x="406" y="556" on="0"/>
        <pt x="302" y="556" on="1"/>
        <pt x="199" y="556" on="0"/>
        <pt x="88" y="414" on="0"/>
        <pt x="88" y="280" on="1"/>
        <pt x="88" y="146" on="0"/>
        <pt x="199" y="4" on="0"/>
        <pt x="302" y="4" on="1"/>
        <pt x="406" y="4" on="0"/>
        <pt x="516" y="146" on="0"/>
      </contour>
    </TTGlyph>
    <TTGlyph name="uni0030.tosf.zero" xMin="72" yMin="-10" xMax="532" yMax="570">
      <contour>
        <pt x="446" y="523" on="1"/>
        <pt x="197" y="27" on="1"/>
        <pt x="184" y="37" on="1"/>
        <pt x="432" y="533" on="1"/>
      </contour>
      <contour>
        <pt x="72" y="280" on="1"/>
        <pt x="72" y="420" on="0"/>
        <pt x="191" y="570" on="0"/>
        <pt x="302" y="570" on="1"/>
        <pt x="413" y="570" on="0"/>
        <pt x="532" y="420" on="0"/>
        <pt x="532" y="280" on="1"/>
        <pt x="532" y="140" on="0"/>
        <pt x="413" y="-10" on="0"/>
        <pt x="302" y="-10" on="1"/>
        <pt x="191" y="-10" on="0"/>
        <pt x="72" y="140" on="0"/>
      </contour>
      <contour>
        <pt x="516" y="280" on="1"/>
        <pt x="516" y="414" on="0"/>
        <pt x="406" y="556" on="0"/>
        <pt x="302" y="556" on="1"/>
        <pt x="199" y="556" on="0"/>
        <pt x="88" y="414" on="0"/>
        <pt x="88" y="280" on="1"/>
        <pt x="88" y="146" on="0"/>
        <pt x="199" y="4" on="0"/>
        <pt x="302" y="4" on="1"/>
        <pt x="406" y="4" on="0"/>
        <pt x="516" y="146" on="0"/>
      </contour>
    </TTGlyph>
    <TTGlyph name="uni0030.zero" xMin="60" yMin="-10" xMax="530" yMax="670">
      <contour>
        <pt x="427" y="618" on="1"/>
        <pt x="177" y="31" on="1"/>
        <pt x="164" y="41" on="1"/>
        <pt x="413" y="628" on="1"/>
      </contour>
      <contour>
        <pt x="530" y="330" on="1"/>
        <pt x="530" y="166" on="0"/>
        <pt x="408" y="-10" on="0"/>
        <pt x="295" y="-10" on="1"/>
        <pt x="182" y="-10" on="0"/>
        <pt x="60" y="166" on="0"/>
        <pt x="60" y="330" on="1"/>
        <pt x="60" y="494" on="0"/>
        <pt x="182" y="670" on="0"/>
        <pt x="295" y="670" on="1"/>
        <pt x="408" y="670" on="0"/>
        <pt x="530" y="494" on="0"/>
      </contour>
      <contour>
        <pt x="76" y="330" on="1"/>
        <pt x="76" y="172" on="0"/>
        <pt x="189" y="4" on="0"/>
        <pt x="295" y="4" on="1"/>
        <pt x="401" y="4" on="0"/>
        <pt x="514" y="172" on="0"/>
        <pt x="514" y="330" on="1"/>
        <pt x="514" y="488" on="0"/>
        <pt x="401" y="656" on="0"/>
        <pt x="295" y="656" on="1"/>
        <pt x="189" y="656" on="0"/>
        <pt x="76" y="488" on="0"/>
      </contour>
    </TTGlyph>
    <TTGlyph name="uni0031" xMin="28" yMin="0" xMax="224" yMax="660">
      <contour>
        <pt x="224" y="0" on="1"/>
        <pt x="208" y="0" on="1"/>
        <pt x="208" y="630" on="1"/>
        <pt x="178" y="581" on="0"/>
        <pt x="83" y="516" on="0"/>
        <pt x="33" y="500" on="1"/>
        <pt x="28" y="513" on="1"/>
        <pt x="81" y="533" on="0"/>
        <pt x="183" y="607" on="0"/>
        <pt x="208" y="660" on="1"/>
        <pt x="224" y="660" on="1"/>
      </contour>
    </TTGlyph>
    <TTGlyph name="uni0031.dnom" xMin="11" yMin="-4" xMax="136" yMax="393">
      <component glyphName="uni00B9" x="0" y="-337" flags="0x4"/>
    </TTGlyph>
    <TTGlyph name="uni0031.numr" xMin="11" yMin="268" xMax="136" yMax="665">
      <component glyphName="uni00B9" x="0" y="-65" flags="0x4"/>
    </TTGlyph>
    <TTGlyph name="uni0031.osf" xMin="28" yMin="0" xMax="224" yMax="560">
      <contour>
        <pt x="224" y="0" on="1"/>
        <pt x="208" y="0" on="1"/>
        <pt x="208" y="530" on="1"/>
        <pt x="179" y="484" on="0"/>
        <pt x="84" y="419" on="0"/>
        <pt x="35" y="401" on="1"/>
        <pt x="28" y="413" on="1"/>
        <pt x="81" y="433" on="0"/>
        <pt x="183" y="507" on="0"/>
        <pt x="208" y="560" on="1"/>
        <pt x="224" y="560" on="1"/>
      </contour>
    </TTGlyph>
    <TTGlyph name="uni0031.sc" xMin="28" yMin="0" xMax="224" yMax="560">
      <contour>
        <pt x="224" y="0" on="1"/>
        <pt x="208" y="0" on="1"/>
        <pt x="208" y="530" on="1"/>
        <pt x="179" y="484" on="0"/>
        <pt x="84" y="419" on="0"/>
        <pt x="35" y="401" on="1"/>
        <pt x="28" y="413" on="1"/>
        <pt x="81" y="433" on="0"/>
        <pt x="183" y="507" on="0"/>
        <pt x="208" y="560" on="1"/>
        <pt x="224" y="560" on="1"/>
      </contour>
    </TTGlyph>
    <TTGlyph name="uni0031.tf" xMin="102" yMin="0" xMax="537" yMax="660">
      <contour>
        <pt x="537" y="0" on="1"/>
        <pt x="111" y="0" on="1"/>
        <pt x="111" y="14" on="1"/>
        <pt x="327" y="14" on="1"/>
        <pt x="327" y="633" on="1"/>
        <pt x="291" y="583" on="0"/>
        <pt x="157" y="503" on="0"/>
        <pt x="107" y="485" on="1"/>
        <pt x="102" y="500" on="1"/>
        <pt x="137" y="513" on="0"/>
        <pt x="228" y="560" on="0"/>
        <pt x="309" y="624" on="0"/>
        <pt x="327" y="660" on="1"/>
        <pt x="343" y="660" on="1"/>
        <pt x="343" y="14" on="1"/>
        <pt x="537" y="14" on="1"/>
      </contour>
    </TTGlyph>
    <TTGlyph name="uni0031.tosf" xMin="111" yMin="0" xMax="537" yMax="560">
      <contour>
        <pt x="537" y="0" on="1"/>
        <pt x="111" y="0" on="1"/>
        <pt x="111" y="14" on="1"/>
        <pt x="327" y="14" on="1"/>
        <pt x="327" y="533" on="1"/>
        <pt x="293" y="484" on="0"/>
        <pt x="176" y="411" on="0"/>
        <pt x="125" y="394" on="1"/>
        <pt x="119" y="407" on="1"/>
        <pt x="172" y="427" on="0"/>
        <pt x="299" y="508" on="0"/>
        <pt x="327" y="560" on="1"/>
        <pt x="343" y="560" on="1"/>
        <pt x="343" y="14" on="1"/>
        <pt x="537" y="14" on="1"/>
      </contour>
    </TTGlyph>
    <TTGlyph name="uni0032" xMin="47" yMin="0" xMax="492" yMax="670">
      <contour>
        <pt x="492" y="0" on="1"/>
        <pt x="54" y="0" on="1"/>
        <pt x="54" y="14" on="1"/>
        <pt x="231" y="162" on="0"/>
        <pt x="448" y="371" on="0"/>
        <pt x="448" y="475" on="1"/>
        <pt x="448" y="560" on="0"/>
        <pt x="347" y="656" on="0"/>
        <pt x="260" y="656" on="1"/>
        <pt x="172" y="656" on="0"/>
        <pt x="66" y="548" on="0"/>
        <pt x="62" y="458" on="1"/>
        <pt x="47" y="464" on="1"/>
        <pt x="52" y="558" on="0"/>
        <pt x="165" y="670" on="0"/>
        <pt x="260" y="670" on="1"/>
        <pt x="355" y="670" on="0"/>
        <pt x="463" y="567" on="0"/>
        <pt x="463" y="475" on="1"/>
        <pt x="463" y="366" on="0"/>
        <pt x="259" y="164" on="0"/>
        <pt x="81" y="15" on="1"/>
        <pt x="81" y="14" on="1"/>
        <pt x="492" y="14" on="1"/>
      </contour>
    </TTGlyph>
    <TTGlyph name="uni0032.dnom" xMin="30" yMin="-4" xMax="298" yMax="398">
      <component glyphName="uni00B2" x="0" y="-337" flags="0x4"/>
    </TTGlyph>
    <TTGlyph name="uni0032.numr" xMin="30" yMin="268" xMax="298" yMax="670">
      <component glyphName="uni00B2" x="0" y="-65" flags="0x4"/>
    </TTGlyph>
    <TTGlyph name="uni0032.osf" xMin="65" yMin="0" xMax="488" yMax="570">
      <contour>
        <pt x="488" y="0" on="1"/>
        <pt x="66" y="0" on="1"/>
        <pt x="66" y="14" on="1"/>
        <pt x="231" y="102" on="0"/>
        <pt x="444" y="277" on="0"/>
        <pt x="444" y="390" on="1"/>
        <pt x="444" y="466" on="0"/>
        <pt x="348" y="556" on="0"/>
        <pt x="266" y="556" on="1"/>
        <pt x="183" y="556" on="0"/>
        <pt x="79" y="448" on="0"/>
        <pt x="87" y="358" on="1"/>
        <pt x="72" y="364" on="1"/>
        <pt x="65" y="458" on="0"/>
        <pt x="176" y="570" on="0"/>
        <pt x="266" y="570" on="1"/>
        <pt x="355" y="570" on="0"/>
        <pt x="459" y="473" on="0"/>
        <pt x="459" y="390" on="1"/>
        <pt x="459" y="276" on="0"/>
        <pt x="272" y="111" on="0"/>
        <pt x="117" y="25" on="1"/>
        <pt x="110" y="21" on="0"/>
        <pt x="96" y="15" on="1"/>
        <pt x="96" y="14" on="1"/>
        <pt x="488" y="14" on="1"/>
      </contour>
    </TTGlyph>
    <TTGlyph name="uni0032.sc" xMin="69" yMin="0" xMax="481" yMax="568">
      <contour>
        <pt x="481" y="0" on="1"/>
        <pt x="81" y="0" on="1"/>
        <pt x="81" y="14" on="1"/>
        <pt x="230" y="102" on="0"/>
        <pt x="436" y="277" on="0"/>
        <pt x="436" y="390" on="1"/>
        <pt x="436" y="465" on="0"/>
        <pt x="344" y="554" on="0"/>
        <pt x="264" y="554" on="1"/>
        <pt x="184" y="554" on="0"/>
        <pt x="82" y="453" on="0"/>
        <pt x="90" y="379" on="1"/>
        <pt x="76" y="384" on="1"/>
        <pt x="69" y="462" on="0"/>
        <pt x="177" y="568" on="0"/>
        <pt x="264" y="568" on="1"/>
        <pt x="351" y="568" on="0"/>
        <pt x="452" y="472" on="0"/>
        <pt x="452" y="390" on="1"/>
        <pt x="452" y="273" on="0"/>
        <pt x="258" y="103" on="0"/>
        <pt x="111" y="15" on="1"/>
        <pt x="111" y="14" on="1"/>
        <pt x="481" y="14" on="1"/>
      </contour>
    </TTGlyph>
    <TTGlyph name="uni0032.tf" xMin="95" yMin="0" xMax="540" yMax="670">
      <component glyphName="uni0032" x="48" y="0" flags="0x4"/>
    </TTGlyph>
    <TTGlyph name="uni0032.tosf" xMin="98" yMin="0" xMax="521" yMax="570">
      <component glyphName="uni0032.osf" x="33" y="0" flags="0x4"/>
    </TTGlyph>
    <TTGlyph name="uni0033" xMin="43" yMin="-10" xMax="462" yMax="670">
      <contour>
        <pt x="64" y="535" on="1"/>
        <pt x="86" y="598" on="0"/>
        <pt x="188" y="670" on="0"/>
        <pt x="256" y="670" on="1"/>
        <pt x="345" y="670" on="0"/>
        <pt x="445" y="579" on="0"/>
        <pt x="445" y="498" on="1"/>
        <pt x="445" y="437" on="0"/>
        <pt x="379" y="344" on="0"/>
        <pt x="317" y="333" on="1"/>
        <pt x="317" y="332" on="1"/>
        <pt x="381" y="328" on="0"/>
        <pt x="462" y="238" on="0"/>
        <pt x="462" y="170" on="1"/>
        <pt x="462" y="88" on="0"/>
        <pt x="344" y="-10" on="0"/>
        <pt x="261" y="-10" on="1"/>
        <pt x="170" y="-10" on="0"/>
        <pt x="59" y="73" on="0"/>
        <pt x="43" y="141" on="1"/>
        <pt x="57" y="150" on="1"/>
        <pt x="71" y="84" on="0"/>
        <pt x="173" y="4" on="0"/>
        <pt x="261" y="4" on="1"/>
        <pt x="338" y="4" on="0"/>
        <pt x="446" y="93" on="0"/>
        <pt x="446" y="171" on="1"/>
        <pt x="446" y="237" on="0"/>
        <pt x="360" y="326" on="0"/>
        <pt x="277" y="326" on="1"/>
        <pt x="227" y="326" on="1"/>
        <pt x="227" y="340" on="1"/>
        <pt x="277" y="340" on="1"/>
        <pt x="352" y="340" on="0"/>
        <pt x="429" y="434" on="0"/>
        <pt x="429" y="498" on="1"/>
        <pt x="429" y="572" on="0"/>
        <pt x="337" y="656" on="0"/>
        <pt x="256" y="656" on="1"/>
        <pt x="192" y="656" on="0"/>
        <pt x="98" y="587" on="0"/>
        <pt x="80" y="526" on="1"/>
      </contour>
    </TTGlyph>
    <TTGlyph name="uni0033.dnom" xMin="14" yMin="-10" xMax="267" yMax="398">
      <component glyphName="uni00B3" x="0" y="-337" flags="0x4"/>
    </TTGlyph>
    <TTGlyph name="uni0033.numr" xMin="14" yMin="262" xMax="267" yMax="670">
      <component glyphName="uni00B3" x="0" y="-65" flags="0x4"/>
    </TTGlyph>
    <TTGlyph name="uni0033.osf" xMin="41" yMin="-110" xMax="460" yMax="570">
      <contour>
        <pt x="62" y="435" on="1"/>
        <pt x="84" y="498" on="0"/>
        <pt x="186" y="570" on="0"/>
        <pt x="254" y="570" on="1"/>
        <pt x="343" y="570" on="0"/>
        <pt x="443" y="479" on="0"/>
        <pt x="443" y="398" on="1"/>
        <pt x="443" y="337" on="0"/>
        <pt x="377" y="244" on="0"/>
        <pt x="315" y="233" on="1"/>
        <pt x="315" y="232" on="1"/>
        <pt x="379" y="228" on="0"/>
        <pt x="460" y="138" on="0"/>
        <pt x="460" y="70" on="1"/>
        <pt x="460" y="-13" on="0"/>
        <pt x="342" y="-110" on="0"/>
        <pt x="259" y="-110" on="1"/>
        <pt x="168" y="-110" on="0"/>
        <pt x="57" y="-27" on="0"/>
        <pt x="41" y="41" on="1"/>
        <pt x="55" y="50" on="1"/>
        <pt x="69" y="-16" on="0"/>
        <pt x="171" y="-96" on="0"/>
        <pt x="259" y="-96" on="1"/>
        <pt x="336" y="-96" on="0"/>
        <pt x="444" y="-7" on="0"/>
        <pt x="444" y="71" on="1"/>
        <pt x="444" y="137" on="0"/>
        <pt x="358" y="226" on="0"/>
        <pt x="275" y="226" on="1"/>
        <pt x="225" y="226" on="1"/>
        <pt x="225" y="240" on="1"/>
        <pt x="275" y="240" on="1"/>
        <pt x="350" y="240" on="0"/>
        <pt x="427" y="334" on="0"/>
        <pt x="427" y="398" on="1"/>
        <pt x="427" y="472" on="0"/>
        <pt x="335" y="556" on="0"/>
        <pt x="254" y="556" on="1"/>
        <pt x="190" y="556" on="0"/>
        <pt x="96" y="487" on="0"/>
        <pt x="78" y="426" on="1"/>
      </contour>
    </TTGlyph>
    <TTGlyph name="uni0033.sc" xMin="41" yMin="-8" xMax="411" yMax="568">
      <contour>
        <pt x="233" y="-8" on="1"/>
        <pt x="153" y="-8" on="0"/>
        <pt x="55" y="62" on="0"/>
        <pt x="41" y="120" on="1"/>
        <pt x="55" y="128" on="1"/>
        <pt x="67" y="73" on="0"/>
        <pt x="157" y="5" on="0"/>
        <pt x="233" y="5" on="1"/>
        <pt x="301" y="5" on="0"/>
        <pt x="395" y="81" on="0"/>
        <pt x="395" y="145" on="1"/>
        <pt x="395" y="201" on="0"/>
        <pt x="320" y="276" on="0"/>
        <pt x="247" y="276" on="1"/>
        <pt x="203" y="276" on="1"/>
        <pt x="203" y="289" on="1"/>
        <pt x="247" y="289" on="1"/>
        <pt x="313" y="289" on="0"/>
        <pt x="380" y="368" on="0"/>
        <pt x="380" y="422" on="1"/>
        <pt x="380" y="484" on="0"/>
        <pt x="300" y="554" on="0"/>
        <pt x="229" y="554" on="1"/>
        <pt x="173" y="554" on="0"/>
        <pt x="90" y="497" on="0"/>
        <pt x="74" y="446" on="1"/>
        <pt x="59" y="453" on="1"/>
        <pt x="101" y="568" on="0"/>
        <pt x="229" y="568" on="1"/>
        <pt x="307" y="568" on="0"/>
        <pt x="396" y="491" on="0"/>
        <pt x="396" y="422" on="1"/>
        <pt x="396" y="370" on="0"/>
        <pt x="338" y="291" on="0"/>
        <pt x="283" y="282" on="1"/>
        <pt x="339" y="278" on="0"/>
        <pt x="411" y="202" on="0"/>
        <pt x="411" y="145" on="1"/>
        <pt x="411" y="75" on="0"/>
        <pt x="307" y="-8" on="0"/>
      </contour>
    </TTGlyph>
    <TTGlyph name="uni0033.tf" xMin="81" yMin="-10" xMax="504" yMax="670">
      <contour>
        <pt x="106" y="535" on="1"/>
        <pt x="128" y="598" on="0"/>
        <pt x="230" y="670" on="0"/>
        <pt x="298" y="670" on="1"/>
        <pt x="387" y="670" on="0"/>
        <pt x="487" y="579" on="0"/>
        <pt x="487" y="498" on="1"/>
        <pt x="487" y="437" on="0"/>
        <pt x="421" y="344" on="0"/>
        <pt x="359" y="333" on="1"/>
        <pt x="359" y="332" on="1"/>
        <pt x="423" y="328" on="0"/>
        <pt x="504" y="232" on="0"/>
        <pt x="504" y="172" on="1"/>
        <pt x="504" y="87" on="0"/>
        <pt x="386" y="-10" on="0"/>
        <pt x="303" y="-10" on="1"/>
        <pt x="212" y="-10" on="0"/>
        <pt x="97" y="73" on="0"/>
        <pt x="81" y="141" on="1"/>
        <pt x="95" y="150" on="1"/>
        <pt x="109" y="84" on="0"/>
        <pt x="215" y="4" on="0"/>
        <pt x="303" y="4" on="1"/>
        <pt x="380" y="4" on="0"/>
        <pt x="488" y="93" on="0"/>
        <pt x="488" y="174" on="1"/>
        <pt x="488" y="233" on="0"/>
        <pt x="402" y="326" on="0"/>
        <pt x="319" y="326" on="1"/>
        <pt x="269" y="326" on="1"/>
        <pt x="269" y="340" on="1"/>
        <pt x="319" y="340" on="1"/>
        <pt x="394" y="340" on="0"/>
        <pt x="471" y="434" on="0"/>
        <pt x="471" y="498" on="1"/>
        <pt x="471" y="572" on="0"/>
        <pt x="379" y="656" on="0"/>
        <pt x="298" y="656" on="1"/>
        <pt x="234" y="656" on="0"/>
        <pt x="140" y="587" on="0"/>
        <pt x="122" y="526" on="1"/>
      </contour>
    </TTGlyph>
    <TTGlyph name="uni0033.tosf" xMin="90" yMin="-110" xMax="509" yMax="570">
      <component glyphName="uni0033.osf" x="49" y="0" flags="0x4"/>
    </TTGlyph>
    <TTGlyph name="uni0034" xMin="38" yMin="0" xMax="527" yMax="660">
      <contour>
        <pt x="388" y="219" on="1"/>
        <pt x="527" y="219" on="1"/>
        <pt x="527" y="205" on="1"/>
        <pt x="388" y="205" on="1"/>
        <pt x="388" y="0" on="1"/>
        <pt x="372" y="0" on="1"/>
        <pt x="372" y="205" on="1"/>
        <pt x="38" y="205" on="1"/>
        <pt x="38" y="219" on="1"/>
        <pt x="366" y="660" on="1"/>
        <pt x="388" y="660" on="1"/>
      </contour>
      <contour>
        <pt x="56" y="219" on="1"/>
        <pt x="372" y="219" on="1"/>
        <pt x="372" y="643" on="1"/>
        <pt x="371" y="643" on="1"/>
        <pt x="361" y="628" on="0"/>
        <pt x="338" y="598" on="0"/>
        <pt x="328" y="584" on="1"/>
      </contour>
    </TTGlyph>
    <TTGlyph name="uni0034.dnom" xMin="15" yMin="-4" xMax="310" yMax="393">
      <component glyphName="uni2074" x="0" y="-337" flags="0x4"/>
    </TTGlyph>
    <TTGlyph name="uni0034.numr" xMin="15" yMin="268" xMax="310" yMax="665">
      <component glyphName="uni2074" x="0" y="-65" flags="0x4"/>
    </TTGlyph>
    <TTGlyph name="uni0034.osf" xMin="38" yMin="-100" xMax="527" yMax="560">
      <component glyphName="uni0034" x="0" y="-100" flags="0x4"/>
    </TTGlyph>
    <TTGlyph name="uni0034.sc" xMin="36" yMin="0" xMax="467" yMax="560">
      <contour>
        <pt x="346" y="0" on="1"/>
        <pt x="330" y="0" on="1"/>
        <pt x="330" y="173" on="1"/>
        <pt x="36" y="173" on="1"/>
        <pt x="36" y="186" on="1"/>
        <pt x="324" y="560" on="1"/>
        <pt x="346" y="560" on="1"/>
        <pt x="346" y="186" on="1"/>
        <pt x="467" y="186" on="1"/>
        <pt x="467" y="173" on="1"/>
        <pt x="346" y="173" on="1"/>
      </contour>
      <contour>
        <pt x="307" y="513" on="1"/>
        <pt x="54" y="186" on="1"/>
        <pt x="330" y="186" on="1"/>
        <pt x="330" y="543" on="1"/>
        <pt x="329" y="543" on="1"/>
        <pt x="317" y="526" on="0"/>
      </contour>
    </TTGlyph>
    <TTGlyph name="uni0034.tf" xMin="57" yMin="0" xMax="554" yMax="660">
      <contour>
        <pt x="403" y="0" on="1"/>
        <pt x="387" y="0" on="1"/>
        <pt x="387" y="205" on="1"/>
        <pt x="57" y="205" on="1"/>
        <pt x="57" y="219" on="1"/>
        <pt x="379" y="660" on="1"/>
        <pt x="403" y="660" on="1"/>
        <pt x="403" y="219" on="1"/>
        <pt x="554" y="219" on="1"/>
        <pt x="554" y="205" on="1"/>
        <pt x="403" y="205" on="1"/>
      </contour>
      <contour>
        <pt x="75" y="219" on="1"/>
        <pt x="387" y="219" on="1"/>
        <pt x="387" y="645" on="1"/>
        <pt x="386" y="645" on="1"/>
        <pt x="373" y="626" on="0"/>
        <pt x="346" y="589" on="0"/>
        <pt x="332" y="571" on="1"/>
      </contour>
    </TTGlyph>
    <TTGlyph name="uni0034.tosf" xMin="57" yMin="-100" xMax="554" yMax="560">
      <contour>
        <pt x="403" y="-100" on="1"/>
        <pt x="387" y="-100" on="1"/>
        <pt x="387" y="105" on="1"/>
        <pt x="57" y="105" on="1"/>
        <pt x="57" y="119" on="1"/>
        <pt x="379" y="560" on="1"/>
        <pt x="403" y="560" on="1"/>
        <pt x="403" y="119" on="1"/>
        <pt x="554" y="119" on="1"/>
        <pt x="554" y="105" on="1"/>
        <pt x="403" y="105" on="1"/>
      </contour>
      <contour>
        <pt x="75" y="119" on="1"/>
        <pt x="387" y="119" on="1"/>
        <pt x="387" y="545" on="1"/>
        <pt x="386" y="545" on="1"/>
        <pt x="373" y="526" on="0"/>
        <pt x="346" y="489" on="0"/>
        <pt x="332" y="471" on="1"/>
      </contour>
    </TTGlyph>
    <TTGlyph name="uni0035" xMin="50" yMin="-10" xMax="486" yMax="660">
      <contour>
        <pt x="88" y="318" on="1"/>
        <pt x="111" y="350" on="0"/>
        <pt x="202" y="400" on="0"/>
        <pt x="280" y="400" on="1"/>
        <pt x="371" y="400" on="0"/>
        <pt x="486" y="286" on="0"/>
        <pt x="486" y="196" on="1"/>
        <pt x="486" y="105" on="0"/>
        <pt x="368" y="-10" on="0"/>
        <pt x="275" y="-10" on="1"/>
        <pt x="190" y="-10" on="0"/>
        <pt x="67" y="61" on="0"/>
        <pt x="50" y="149" on="1"/>
        <pt x="64" y="155" on="1"/>
        <pt x="77" y="76" on="0"/>
        <pt x="189" y="4" on="0"/>
        <pt x="275" y="4" on="1"/>
        <pt x="361" y="4" on="0"/>
        <pt x="470" y="111" on="0"/>
        <pt x="470" y="196" on="1"/>
        <pt x="470" y="280" on="0"/>
        <pt x="364" y="386" on="0"/>
        <pt x="280" y="386" on="1"/>
        <pt x="199" y="386" on="0"/>
        <pt x="109" y="332" on="0"/>
        <pt x="86" y="301" on="1"/>
        <pt x="72" y="301" on="1"/>
        <pt x="102" y="660" on="1"/>
        <pt x="461" y="660" on="1"/>
        <pt x="461" y="646" on="1"/>
        <pt x="115" y="646" on="1"/>
        <pt x="89" y="337" on="1"/>
        <pt x="87" y="318" on="1"/>
      </contour>
    </TTGlyph>
    <TTGlyph name="uni0035.dnom" xMin="36" yMin="-9" xMax="296" yMax="393">
      <component glyphName="uni2075" x="0" y="-337" flags="0x4"/>
    </TTGlyph>
    <TTGlyph name="uni0035.numr" xMin="36" yMin="263" xMax="296" yMax="665">
      <component glyphName="uni2075" x="0" y="-65" flags="0x4"/>
    </TTGlyph>
    <TTGlyph name="uni0035.osf" xMin="50" yMin="-110" xMax="486" yMax="560">
      <contour>
        <pt x="88" y="218" on="1"/>
        <pt x="111" y="250" on="0"/>
        <pt x="202" y="300" on="0"/>
        <pt x="280" y="300" on="1"/>
        <pt x="371" y="300" on="0"/>
        <pt x="486" y="186" on="0"/>
        <pt x="486" y="96" on="1"/>
        <pt x="486" y="5" on="0"/>
        <pt x="368" y="-110" on="0"/>
        <pt x="275" y="-110" on="1"/>
        <pt x="190" y="-110" on="0"/>
        <pt x="67" y="-40" on="0"/>
        <pt x="50" y="49" on="1"/>
        <pt x="64" y="55" on="1"/>
        <pt x="77" y="-24" on="0"/>
        <pt x="189" y="-96" on="0"/>
        <pt x="275" y="-96" on="1"/>
        <pt x="361" y="-96" on="0"/>
        <pt x="470" y="11" on="0"/>
        <pt x="470" y="96" on="1"/>
        <pt x="470" y="180" on="0"/>
        <pt x="364" y="286" on="0"/>
        <pt x="280" y="286" on="1"/>
        <pt x="199" y="286" on="0"/>
        <pt x="109" y="232" on="0"/>
        <pt x="86" y="201" on="1"/>
        <pt x="72" y="201" on="1"/>
        <pt x="102" y="560" on="1"/>
        <pt x="461" y="560" on="1"/>
        <pt x="461" y="546" on="1"/>
        <pt x="115" y="546" on="1"/>
        <pt x="89" y="237" on="1"/>
        <pt x="87" y="218" on="1"/>
      </contour>
    </TTGlyph>
    <TTGlyph name="uni0035.sc" xMin="47" yMin="-8" xMax="431" yMax="560">
      <contour>
        <pt x="82" y="271" on="1"/>
        <pt x="102" y="298" on="0"/>
        <pt x="182" y="340" on="0"/>
        <pt x="250" y="340" on="1"/>
        <pt x="330" y="340" on="0"/>
        <pt x="431" y="244" on="0"/>
        <pt x="431" y="167" on="1"/>
        <pt x="431" y="89" on="0"/>
        <pt x="328" y="-8" on="0"/>
        <pt x="245" y="-8" on="1"/>
        <pt x="170" y="-8" on="0"/>
        <pt x="63" y="51" on="0"/>
        <pt x="47" y="126" on="1"/>
        <pt x="61" y="132" on="1"/>
        <pt x="72" y="66" on="0"/>
        <pt x="170" y="6" on="0"/>
        <pt x="245" y="6" on="1"/>
        <pt x="321" y="6" on="0"/>
        <pt x="415" y="96" on="0"/>
        <pt x="415" y="167" on="1"/>
        <pt x="415" y="237" on="0"/>
        <pt x="324" y="326" on="0"/>
        <pt x="250" y="326" on="1"/>
        <pt x="179" y="326" on="0"/>
        <pt x="100" y="281" on="0"/>
        <pt x="80" y="255" on="1"/>
        <pt x="66" y="255" on="1"/>
        <pt x="93" y="560" on="1"/>
        <pt x="409" y="560" on="1"/>
        <pt x="409" y="546" on="1"/>
        <pt x="106" y="546" on="1"/>
        <pt x="83" y="287" on="1"/>
        <pt x="81" y="271" on="1"/>
      </contour>
    </TTGlyph>
    <TTGlyph name="uni0035.tf" xMin="92" yMin="-10" xMax="528" yMax="660">
      <component glyphName="uni0035" x="42" y="0" flags="0x4"/>
    </TTGlyph>
    <TTGlyph name="uni0035.tosf" xMin="84" yMin="-110" xMax="520" yMax="560">
      <component glyphName="uni0035.osf" x="34" y="0" flags="0x4"/>
    </TTGlyph>
    <TTGlyph name="uni0036" xMin="55" yMin="-10" xMax="491" yMax="670">
      <contour>
        <pt x="55" y="330" on="1"/>
        <pt x="55" y="501" on="0"/>
        <pt x="197" y="670" on="0"/>
        <pt x="303" y="670" on="1"/>
        <pt x="376" y="670" on="0"/>
        <pt x="459" y="601" on="0"/>
        <pt x="476" y="550" on="1"/>
        <pt x="461" y="543" on="1"/>
        <pt x="447" y="591" on="0"/>
        <pt x="369" y="656" on="0"/>
        <pt x="303" y="656" on="1"/>
        <pt x="216" y="656" on="0"/>
        <pt x="114" y="557" on="0"/>
        <pt x="70" y="401" on="0"/>
        <pt x="70" y="317" on="1"/>
        <pt x="70" y="259" on="0"/>
        <pt x="80" y="194" on="1"/>
        <pt x="82" y="194" on="1"/>
        <pt x="78" y="287" on="0"/>
        <pt x="208" y="395" on="0"/>
        <pt x="287" y="395" on="1"/>
        <pt x="384" y="395" on="0"/>
        <pt x="491" y="283" on="0"/>
        <pt x="491" y="192" on="1"/>
        <pt x="491" y="100" on="0"/>
        <pt x="378" y="-10" on="0"/>
        <pt x="283" y="-10" on="1"/>
        <pt x="55" y="-10" on="0"/>
      </contour>
      <contour>
        <pt x="475" y="194" on="1"/>
        <pt x="475" y="277" on="0"/>
        <pt x="373" y="381" on="0"/>
        <pt x="287" y="381" on="1"/>
        <pt x="200" y="381" on="0"/>
        <pt x="95" y="262" on="0"/>
        <pt x="95" y="194" on="1"/>
        <pt x="95" y="113" on="0"/>
        <pt x="199" y="4" on="0"/>
        <pt x="282" y="4" on="1"/>
        <pt x="371" y="4" on="0"/>
        <pt x="475" y="109" on="0"/>
      </contour>
    </TTGlyph>
    <TTGlyph name="uni0036.dnom" xMin="39" yMin="-10" xMax="304" yMax="398">
      <component glyphName="uni2076" x="0" y="-337" flags="0x4"/>
    </TTGlyph>
    <TTGlyph name="uni0036.numr" xMin="39" yMin="262" xMax="304" yMax="670">
      <component glyphName="uni2076" x="0" y="-65" flags="0x4"/>
    </TTGlyph>
    <TTGlyph name="uni0036.osf" xMin="55" yMin="-10" xMax="491" yMax="670">
      <contour>
        <pt x="55" y="330" on="1"/>
        <pt x="55" y="501" on="0"/>
        <pt x="197" y="670" on="0"/>
        <pt x="303" y="670" on="1"/>
        <pt x="376" y="670" on="0"/>
        <pt x="459" y="601" on="0"/>
        <pt x="476" y="550" on="1"/>
        <pt x="461" y="543" on="1"/>
        <pt x="447" y="591" on="0"/>
        <pt x="369" y="656" on="0"/>
        <pt x="303" y="656" on="1"/>
        <pt x="216" y="656" on="0"/>
        <pt x="114" y="557" on="0"/>
        <pt x="70" y="401" on="0"/>
        <pt x="70" y="317" on="1"/>
        <pt x="70" y="259" on="0"/>
        <pt x="80" y="194" on="1"/>
        <pt x="82" y="194" on="1"/>
        <pt x="78" y="287" on="0"/>
        <pt x="208" y="395" on="0"/>
        <pt x="287" y="395" on="1"/>
        <pt x="384" y="395" on="0"/>
        <pt x="491" y="283" on="0"/>
        <pt x="491" y="192" on="1"/>
        <pt x="491" y="100" on="0"/>
        <pt x="378" y="-10" on="0"/>
        <pt x="283" y="-10" on="1"/>
        <pt x="55" y="-10" on="0"/>
      </contour>
      <contour>
        <pt x="475" y="194" on="1"/>
        <pt x="475" y="277" on="0"/>
        <pt x="373" y="381" on="0"/>
        <pt x="287" y="381" on="1"/>
        <pt x="200" y="381" on="0"/>
        <pt x="95" y="262" on="0"/>
        <pt x="95" y="194" on="1"/>
        <pt x="95" y="113" on="0"/>
        <pt x="199" y="4" on="0"/>
        <pt x="282" y="4" on="1"/>
        <pt x="371" y="4" on="0"/>
        <pt x="475" y="109" on="0"/>
      </contour>
    </TTGlyph>
    <TTGlyph name="uni0036.sc" xMin="52" yMin="-8" xMax="437" yMax="568">
      <contour>
        <pt x="437" y="163" on="1"/>
        <pt x="437" y="85" on="0"/>
        <pt x="337" y="-8" on="0"/>
        <pt x="253" y="-8" on="1"/>
        <pt x="52" y="-8" on="0"/>
        <pt x="52" y="275" on="1"/>
        <pt x="52" y="424" on="0"/>
        <pt x="177" y="568" on="0"/>
        <pt x="271" y="568" on="1"/>
        <pt x="335" y="568" on="0"/>
        <pt x="408" y="510" on="0"/>
        <pt x="424" y="466" on="1"/>
        <pt x="409" y="459" on="1"/>
        <pt x="396" y="500" on="0"/>
        <pt x="329" y="554" on="0"/>
        <pt x="271" y="554" on="1"/>
        <pt x="195" y="554" on="0"/>
        <pt x="106" y="471" on="0"/>
        <pt x="67" y="343" on="0"/>
        <pt x="67" y="275" on="1"/>
        <pt x="67" y="221" on="0"/>
        <pt x="75" y="171" on="1"/>
        <pt x="76" y="171" on="1"/>
        <pt x="78" y="248" on="0"/>
        <pt x="188" y="335" on="0"/>
        <pt x="257" y="335" on="1"/>
        <pt x="343" y="335" on="0"/>
        <pt x="437" y="240" on="0"/>
      </contour>
      <contour>
        <pt x="89" y="165" on="1"/>
        <pt x="89" y="97" on="0"/>
        <pt x="179" y="6" on="0"/>
        <pt x="252" y="6" on="1"/>
        <pt x="330" y="6" on="0"/>
        <pt x="421" y="93" on="0"/>
        <pt x="421" y="165" on="1"/>
        <pt x="421" y="234" on="0"/>
        <pt x="331" y="321" on="0"/>
        <pt x="257" y="321" on="1"/>
        <pt x="181" y="321" on="0"/>
        <pt x="89" y="222" on="0"/>
      </contour>
    </TTGlyph>
    <TTGlyph name="uni0036.tf" xMin="97" yMin="-10" xMax="545" yMax="670">
      <contour>
        <pt x="97" y="330" on="1"/>
        <pt x="97" y="501" on="0"/>
        <pt x="243" y="670" on="0"/>
        <pt x="352" y="670" on="1"/>
        <pt x="427" y="670" on="0"/>
        <pt x="512" y="601" on="0"/>
        <pt x="530" y="550" on="1"/>
        <pt x="515" y="543" on="1"/>
        <pt x="500" y="591" on="0"/>
        <pt x="420" y="656" on="0"/>
        <pt x="352" y="656" on="1"/>
        <pt x="263" y="656" on="0"/>
        <pt x="157" y="557" on="0"/>
        <pt x="112" y="401" on="0"/>
        <pt x="112" y="317" on="1"/>
        <pt x="112" y="287" on="0"/>
        <pt x="118" y="226" on="0"/>
        <pt x="122" y="194" on="1"/>
        <pt x="124" y="194" on="1"/>
        <pt x="124" y="289" on="0"/>
        <pt x="255" y="395" on="0"/>
        <pt x="336" y="395" on="1"/>
        <pt x="435" y="395" on="0"/>
        <pt x="545" y="283" on="0"/>
        <pt x="545" y="192" on="1"/>
        <pt x="545" y="100" on="0"/>
        <pt x="430" y="-10" on="0"/>
        <pt x="332" y="-10" on="1"/>
        <pt x="97" y="-10" on="0"/>
      </contour>
      <contour>
        <pt x="529" y="194" on="1"/>
        <pt x="529" y="277" on="0"/>
        <pt x="424" y="381" on="0"/>
        <pt x="336" y="381" on="1"/>
        <pt x="246" y="381" on="0"/>
        <pt x="137" y="262" on="0"/>
        <pt x="137" y="194" on="1"/>
        <pt x="137" y="113" on="0"/>
        <pt x="245" y="4" on="0"/>
        <pt x="331" y="4" on="1"/>
        <pt x="423" y="4" on="0"/>
        <pt x="529" y="109" on="0"/>
      </contour>
    </TTGlyph>
    <TTGlyph name="uni0036.tosf" xMin="95" yMin="-10" xMax="531" yMax="670">
      <component glyphName="uni0036.osf" x="40" y="0" flags="0x4"/>
    </TTGlyph>
    <TTGlyph name="uni0037" xMin="22" yMin="0" xMax="485" yMax="660">
      <contour>
        <pt x="217" y="0" on="1"/>
        <pt x="200" y="0" on="1"/>
        <pt x="215" y="187" on="0"/>
        <pt x="341" y="511" on="0"/>
        <pt x="467" y="646" on="1"/>
        <pt x="22" y="646" on="1"/>
        <pt x="22" y="660" on="1"/>
        <pt x="485" y="660" on="1"/>
        <pt x="485" y="646" on="1"/>
        <pt x="248" y="391" on="0"/>
      </contour>
    </TTGlyph>
    <TTGlyph name="uni0037.dnom" xMin="6" yMin="-4" xMax="284" yMax="393">
      <component glyphName="uni2077" x="0" y="-337" flags="0x4"/>
    </TTGlyph>
    <TTGlyph name="uni0037.numr" xMin="6" yMin="268" xMax="284" yMax="665">
      <component glyphName="uni2077" x="0" y="-65" flags="0x4"/>
    </TTGlyph>
    <TTGlyph name="uni0037.osf" xMin="22" yMin="-100" xMax="485" yMax="560">
      <contour>
        <pt x="217" y="-100" on="1"/>
        <pt x="200" y="-100" on="1"/>
        <pt x="215" y="87" on="0"/>
        <pt x="341" y="411" on="0"/>
        <pt x="467" y="546" on="1"/>
        <pt x="22" y="546" on="1"/>
        <pt x="22" y="560" on="1"/>
        <pt x="485" y="560" on="1"/>
        <pt x="485" y="546" on="1"/>
        <pt x="248" y="291" on="0"/>
      </contour>
    </TTGlyph>
    <TTGlyph name="uni0037.sc" xMin="23" yMin="0" xMax="431" yMax="560">
      <contour>
        <pt x="196" y="0" on="1"/>
        <pt x="179" y="0" on="1"/>
        <pt x="192" y="158" on="0"/>
        <pt x="303" y="432" on="0"/>
        <pt x="414" y="546" on="1"/>
        <pt x="23" y="546" on="1"/>
        <pt x="23" y="560" on="1"/>
        <pt x="431" y="560" on="1"/>
        <pt x="431" y="546" on="1"/>
        <pt x="223" y="330" on="0"/>
      </contour>
    </TTGlyph>
    <TTGlyph name="uni0037.tf" xMin="61" yMin="0" xMax="574" yMax="660">
      <contour>
        <pt x="281" y="0" on="1"/>
        <pt x="264" y="0" on="1"/>
        <pt x="275" y="191" on="0"/>
        <pt x="414" y="511" on="0"/>
        <pt x="554" y="646" on="1"/>
        <pt x="61" y="646" on="1"/>
        <pt x="61" y="660" on="1"/>
        <pt x="574" y="660" on="1"/>
        <pt x="574" y="646" on="1"/>
        <pt x="438" y="516" on="0"/>
        <pt x="292" y="199" on="0"/>
      </contour>
    </TTGlyph>
    <TTGlyph name="uni0037.tosf" xMin="70" yMin="-100" xMax="533" yMax="560">
      <contour>
        <pt x="265" y="-100" on="1"/>
        <pt x="248" y="-100" on="1"/>
        <pt x="263" y="87" on="0"/>
        <pt x="389" y="411" on="0"/>
        <pt x="515" y="546" on="1"/>
        <pt x="70" y="546" on="1"/>
        <pt x="70" y="560" on="1"/>
        <pt x="533" y="560" on="1"/>
        <pt x="533" y="546" on="1"/>
        <pt x="296" y="291" on="0"/>
      </contour>
    </TTGlyph>
    <TTGlyph name="uni0038" xMin="55" yMin="-10" xMax="507" yMax="670">
      <contour>
        <pt x="83" y="508" on="1"/>
        <pt x="83" y="582" on="0"/>
        <pt x="190" y="670" on="0"/>
        <pt x="281" y="670" on="1"/>
        <pt x="371" y="670" on="0"/>
        <pt x="479" y="582" on="0"/>
        <pt x="479" y="508" on="1"/>
        <pt x="479" y="445" on="0"/>
        <pt x="403" y="362" on="0"/>
        <pt x="336" y="348" on="1"/>
        <pt x="336" y="347" on="1"/>
        <pt x="414" y="334" on="0"/>
        <pt x="507" y="237" on="0"/>
        <pt x="507" y="169" on="1"/>
        <pt x="507" y="90" on="0"/>
        <pt x="381" y="-10" on="0"/>
        <pt x="281" y="-10" on="1"/>
        <pt x="181" y="-10" on="0"/>
        <pt x="55" y="90" on="0"/>
        <pt x="55" y="169" on="1"/>
        <pt x="55" y="238" on="0"/>
        <pt x="150" y="334" on="0"/>
        <pt x="226" y="347" on="1"/>
        <pt x="226" y="348" on="1"/>
        <pt x="159" y="362" on="0"/>
        <pt x="83" y="445" on="0"/>
      </contour>
      <contour>
        <pt x="463" y="508" on="1"/>
        <pt x="463" y="576" on="0"/>
        <pt x="364" y="656" on="0"/>
        <pt x="281" y="656" on="1"/>
        <pt x="199" y="656" on="0"/>
        <pt x="99" y="576" on="0"/>
        <pt x="99" y="508" on="1"/>
        <pt x="99" y="440" on="0"/>
        <pt x="199" y="355" on="0"/>
        <pt x="281" y="355" on="1"/>
        <pt x="364" y="355" on="0"/>
        <pt x="463" y="440" on="0"/>
      </contour>
      <contour>
        <pt x="71" y="169" on="1"/>
        <pt x="71" y="96" on="0"/>
        <pt x="188" y="4" on="0"/>
        <pt x="281" y="4" on="1"/>
        <pt x="374" y="4" on="0"/>
        <pt x="491" y="96" on="0"/>
        <pt x="491" y="169" on="1"/>
        <pt x="491" y="243" on="0"/>
        <pt x="374" y="339" on="0"/>
        <pt x="281" y="339" on="1"/>
        <pt x="188" y="339" on="0"/>
        <pt x="71" y="243" on="0"/>
      </contour>
    </TTGlyph>
    <TTGlyph name="uni0038.dnom" xMin="36" yMin="-10" xMax="309" yMax="398">
      <component glyphName="uni2078" x="0" y="-337" flags="0x4"/>
    </TTGlyph>
    <TTGlyph name="uni0038.numr" xMin="36" yMin="262" xMax="309" yMax="670">
      <component glyphName="uni2078" x="0" y="-65" flags="0x4"/>
    </TTGlyph>
    <TTGlyph name="uni0038.osf" xMin="55" yMin="-10" xMax="507" yMax="670">
      <contour>
        <pt x="83" y="508" on="1"/>
        <pt x="83" y="582" on="0"/>
        <pt x="190" y="670" on="0"/>
        <pt x="281" y="670" on="1"/>
        <pt x="371" y="670" on="0"/>
        <pt x="479" y="582" on="0"/>
        <pt x="479" y="508" on="1"/>
        <pt x="479" y="445" on="0"/>
        <pt x="403" y="362" on="0"/>
        <pt x="336" y="348" on="1"/>
        <pt x="336" y="347" on="1"/>
        <pt x="414" y="334" on="0"/>
        <pt x="507" y="237" on="0"/>
        <pt x="507" y="169" on="1"/>
        <pt x="507" y="90" on="0"/>
        <pt x="381" y="-10" on="0"/>
        <pt x="281" y="-10" on="1"/>
        <pt x="181" y="-10" on="0"/>
        <pt x="55" y="90" on="0"/>
        <pt x="55" y="169" on="1"/>
        <pt x="55" y="238" on="0"/>
        <pt x="150" y="334" on="0"/>
        <pt x="226" y="347" on="1"/>
        <pt x="226" y="348" on="1"/>
        <pt x="159" y="362" on="0"/>
        <pt x="83" y="445" on="0"/>
      </contour>
      <contour>
        <pt x="463" y="508" on="1"/>
        <pt x="463" y="576" on="0"/>
        <pt x="364" y="656" on="0"/>
        <pt x="281" y="656" on="1"/>
        <pt x="199" y="656" on="0"/>
        <pt x="99" y="576" on="0"/>
        <pt x="99" y="508" on="1"/>
        <pt x="99" y="440" on="0"/>
        <pt x="199" y="355" on="0"/>
        <pt x="281" y="355" on="1"/>
        <pt x="364" y="355" on="0"/>
        <pt x="463" y="440" on="0"/>
      </contour>
      <contour>
        <pt x="71" y="169" on="1"/>
        <pt x="71" y="96" on="0"/>
        <pt x="188" y="4" on="0"/>
        <pt x="281" y="4" on="1"/>
        <pt x="374" y="4" on="0"/>
        <pt x="491" y="96" on="0"/>
        <pt x="491" y="169" on="1"/>
        <pt x="491" y="243" on="0"/>
        <pt x="374" y="339" on="0"/>
        <pt x="281" y="339" on="1"/>
        <pt x="188" y="339" on="0"/>
        <pt x="71" y="243" on="0"/>
      </contour>
    </TTGlyph>
    <TTGlyph name="uni0038.sc" xMin="52" yMin="-8" xMax="451" yMax="568">
      <contour>
        <pt x="451" y="144" on="1"/>
        <pt x="451" y="77" on="0"/>
        <pt x="340" y="-8" on="0"/>
        <pt x="251" y="-8" on="1"/>
        <pt x="163" y="-8" on="0"/>
        <pt x="52" y="77" on="0"/>
        <pt x="52" y="144" on="1"/>
        <pt x="52" y="202" on="0"/>
        <pt x="135" y="284" on="0"/>
        <pt x="202" y="294" on="1"/>
        <pt x="202" y="295" on="1"/>
        <pt x="77" y="321" on="0"/>
        <pt x="77" y="430" on="1"/>
        <pt x="77" y="493" on="0"/>
        <pt x="172" y="568" on="0"/>
        <pt x="251" y="568" on="1"/>
        <pt x="331" y="568" on="0"/>
        <pt x="426" y="493" on="0"/>
        <pt x="426" y="430" on="1"/>
        <pt x="426" y="321" on="0"/>
        <pt x="301" y="295" on="1"/>
        <pt x="301" y="294" on="1"/>
        <pt x="369" y="283" on="0"/>
        <pt x="451" y="201" on="0"/>
      </contour>
      <contour>
        <pt x="92" y="430" on="1"/>
        <pt x="92" y="373" on="0"/>
        <pt x="179" y="302" on="0"/>
        <pt x="251" y="302" on="1"/>
        <pt x="323" y="302" on="0"/>
        <pt x="410" y="373" on="0"/>
        <pt x="410" y="430" on="1"/>
        <pt x="410" y="487" on="0"/>
        <pt x="323" y="554" on="0"/>
        <pt x="251" y="554" on="1"/>
        <pt x="179" y="554" on="0"/>
        <pt x="92" y="487" on="0"/>
      </contour>
      <contour>
        <pt x="68" y="144" on="1"/>
        <pt x="68" y="83" on="0"/>
        <pt x="170" y="6" on="0"/>
        <pt x="251" y="6" on="1"/>
        <pt x="333" y="6" on="0"/>
        <pt x="435" y="83" on="0"/>
        <pt x="435" y="144" on="1"/>
        <pt x="435" y="206" on="0"/>
        <pt x="333" y="286" on="0"/>
        <pt x="251" y="286" on="1"/>
        <pt x="170" y="286" on="0"/>
        <pt x="68" y="206" on="0"/>
      </contour>
    </TTGlyph>
    <TTGlyph name="uni0038.tf" xMin="81" yMin="-10" xMax="522" yMax="670">
      <contour>
        <pt x="109" y="508" on="1"/>
        <pt x="109" y="582" on="0"/>
        <pt x="214" y="670" on="0"/>
        <pt x="302" y="670" on="1"/>
        <pt x="389" y="670" on="0"/>
        <pt x="494" y="582" on="0"/>
        <pt x="494" y="508" on="1"/>
        <pt x="494" y="445" on="0"/>
        <pt x="421" y="362" on="0"/>
        <pt x="357" y="348" on="1"/>
        <pt x="357" y="347" on="1"/>
        <pt x="432" y="334" on="0"/>
        <pt x="522" y="237" on="0"/>
        <pt x="522" y="169" on="1"/>
        <pt x="522" y="90" on="0"/>
        <pt x="399" y="-10" on="0"/>
        <pt x="302" y="-10" on="1"/>
        <pt x="205" y="-10" on="0"/>
        <pt x="81" y="90" on="0"/>
        <pt x="81" y="169" on="1"/>
        <pt x="81" y="238" on="0"/>
        <pt x="173" y="334" on="0"/>
        <pt x="247" y="347" on="1"/>
        <pt x="247" y="348" on="1"/>
        <pt x="183" y="362" on="0"/>
        <pt x="109" y="445" on="0"/>
      </contour>
      <contour>
        <pt x="478" y="508" on="1"/>
        <pt x="478" y="576" on="0"/>
        <pt x="382" y="656" on="0"/>
        <pt x="302" y="656" on="1"/>
        <pt x="222" y="656" on="0"/>
        <pt x="125" y="576" on="0"/>
        <pt x="125" y="508" on="1"/>
        <pt x="125" y="440" on="0"/>
        <pt x="222" y="355" on="0"/>
        <pt x="302" y="355" on="1"/>
        <pt x="382" y="355" on="0"/>
        <pt x="478" y="440" on="0"/>
      </contour>
      <contour>
        <pt x="97" y="169" on="1"/>
        <pt x="97" y="96" on="0"/>
        <pt x="211" y="4" on="0"/>
        <pt x="302" y="4" on="1"/>
        <pt x="392" y="4" on="0"/>
        <pt x="506" y="96" on="0"/>
        <pt x="506" y="169" on="1"/>
        <pt x="506" y="243" on="0"/>
        <pt x="392" y="339" on="0"/>
        <pt x="302" y="339" on="1"/>
        <pt x="211" y="339" on="0"/>
        <pt x="97" y="243" on="0"/>
      </contour>
    </TTGlyph>
    <TTGlyph name="uni0038.tosf" xMin="76" yMin="-10" xMax="528" yMax="670">
      <component glyphName="uni0038.osf" x="21" y="0" flags="0x4"/>
    </TTGlyph>
    <TTGlyph name="uni0039" xMin="57" yMin="-10" xMax="506" yMax="670">
      <contour>
        <pt x="466" y="466" on="1"/>
        <pt x="466" y="547" on="0"/>
        <pt x="358" y="656" on="0"/>
        <pt x="272" y="656" on="1"/>
        <pt x="181" y="656" on="0"/>
        <pt x="73" y="552" on="0"/>
        <pt x="73" y="466" on="1"/>
        <pt x="73" y="382" on="0"/>
        <pt x="180" y="279" on="0"/>
        <pt x="268" y="279" on="1"/>
        <pt x="354" y="279" on="0"/>
        <pt x="466" y="399" on="0"/>
      </contour>
      <contour>
        <pt x="57" y="468" on="1"/>
        <pt x="57" y="560" on="0"/>
        <pt x="174" y="670" on="0"/>
        <pt x="271" y="670" on="1"/>
        <pt x="385" y="670" on="0"/>
        <pt x="506" y="493" on="0"/>
        <pt x="506" y="330" on="1"/>
        <pt x="506" y="159" on="0"/>
        <pt x="373" y="-10" on="0"/>
        <pt x="272" y="-10" on="1"/>
        <pt x="190" y="-10" on="0"/>
        <pt x="77" y="68" on="0"/>
        <pt x="63" y="130" on="1"/>
        <pt x="80" y="139" on="1"/>
        <pt x="91" y="78" on="0"/>
        <pt x="189" y="4" on="0"/>
        <pt x="272" y="4" on="1"/>
        <pt x="355" y="4" on="0"/>
        <pt x="451" y="102" on="0"/>
        <pt x="491" y="254" on="0"/>
        <pt x="491" y="334" on="1"/>
        <pt x="491" y="370" on="0"/>
        <pt x="484" y="439" on="0"/>
        <pt x="479" y="470" on="1"/>
        <pt x="477" y="470" on="1"/>
        <pt x="482" y="373" on="0"/>
        <pt x="345" y="265" on="0"/>
        <pt x="268" y="265" on="1"/>
        <pt x="171" y="265" on="0"/>
        <pt x="57" y="376" on="0"/>
      </contour>
    </TTGlyph>
    <TTGlyph name="uni0039.dnom" xMin="38" yMin="-10" xMax="311" yMax="398">
      <component glyphName="uni2079" x="0" y="-337" flags="0x4"/>
    </TTGlyph>
    <TTGlyph name="uni0039.numr" xMin="38" yMin="262" xMax="311" yMax="670">
      <component glyphName="uni2079" x="0" y="-65" flags="0x4"/>
    </TTGlyph>
    <TTGlyph name="uni0039.osf" xMin="57" yMin="-110" xMax="506" yMax="570">
      <contour>
        <pt x="466" y="366" on="1"/>
        <pt x="466" y="447" on="0"/>
        <pt x="358" y="556" on="0"/>
        <pt x="272" y="556" on="1"/>
        <pt x="181" y="556" on="0"/>
        <pt x="73" y="452" on="0"/>
        <pt x="73" y="366" on="1"/>
        <pt x="73" y="282" on="0"/>
        <pt x="180" y="179" on="0"/>
        <pt x="268" y="179" on="1"/>
        <pt x="354" y="179" on="0"/>
        <pt x="466" y="299" on="0"/>
      </contour>
      <contour>
        <pt x="57" y="368" on="1"/>
        <pt x="57" y="460" on="0"/>
        <pt x="174" y="570" on="0"/>
        <pt x="271" y="570" on="1"/>
        <pt x="385" y="570" on="0"/>
        <pt x="506" y="393" on="0"/>
        <pt x="506" y="230" on="1"/>
        <pt x="506" y="59" on="0"/>
        <pt x="373" y="-110" on="0"/>
        <pt x="272" y="-110" on="1"/>
        <pt x="190" y="-110" on="0"/>
        <pt x="77" y="-32" on="0"/>
        <pt x="63" y="30" on="1"/>
        <pt x="80" y="39" on="1"/>
        <pt x="91" y="-22" on="0"/>
        <pt x="189" y="-96" on="0"/>
        <pt x="272" y="-96" on="1"/>
        <pt x="355" y="-96" on="0"/>
        <pt x="451" y="2" on="0"/>
        <pt x="491" y="154" on="0"/>
        <pt x="491" y="234" on="1"/>
        <pt x="491" y="270" on="0"/>
        <pt x="484" y="339" on="0"/>
        <pt x="479" y="370" on="1"/>
        <pt x="477" y="370" on="1"/>
        <pt x="482" y="273" on="0"/>
        <pt x="345" y="165" on="0"/>
        <pt x="268" y="165" on="1"/>
        <pt x="171" y="165" on="0"/>
        <pt x="57" y="276" on="0"/>
      </contour>
    </TTGlyph>
    <TTGlyph name="uni0039.sc" xMin="53" yMin="-8" xMax="449" yMax="568">
      <contour>
        <pt x="69" y="395" on="1"/>
        <pt x="69" y="325" on="0"/>
        <pt x="162" y="238" on="0"/>
        <pt x="239" y="238" on="1"/>
        <pt x="321" y="238" on="0"/>
        <pt x="412" y="338" on="0"/>
        <pt x="412" y="395" on="1"/>
        <pt x="412" y="461" on="0"/>
        <pt x="316" y="554" on="0"/>
        <pt x="243" y="554" on="1"/>
        <pt x="163" y="554" on="0"/>
        <pt x="69" y="467" on="0"/>
      </contour>
      <contour>
        <pt x="449" y="282" on="1"/>
        <pt x="449" y="136" on="0"/>
        <pt x="332" y="-8" on="0"/>
        <pt x="243" y="-8" on="1"/>
        <pt x="170" y="-8" on="0"/>
        <pt x="70" y="58" on="0"/>
        <pt x="58" y="110" on="1"/>
        <pt x="73" y="119" on="1"/>
        <pt x="84" y="68" on="0"/>
        <pt x="170" y="6" on="0"/>
        <pt x="243" y="6" on="1"/>
        <pt x="316" y="6" on="0"/>
        <pt x="399" y="88" on="0"/>
        <pt x="434" y="215" on="0"/>
        <pt x="434" y="282" on="1"/>
        <pt x="434" y="311" on="0"/>
        <pt x="429" y="369" on="0"/>
        <pt x="424" y="396" on="1"/>
        <pt x="423" y="396" on="1"/>
        <pt x="425" y="311" on="0"/>
        <pt x="307" y="224" on="0"/>
        <pt x="239" y="224" on="1"/>
        <pt x="153" y="224" on="0"/>
        <pt x="53" y="320" on="0"/>
        <pt x="53" y="396" on="1"/>
        <pt x="53" y="473" on="0"/>
        <pt x="156" y="568" on="0"/>
        <pt x="242" y="568" on="1"/>
        <pt x="343" y="568" on="0"/>
        <pt x="449" y="419" on="0"/>
      </contour>
    </TTGlyph>
    <TTGlyph name="uni0039.tf" xMin="78" yMin="-10" xMax="527" yMax="670">
      <contour>
        <pt x="487" y="466" on="1"/>
        <pt x="487" y="547" on="0"/>
        <pt x="379" y="656" on="0"/>
        <pt x="293" y="656" on="1"/>
        <pt x="202" y="656" on="0"/>
        <pt x="94" y="552" on="0"/>
        <pt x="94" y="466" on="1"/>
        <pt x="94" y="382" on="0"/>
        <pt x="201" y="279" on="0"/>
        <pt x="289" y="279" on="1"/>
        <pt x="375" y="279" on="0"/>
        <pt x="487" y="399" on="0"/>
      </contour>
      <contour>
        <pt x="78" y="468" on="1"/>
        <pt x="78" y="560" on="0"/>
        <pt x="195" y="670" on="0"/>
        <pt x="292" y="670" on="1"/>
        <pt x="406" y="670" on="0"/>
        <pt x="527" y="493" on="0"/>
        <pt x="527" y="330" on="1"/>
        <pt x="527" y="159" on="0"/>
        <pt x="394" y="-10" on="0"/>
        <pt x="293" y="-10" on="1"/>
        <pt x="211" y="-10" on="0"/>
        <pt x="98" y="68" on="0"/>
        <pt x="84" y="130" on="1"/>
        <pt x="101" y="139" on="1"/>
        <pt x="112" y="78" on="0"/>
        <pt x="210" y="4" on="0"/>
        <pt x="293" y="4" on="1"/>
        <pt x="376" y="4" on="0"/>
        <pt x="472" y="102" on="0"/>
        <pt x="512" y="254" on="0"/>
        <pt x="512" y="334" on="1"/>
        <pt x="512" y="370" on="0"/>
        <pt x="505" y="439" on="0"/>
        <pt x="500" y="470" on="1"/>
        <pt x="498" y="470" on="1"/>
        <pt x="503" y="373" on="0"/>
        <pt x="366" y="265" on="0"/>
        <pt x="289" y="265" on="1"/>
        <pt x="192" y="265" on="0"/>
        <pt x="78" y="376" on="0"/>
      </contour>
    </TTGlyph>
    <TTGlyph name="uni0039.tosf" xMin="78" yMin="-110" xMax="527" yMax="570">
      <component glyphName="uni0039.osf" x="21" y="0" flags="0x4"/>
    </TTGlyph>
    <TTGlyph name="uni003A" xMin="74" yMin="-5" xMax="118" yMax="500">
      <component glyphName="uni002E" x="12" y="461" flags="0x4"/>
      <component glyphName="uni002E" x="12" y="0" flags="0x4"/>
    </TTGlyph>
    <TTGlyph name="uni003A.tf" xMin="129" yMin="-5" xMax="173" yMax="500">
      <component glyphName="uni002E" x="67" y="461" flags="0x4"/>
      <component glyphName="uni002E" x="67" y="0" flags="0x4"/>
    </TTGlyph>
    <TTGlyph name="uni003B" xMin="58" yMin="-107" xMax="129" yMax="500">
      <component glyphName="uni002C" x="11" y="0" flags="0x4"/>
      <component glyphName="uni002E" x="183" y="495" scale="-1.0" flags="0x4"/>
    </TTGlyph>
    <TTGlyph name="uni003B.tf" xMin="116" yMin="-107" xMax="187" yMax="500">
      <component glyphName="uni002C" x="69" y="0" flags="0x4"/>
      <component glyphName="uni002E" x="241" y="495" scale="-1.0" flags="0x4"/>
    </TTGlyph>
    <TTGlyph name="uni003C" xMin="91" yMin="58" xMax="533" yMax="541">
      <contour>
        <pt x="533" y="58" on="1"/>
        <pt x="91" y="290" on="1"/>
        <pt x="91" y="309" on="1"/>
        <pt x="533" y="541" on="1"/>
        <pt x="533" y="523" on="1"/>
        <pt x="105" y="300" on="1"/>
        <pt x="533" y="76" on="1"/>
      </contour>
    </TTGlyph>
    <TTGlyph name="uni003D" xMin="87" yMin="204" xMax="517" yMax="422">
      <contour>
        <pt x="87" y="422" on="1"/>
        <pt x="517" y="422" on="1"/>
        <pt x="517" y="408" on="1"/>
        <pt x="87" y="408" on="1"/>
      </contour>
      <contour>
        <pt x="87" y="218" on="1"/>
        <pt x="517" y="218" on="1"/>
        <pt x="517" y="204" on="1"/>
        <pt x="87" y="204" on="1"/>
      </contour>
    </TTGlyph>
    <TTGlyph name="uni003E" xMin="71" yMin="58" xMax="513" yMax="541">
      <component glyphName="uni003C" x="604" y="0" scalex="-1.0" scaley="1.0" flags="0x4"/>
    </TTGlyph>
    <TTGlyph name="uni003F" xMin="30" yMin="-5" xMax="432" yMax="670">
      <contour>
        <pt x="30" y="501" on="1"/>
        <pt x="43" y="581" on="0"/>
        <pt x="142" y="670" on="0"/>
        <pt x="242" y="670" on="1"/>
        <pt x="325" y="670" on="0"/>
        <pt x="432" y="581" on="0"/>
        <pt x="432" y="501" on="1"/>
        <pt x="432" y="417" on="0"/>
        <pt x="339" y="311" on="0"/>
        <pt x="234" y="281" on="1"/>
        <pt x="234" y="150" on="1"/>
        <pt x="218" y="150" on="1"/>
        <pt x="218" y="290" on="1"/>
        <pt x="331" y="325" on="0"/>
        <pt x="416" y="420" on="0"/>
        <pt x="416" y="501" on="1"/>
        <pt x="416" y="574" on="0"/>
        <pt x="318" y="656" on="0"/>
        <pt x="242" y="656" on="1"/>
        <pt x="147" y="656" on="0"/>
        <pt x="55" y="571" on="0"/>
        <pt x="44" y="495" on="1"/>
      </contour>
      <contour>
        <pt x="204" y="17" on="1"/>
        <pt x="204" y="39" on="0"/>
        <pt x="226" y="39" on="1"/>
        <pt x="248" y="39" on="0"/>
        <pt x="248" y="17" on="1"/>
        <pt x="248" y="-5" on="0"/>
        <pt x="226" y="-5" on="1"/>
        <pt x="204" y="-5" on="0"/>
      </contour>
    </TTGlyph>
    <TTGlyph name="uni003F.sc" xMin="25" yMin="-5" xMax="380" yMax="568">
      <contour>
        <pt x="25" y="425" on="1"/>
        <pt x="36" y="493" on="0"/>
        <pt x="124" y="568" on="0"/>
        <pt x="212" y="568" on="1"/>
        <pt x="286" y="568" on="0"/>
        <pt x="380" y="493" on="0"/>
        <pt x="380" y="425" on="1"/>
        <pt x="380" y="354" on="0"/>
        <pt x="298" y="264" on="0"/>
        <pt x="206" y="239" on="1"/>
        <pt x="206" y="129" on="1"/>
        <pt x="190" y="129" on="1"/>
        <pt x="190" y="248" on="1"/>
        <pt x="289" y="277" on="0"/>
        <pt x="364" y="357" on="0"/>
        <pt x="364" y="424" on="1"/>
        <pt x="364" y="486" on="0"/>
        <pt x="279" y="554" on="0"/>
        <pt x="212" y="554" on="1"/>
        <pt x="129" y="554" on="0"/>
        <pt x="52" y="481" on="0"/>
        <pt x="41" y="419" on="1"/>
      </contour>
      <contour>
        <pt x="174" y="17" on="1"/>
        <pt x="174" y="39" on="0"/>
        <pt x="196" y="39" on="1"/>
        <pt x="218" y="39" on="0"/>
        <pt x="218" y="17" on="1"/>
        <pt x="218" y="-5" on="0"/>
        <pt x="196" y="-5" on="1"/>
        <pt x="174" y="-5" on="0"/>
      </contour>
    </TTGlyph>
    <TTGlyph name="uni0040" xMin="54" yMin="-191" xMax="885" yMax="670">
      <contour>
        <pt x="54" y="234" on="1"/>
        <pt x="54" y="434" on="0"/>
        <pt x="284" y="670" on="0"/>
        <pt x="476" y="670" on="1"/>
        <pt x="627" y="670" on="0"/>
        <pt x="806" y="547" on="0"/>
        <pt x="885" y="353" on="0"/>
        <pt x="885" y="245" on="1"/>
        <pt x="885" y="125" on="0"/>
        <pt x="820" y="-10" on="0"/>
        <pt x="761" y="-10" on="1"/>
        <pt x="663" y="-10" on="0"/>
        <pt x="663" y="140" on="1"/>
        <pt x="644" y="70" on="0"/>
        <pt x="545" y="-10" on="0"/>
        <pt x="471" y="-10" on="1"/>
        <pt x="370" y="-10" on="0"/>
        <pt x="249" y="123" on="0"/>
        <pt x="249" y="235" on="1"/>
        <pt x="249" y="345" on="0"/>
        <pt x="370" y="475" on="0"/>
        <pt x="471" y="475" on="1"/>
        <pt x="545" y="475" on="0"/>
        <pt x="644" y="398" on="0"/>
        <pt x="663" y="330" on="1"/>
        <pt x="663" y="456" on="1"/>
        <pt x="677" y="456" on="1"/>
        <pt x="677" y="132" on="1"/>
        <pt x="677" y="4" on="0"/>
        <pt x="764" y="4" on="1"/>
        <pt x="814" y="4" on="0"/>
        <pt x="869" y="132" on="0"/>
        <pt x="869" y="245" on="1"/>
        <pt x="869" y="350" on="0"/>
        <pt x="794" y="538" on="0"/>
        <pt x="622" y="656" on="0"/>
        <pt x="476" y="656" on="1"/>
        <pt x="292" y="656" on="0"/>
        <pt x="70" y="428" on="0"/>
        <pt x="70" y="234" on="1"/>
        <pt x="70" y="40" on="0"/>
        <pt x="302" y="-177" on="0"/>
        <pt x="490" y="-177" on="1"/>
        <pt x="552" y="-177" on="0"/>
        <pt x="684" y="-136" on="0"/>
        <pt x="725" y="-97" on="1"/>
        <pt x="735" y="-110" on="1"/>
        <pt x="691" y="-148" on="0"/>
        <pt x="556" y="-191" on="0"/>
        <pt x="490" y="-191" on="1"/>
        <pt x="294" y="-191" on="0"/>
        <pt x="54" y="33" on="0"/>
      </contour>
      <contour>
        <pt x="663" y="251" on="1"/>
        <pt x="663" y="339" on="0"/>
        <pt x="560" y="461" on="0"/>
        <pt x="471" y="461" on="1"/>
        <pt x="377" y="461" on="0"/>
        <pt x="265" y="338" on="0"/>
        <pt x="265" y="235" on="1"/>
        <pt x="265" y="130" on="0"/>
        <pt x="377" y="4" on="0"/>
        <pt x="471" y="4" on="1"/>
        <pt x="560" y="4" on="0"/>
        <pt x="663" y="130" on="0"/>
        <pt x="663" y="221" on="1"/>
      </contour>
    </TTGlyph>
    <TTGlyph name="uni0040.case" xMin="54" yMin="-102" xMax="885" yMax="759">
      <component glyphName="uni0040" x="0" y="89" flags="0x4"/>
    </TTGlyph>
    <TTGlyph name="uni0041" xMin="12" yMin="0" xMax="574" yMax="660">
      <contour>
        <pt x="276" y="597" on="1"/>
        <pt x="132" y="248" on="1"/>
        <pt x="454" y="248" on="1"/>
        <pt x="310" y="596" on="1"/>
        <pt x="293" y="642" on="1"/>
      </contour>
      <contour>
        <pt x="557" y="0" on="1"/>
        <pt x="460" y="234" on="1"/>
        <pt x="126" y="234" on="1"/>
        <pt x="29" y="0" on="1"/>
        <pt x="12" y="0" on="1"/>
        <pt x="284" y="660" on="1"/>
        <pt x="302" y="660" on="1"/>
        <pt x="574" y="0" on="1"/>
      </contour>
    </TTGlyph>
    <TTGlyph name="uni0041.swsh" xMin="10" yMin="-110" xMax="862" yMax="660">
      <contour>
        <pt x="564" y="597" on="1"/>
        <pt x="420" y="248" on="1"/>
        <pt x="742" y="248" on="1"/>
        <pt x="598" y="596" on="1"/>
        <pt x="581" y="642" on="1"/>
      </contour>
      <contour>
        <pt x="165" y="-110" on="1"/>
        <pt x="97" y="-110" on="0"/>
        <pt x="10" y="-46" on="0"/>
        <pt x="10" y="32" on="1"/>
        <pt x="24" y="39" on="1"/>
        <pt x="24" y="-37" on="0"/>
        <pt x="100" y="-96" on="0"/>
        <pt x="163" y="-96" on="1"/>
        <pt x="220" y="-96" on="0"/>
        <pt x="283" y="-42" on="0"/>
        <pt x="315" y="36" on="1"/>
        <pt x="572" y="660" on="1"/>
        <pt x="590" y="660" on="1"/>
        <pt x="862" y="0" on="1"/>
        <pt x="845" y="0" on="1"/>
        <pt x="748" y="234" on="1"/>
        <pt x="414" y="234" on="1"/>
        <pt x="326" y="20" on="1"/>
        <pt x="297" y="-50" on="0"/>
        <pt x="227" y="-110" on="0"/>
      </contour>
      <contour>
        <pt x="287" y="361" on="1"/>
        <pt x="276" y="350" on="1"/>
        <pt x="221" y="362" on="0"/>
        <pt x="154" y="438" on="0"/>
        <pt x="154" y="502" on="1"/>
        <pt x="154" y="660" on="0"/>
        <pt x="327" y="660" on="1"/>
        <pt x="577" y="660" on="1"/>
        <pt x="577" y="646" on="1"/>
        <pt x="332" y="646" on="1"/>
        <pt x="170" y="646" on="0"/>
        <pt x="170" y="502" on="1"/>
        <pt x="170" y="444" on="0"/>
        <pt x="233" y="373" on="0"/>
      </contour>
    </TTGlyph>
    <TTGlyph name="uni0042" xMin="99" yMin="0" xMax="552" yMax="660">
      <contour>
        <pt x="331" y="0" on="1"/>
        <pt x="99" y="0" on="1"/>
        <pt x="99" y="660" on="1"/>
        <pt x="331" y="660" on="1"/>
        <pt x="533" y="660" on="0"/>
        <pt x="533" y="493" on="1"/>
        <pt x="533" y="362" on="0"/>
        <pt x="401" y="334" on="1"/>
        <pt x="401" y="333" on="1"/>
        <pt x="472" y="323" on="0"/>
        <pt x="552" y="240" on="0"/>
        <pt x="552" y="169" on="1"/>
        <pt x="552" y="0" on="0"/>
      </contour>
      <contour>
        <pt x="115" y="646" on="1"/>
        <pt x="115" y="340" on="1"/>
        <pt x="331" y="340" on="1"/>
        <pt x="517" y="340" on="0"/>
        <pt x="517" y="492" on="1"/>
        <pt x="517" y="646" on="0"/>
        <pt x="331" y="646" on="1"/>
      </contour>
      <contour>
        <pt x="115" y="326" on="1"/>
        <pt x="115" y="14" on="1"/>
        <pt x="331" y="14" on="1"/>
        <pt x="536" y="14" on="0"/>
        <pt x="536" y="170" on="1"/>
        <pt x="536" y="326" on="0"/>
        <pt x="331" y="326" on="1"/>
      </contour>
    </TTGlyph>
    <TTGlyph name="uni0043" xMin="56" yMin="-10" xMax="610" yMax="670">
      <contour>
        <pt x="595" y="171" on="1"/>
        <pt x="610" y="165" on="1"/>
        <pt x="585" y="82" on="0"/>
        <pt x="449" y="-10" on="0"/>
        <pt x="349" y="-10" on="1"/>
        <pt x="218" y="-10" on="0"/>
        <pt x="56" y="173" on="0"/>
        <pt x="56" y="330" on="1"/>
        <pt x="56" y="487" on="0"/>
        <pt x="217" y="670" on="0"/>
        <pt x="349" y="670" on="1"/>
        <pt x="556" y="670" on="0"/>
        <pt x="605" y="496" on="1"/>
        <pt x="590" y="489" on="1"/>
        <pt x="541" y="656" on="0"/>
        <pt x="349" y="656" on="1"/>
        <pt x="225" y="656" on="0"/>
        <pt x="72" y="480" on="0"/>
        <pt x="72" y="330" on="1"/>
        <pt x="72" y="180" on="0"/>
        <pt x="225" y="4" on="0"/>
        <pt x="349" y="4" on="1"/>
        <pt x="546" y="4" on="0"/>
      </contour>
    </TTGlyph>
    <TTGlyph name="uni0044" xMin="99" yMin="0" xMax="627" yMax="660">
      <contour>
        <pt x="302" y="646" on="1"/>
        <pt x="115" y="646" on="1"/>
        <pt x="115" y="14" on="1"/>
        <pt x="302" y="14" on="1"/>
        <pt x="611" y="14" on="0"/>
        <pt x="611" y="340" on="1"/>
        <pt x="611" y="646" on="0"/>
      </contour>
      <contour>
        <pt x="99" y="0" on="1"/>
        <pt x="99" y="660" on="1"/>
        <pt x="302" y="660" on="1"/>
        <pt x="627" y="660" on="0"/>
        <pt x="627" y="340" on="1"/>
        <pt x="627" y="0" on="0"/>
        <pt x="302" y="0" on="1"/>
      </contour>
    </TTGlyph>
    <TTGlyph name="uni0045" xMin="99" yMin="0" xMax="553" yMax="660">
      <contour>
        <pt x="99" y="0" on="1"/>
        <pt x="99" y="660" on="1"/>
        <pt x="536" y="660" on="1"/>
        <pt x="536" y="646" on="1"/>
        <pt x="115" y="646" on="1"/>
        <pt x="115" y="344" on="1"/>
        <pt x="453" y="344" on="1"/>
        <pt x="453" y="330" on="1"/>
        <pt x="115" y="330" on="1"/>
        <pt x="115" y="14" on="1"/>
        <pt x="553" y="14" on="1"/>
        <pt x="553" y="0" on="1"/>
      </contour>
    </TTGlyph>
    <TTGlyph name="uni0045.swsh" xMin="10" yMin="0" xMax="767" yMax="660">
      <component glyphName="__swash_topleft" x="-24" y="0" flags="0x4"/>
      <component glyphName="uni0045" x="214" y="0" flags="0x4"/>
    </TTGlyph>
    <TTGlyph name="uni0045.swsh.001" xMin="99" yMin="0" xMax="677" yMax="660">
      <contour>
        <pt x="99" y="0" on="1"/>
        <pt x="99" y="660" on="1"/>
        <pt x="583" y="660" on="1"/>
        <pt x="583" y="646" on="1"/>
        <pt x="115" y="646" on="1"/>
        <pt x="115" y="344" on="1"/>
        <pt x="403" y="344" on="1"/>
        <pt x="403" y="330" on="1"/>
        <pt x="115" y="330" on="1"/>
        <pt x="115" y="14" on="1"/>
        <pt x="499" y="14" on="1"/>
        <pt x="578" y="14" on="0"/>
        <pt x="661" y="72" on="0"/>
        <pt x="661" y="139" on="1"/>
        <pt x="661" y="246" on="0"/>
        <pt x="570" y="264" on="1"/>
        <pt x="581" y="275" on="1"/>
        <pt x="677" y="252" on="0"/>
        <pt x="677" y="139" on="1"/>
        <pt x="677" y="0" on="0"/>
        <pt x="504" y="0" on="1"/>
      </contour>
    </TTGlyph>
    <TTGlyph name="uni0046" xMin="99" yMin="0" xMax="535" yMax="660">
      <contour>
        <pt x="453" y="330" on="1"/>
        <pt x="115" y="330" on="1"/>
        <pt x="115" y="0" on="1"/>
        <pt x="99" y="0" on="1"/>
        <pt x="99" y="660" on="1"/>
        <pt x="535" y="660" on="1"/>
        <pt x="535" y="646" on="1"/>
        <pt x="115" y="646" on="1"/>
        <pt x="115" y="344" on="1"/>
        <pt x="453" y="344" on="1"/>
      </contour>
    </TTGlyph>
    <TTGlyph name="uni0046.swsh" xMin="10" yMin="0" xMax="749" yMax="660">
      <component glyphName="__swash_topleft" x="-24" y="0" flags="0x4"/>
      <component glyphName="uni0046" x="214" y="0" flags="0x4"/>
    </TTGlyph>
    <TTGlyph name="uni0047" xMin="56" yMin="-10" xMax="610" yMax="670">
      <contour>
        <pt x="594" y="0" on="1"/>
        <pt x="594" y="159" on="1"/>
        <pt x="575" y="81" on="0"/>
        <pt x="448" y="-10" on="0"/>
        <pt x="345" y="-10" on="1"/>
        <pt x="214" y="-10" on="0"/>
        <pt x="56" y="173" on="0"/>
        <pt x="56" y="330" on="1"/>
        <pt x="56" y="487" on="0"/>
        <pt x="217" y="670" on="0"/>
        <pt x="349" y="670" on="1"/>
        <pt x="556" y="670" on="0"/>
        <pt x="605" y="496" on="1"/>
        <pt x="591" y="489" on="1"/>
        <pt x="542" y="656" on="0"/>
        <pt x="349" y="656" on="1"/>
        <pt x="225" y="656" on="0"/>
        <pt x="72" y="480" on="0"/>
        <pt x="72" y="330" on="1"/>
        <pt x="72" y="180" on="0"/>
        <pt x="221" y="4" on="0"/>
        <pt x="345" y="4" on="1"/>
        <pt x="445" y="4" on="0"/>
        <pt x="553" y="88" on="0"/>
        <pt x="594" y="201" on="0"/>
        <pt x="594" y="244" on="1"/>
        <pt x="594" y="297" on="1"/>
        <pt x="353" y="297" on="1"/>
        <pt x="353" y="311" on="1"/>
        <pt x="610" y="311" on="1"/>
        <pt x="610" y="0" on="1"/>
      </contour>
    </TTGlyph>
    <TTGlyph name="uni0047.ss04" xMin="56" yMin="-10" xMax="616" yMax="670">
      <contour>
        <pt x="616" y="294" on="1"/>
        <pt x="616" y="218" on="0"/>
        <pt x="567" y="78" on="0"/>
        <pt x="450" y="-10" on="0"/>
        <pt x="347" y="-10" on="1"/>
        <pt x="214" y="-10" on="0"/>
        <pt x="56" y="173" on="0"/>
        <pt x="56" y="330" on="1"/>
        <pt x="56" y="487" on="0"/>
        <pt x="217" y="670" on="0"/>
        <pt x="349" y="670" on="1"/>
        <pt x="556" y="670" on="0"/>
        <pt x="605" y="496" on="1"/>
        <pt x="591" y="489" on="1"/>
        <pt x="542" y="656" on="0"/>
        <pt x="349" y="656" on="1"/>
        <pt x="225" y="656" on="0"/>
        <pt x="72" y="480" on="0"/>
        <pt x="72" y="330" on="1"/>
        <pt x="72" y="180" on="0"/>
        <pt x="222" y="4" on="0"/>
        <pt x="347" y="4" on="1"/>
        <pt x="454" y="4" on="0"/>
        <pt x="563" y="102" on="0"/>
        <pt x="600" y="239" on="0"/>
        <pt x="600" y="297" on="1"/>
        <pt x="353" y="297" on="1"/>
        <pt x="353" y="311" on="1"/>
        <pt x="616" y="311" on="1"/>
      </contour>
    </TTGlyph>
    <TTGlyph name="uni0048" xMin="99" yMin="0" xMax="597" yMax="660">
      <contour>
        <pt x="581" y="0" on="1"/>
        <pt x="581" y="330" on="1"/>
        <pt x="115" y="330" on="1"/>
        <pt x="115" y="0" on="1"/>
        <pt x="99" y="0" on="1"/>
        <pt x="99" y="660" on="1"/>
        <pt x="115" y="660" on="1"/>
        <pt x="115" y="344" on="1"/>
        <pt x="581" y="344" on="1"/>
        <pt x="581" y="660" on="1"/>
        <pt x="597" y="660" on="1"/>
        <pt x="597" y="0" on="1"/>
      </contour>
    </TTGlyph>
    <TTGlyph name="uni0049" xMin="99" yMin="0" xMax="115" yMax="660">
      <contour>
        <pt x="99" y="660" on="1"/>
        <pt x="115" y="660" on="1"/>
        <pt x="115" y="0" on="1"/>
        <pt x="99" y="0" on="1"/>
      </contour>
    </TTGlyph>
    <TTGlyph name="uni004A" xMin="19" yMin="-10" xMax="406" yMax="660">
      <contour>
        <pt x="390" y="660" on="1"/>
        <pt x="406" y="660" on="1"/>
        <pt x="406" y="209" on="1"/>
        <pt x="406" y="109" on="0"/>
        <pt x="308" y="-10" on="0"/>
        <pt x="212" y="-10" on="1"/>
        <pt x="113" y="-10" on="0"/>
        <pt x="19" y="106" on="0"/>
        <pt x="32" y="200" on="1"/>
        <pt x="48" y="208" on="1"/>
        <pt x="35" y="109" on="0"/>
        <pt x="122" y="4" on="0"/>
        <pt x="212" y="4" on="1"/>
        <pt x="301" y="4" on="0"/>
        <pt x="390" y="115" on="0"/>
        <pt x="390" y="209" on="1"/>
      </contour>
    </TTGlyph>
    <TTGlyph name="uni004B" xMin="99" yMin="0" xMax="544" yMax="660">
      <contour>
        <pt x="523" y="0" on="1"/>
        <pt x="263" y="384" on="1"/>
        <pt x="115" y="234" on="1"/>
        <pt x="115" y="0" on="1"/>
        <pt x="99" y="0" on="1"/>
        <pt x="99" y="660" on="1"/>
        <pt x="115" y="660" on="1"/>
        <pt x="115" y="257" on="1"/>
        <pt x="511" y="660" on="1"/>
        <pt x="534" y="660" on="1"/>
        <pt x="275" y="396" on="1"/>
        <pt x="544" y="0" on="1"/>
      </contour>
    </TTGlyph>
    <TTGlyph name="uni004C" xMin="99" yMin="0" xMax="531" yMax="660">
      <contour>
        <pt x="99" y="0" on="1"/>
        <pt x="99" y="660" on="1"/>
        <pt x="115" y="660" on="1"/>
        <pt x="115" y="14" on="1"/>
        <pt x="531" y="14" on="1"/>
        <pt x="531" y="0" on="1"/>
      </contour>
    </TTGlyph>
    <TTGlyph name="uni004C.swsh" xMin="99" yMin="0" xMax="573" yMax="660">
      <contour>
        <pt x="99" y="0" on="1"/>
        <pt x="99" y="660" on="1"/>
        <pt x="115" y="660" on="1"/>
        <pt x="115" y="14" on="1"/>
        <pt x="395" y="14" on="1"/>
        <pt x="557" y="14" on="0"/>
        <pt x="557" y="158" on="1"/>
        <pt x="557" y="217" on="0"/>
        <pt x="494" y="287" on="0"/>
        <pt x="440" y="299" on="1"/>
        <pt x="451" y="310" on="1"/>
        <pt x="506" y="298" on="0"/>
        <pt x="573" y="223" on="0"/>
        <pt x="573" y="158" on="1"/>
        <pt x="573" y="0" on="0"/>
        <pt x="400" y="0" on="1"/>
      </contour>
    </TTGlyph>
    <TTGlyph name="uni004D" xMin="99" yMin="0" xMax="687" yMax="660">
      <contour>
        <pt x="115" y="580" on="1"/>
        <pt x="115" y="0" on="1"/>
        <pt x="99" y="0" on="1"/>
        <pt x="99" y="660" on="1"/>
        <pt x="120" y="660" on="1"/>
        <pt x="381" y="48" on="1"/>
        <pt x="393" y="19" on="1"/>
        <pt x="405" y="47" on="1"/>
        <pt x="666" y="660" on="1"/>
        <pt x="687" y="660" on="1"/>
        <pt x="687" y="0" on="1"/>
        <pt x="671" y="0" on="1"/>
        <pt x="671" y="580" on="1"/>
        <pt x="672" y="637" on="1"/>
        <pt x="403" y="0" on="1"/>
        <pt x="383" y="0" on="1"/>
        <pt x="114" y="637" on="1"/>
      </contour>
    </TTGlyph>
    <TTGlyph name="uni004D.swsh" xMin="10" yMin="-110" xMax="901" yMax="660">
      <contour>
        <pt x="886" y="637" on="1"/>
        <pt x="617" y="0" on="1"/>
        <pt x="597" y="0" on="1"/>
        <pt x="328" y="637" on="1"/>
        <pt x="329" y="580" on="1"/>
        <pt x="329" y="80" on="1"/>
        <pt x="313" y="80" on="1"/>
        <pt x="313" y="646" on="1"/>
        <pt x="188" y="646" on="1"/>
        <pt x="26" y="646" on="0"/>
        <pt x="26" y="502" on="1"/>
        <pt x="26" y="444" on="0"/>
        <pt x="89" y="373" on="0"/>
        <pt x="143" y="361" on="1"/>
        <pt x="132" y="350" on="1"/>
        <pt x="77" y="362" on="0"/>
        <pt x="10" y="438" on="0"/>
        <pt x="10" y="502" on="1"/>
        <pt x="10" y="660" on="0"/>
        <pt x="183" y="660" on="1"/>
        <pt x="334" y="660" on="1"/>
        <pt x="595" y="48" on="1"/>
        <pt x="607" y="19" on="1"/>
        <pt x="619" y="47" on="1"/>
        <pt x="880" y="660" on="1"/>
        <pt x="901" y="660" on="1"/>
        <pt x="901" y="0" on="1"/>
        <pt x="885" y="0" on="1"/>
        <pt x="885" y="580" on="1"/>
      </contour>
      <contour>
        <pt x="329" y="46" on="1"/>
        <pt x="329" y="-28" on="0"/>
        <pt x="250" y="-110" on="0"/>
        <pt x="179" y="-110" on="1"/>
        <pt x="50" y="-110" on="0"/>
        <pt x="35" y="6" on="1"/>
        <pt x="48" y="13" on="1"/>
        <pt x="63" y="-96" on="0"/>
        <pt x="179" y="-96" on="1"/>
        <pt x="242" y="-96" on="0"/>
        <pt x="313" y="-22" on="0"/>
        <pt x="313" y="43" on="1"/>
        <pt x="313" y="202" on="1"/>
        <pt x="329" y="202" on="1"/>
      </contour>
    </TTGlyph>
    <TTGlyph name="uni004D.swsh.001" xMin="10" yMin="0" xMax="901" yMax="660">
      <contour>
        <pt x="143" y="361" on="1"/>
        <pt x="132" y="350" on="1"/>
        <pt x="77" y="362" on="0"/>
        <pt x="10" y="438" on="0"/>
        <pt x="10" y="502" on="1"/>
        <pt x="10" y="660" on="0"/>
        <pt x="183" y="660" on="1"/>
        <pt x="323" y="660" on="1"/>
        <pt x="323" y="646" on="1"/>
        <pt x="188" y="646" on="1"/>
        <pt x="26" y="646" on="0"/>
        <pt x="26" y="502" on="1"/>
        <pt x="26" y="444" on="0"/>
        <pt x="89" y="373" on="0"/>
      </contour>
      <contour>
        <pt x="329" y="580" on="1"/>
        <pt x="329" y="0" on="1"/>
        <pt x="313" y="0" on="1"/>
        <pt x="313" y="660" on="1"/>
        <pt x="334" y="660" on="1"/>
        <pt x="595" y="48" on="1"/>
        <pt x="607" y="19" on="1"/>
        <pt x="619" y="47" on="1"/>
        <pt x="880" y="660" on="1"/>
        <pt x="901" y="660" on="1"/>
        <pt x="901" y="0" on="1"/>
        <pt x="885" y="0" on="1"/>
        <pt x="885" y="580" on="1"/>
        <pt x="886" y="637" on="1"/>
        <pt x="617" y="0" on="1"/>
        <pt x="597" y="0" on="1"/>
        <pt x="328" y="637" on="1"/>
      </contour>
    </TTGlyph>
    <TTGlyph name="uni004E" xMin="99" yMin="0" xMax="595" yMax="660">
      <contour>
        <pt x="115" y="587" on="1"/>
        <pt x="115" y="0" on="1"/>
        <pt x="99" y="0" on="1"/>
        <pt x="99" y="660" on="1"/>
        <pt x="121" y="660" on="1"/>
        <pt x="554" y="55" on="1"/>
        <pt x="580" y="16" on="1"/>
        <pt x="579" y="73" on="1"/>
        <pt x="579" y="660" on="1"/>
        <pt x="595" y="660" on="1"/>
        <pt x="595" y="0" on="1"/>
        <pt x="573" y="0" on="1"/>
        <pt x="140" y="605" on="1"/>
        <pt x="114" y="644" on="1"/>
      </contour>
    </TTGlyph>
    <TTGlyph name="uni004E.swsh" xMin="99" yMin="0" xMax="873" yMax="735">
      <contour>
        <pt x="115" y="587" on="1"/>
        <pt x="115" y="0" on="1"/>
        <pt x="99" y="0" on="1"/>
        <pt x="99" y="660" on="1"/>
        <pt x="121" y="660" on="1"/>
        <pt x="554" y="55" on="1"/>
        <pt x="580" y="16" on="1"/>
        <pt x="579" y="73" on="1"/>
        <pt x="579" y="559" on="1"/>
        <pt x="579" y="648" on="0"/>
        <pt x="659" y="735" on="0"/>
        <pt x="729" y="735" on="1"/>
        <pt x="858" y="735" on="0"/>
        <pt x="873" y="619" on="1"/>
        <pt x="860" y="612" on="1"/>
        <pt x="845" y="721" on="0"/>
        <pt x="729" y="721" on="1"/>
        <pt x="595" y="721" on="0"/>
        <pt x="595" y="562" on="1"/>
        <pt x="595" y="0" on="1"/>
        <pt x="573" y="0" on="1"/>
        <pt x="140" y="605" on="1"/>
        <pt x="114" y="644" on="1"/>
      </contour>
    </TTGlyph>
    <TTGlyph name="uni004F" xMin="56" yMin="-10" xMax="658" yMax="670">
      <contour>
        <pt x="56" y="330" on="1"/>
        <pt x="56" y="487" on="0"/>
        <pt x="218" y="670" on="0"/>
        <pt x="357" y="670" on="1"/>
        <pt x="496" y="670" on="0"/>
        <pt x="658" y="487" on="0"/>
        <pt x="658" y="330" on="1"/>
        <pt x="658" y="173" on="0"/>
        <pt x="496" y="-10" on="0"/>
        <pt x="357" y="-10" on="1"/>
        <pt x="218" y="-10" on="0"/>
        <pt x="56" y="173" on="0"/>
      </contour>
      <contour>
        <pt x="642" y="330" on="1"/>
        <pt x="642" y="480" on="0"/>
        <pt x="488" y="656" on="0"/>
        <pt x="357" y="656" on="1"/>
        <pt x="226" y="656" on="0"/>
        <pt x="72" y="480" on="0"/>
        <pt x="72" y="330" on="1"/>
        <pt x="72" y="180" on="0"/>
        <pt x="226" y="4" on="0"/>
        <pt x="357" y="4" on="1"/>
        <pt x="488" y="4" on="0"/>
        <pt x="642" y="180" on="0"/>
      </contour>
    </TTGlyph>
    <TTGlyph name="uni0050" xMin="99" yMin="0" xMax="528" yMax="660">
      <contour>
        <pt x="303" y="646" on="1"/>
        <pt x="115" y="646" on="1"/>
        <pt x="115" y="305" on="1"/>
        <pt x="303" y="305" on="1"/>
        <pt x="401" y="305" on="0"/>
        <pt x="512" y="395" on="0"/>
        <pt x="512" y="475" on="1"/>
        <pt x="512" y="555" on="0"/>
        <pt x="401" y="646" on="0"/>
      </contour>
      <contour>
        <pt x="303" y="291" on="1"/>
        <pt x="115" y="291" on="1"/>
        <pt x="115" y="0" on="1"/>
        <pt x="99" y="0" on="1"/>
        <pt x="99" y="660" on="1"/>
        <pt x="303" y="660" on="1"/>
        <pt x="409" y="660" on="0"/>
        <pt x="528" y="562" on="0"/>
        <pt x="528" y="475" on="1"/>
        <pt x="528" y="388" on="0"/>
        <pt x="409" y="291" on="0"/>
      </contour>
    </TTGlyph>
    <TTGlyph name="uni0051" xMin="56" yMin="-195" xMax="658" yMax="670">
      <contour>
        <pt x="356" y="-4" on="1"/>
        <pt x="370" y="-4" on="1"/>
        <pt x="374" y="-91" on="0"/>
        <pt x="465" y="-181" on="0"/>
        <pt x="536" y="-181" on="1"/>
        <pt x="565" y="-181" on="0"/>
        <pt x="621" y="-164" on="0"/>
        <pt x="640" y="-144" on="1"/>
        <pt x="648" y="-157" on="1"/>
        <pt x="608" y="-195" on="0"/>
        <pt x="536" y="-195" on="1"/>
        <pt x="460" y="-195" on="0"/>
        <pt x="360" y="-96" on="0"/>
      </contour>
      <contour>
        <pt x="56" y="330" on="1"/>
        <pt x="56" y="487" on="0"/>
        <pt x="218" y="670" on="0"/>
        <pt x="357" y="670" on="1"/>
        <pt x="496" y="670" on="0"/>
        <pt x="658" y="487" on="0"/>
        <pt x="658" y="330" on="1"/>
        <pt x="658" y="173" on="0"/>
        <pt x="496" y="-10" on="0"/>
        <pt x="357" y="-10" on="1"/>
        <pt x="218" y="-10" on="0"/>
        <pt x="56" y="173" on="0"/>
      </contour>
      <contour>
        <pt x="642" y="330" on="1"/>
        <pt x="642" y="480" on="0"/>
        <pt x="488" y="656" on="0"/>
        <pt x="357" y="656" on="1"/>
        <pt x="226" y="656" on="0"/>
        <pt x="72" y="480" on="0"/>
        <pt x="72" y="330" on="1"/>
        <pt x="72" y="180" on="0"/>
        <pt x="226" y="4" on="0"/>
        <pt x="357" y="4" on="1"/>
        <pt x="488" y="4" on="0"/>
        <pt x="642" y="180" on="0"/>
      </contour>
    </TTGlyph>
    <TTGlyph name="uni0052" xMin="99" yMin="0" xMax="576" yMax="660">
      <contour>
        <pt x="338" y="646" on="1"/>
        <pt x="115" y="646" on="1"/>
        <pt x="115" y="314" on="1"/>
        <pt x="338" y="314" on="1"/>
        <pt x="429" y="314" on="0"/>
        <pt x="531" y="402" on="0"/>
        <pt x="531" y="480" on="1"/>
        <pt x="531" y="558" on="0"/>
        <pt x="429" y="646" on="0"/>
      </contour>
      <contour>
        <pt x="338" y="300" on="1"/>
        <pt x="115" y="300" on="1"/>
        <pt x="115" y="0" on="1"/>
        <pt x="99" y="0" on="1"/>
        <pt x="99" y="660" on="1"/>
        <pt x="338" y="660" on="1"/>
        <pt x="435" y="660" on="0"/>
        <pt x="547" y="564" on="0"/>
        <pt x="547" y="480" on="1"/>
        <pt x="547" y="405" on="0"/>
        <pt x="456" y="312" on="0"/>
        <pt x="377" y="302" on="1"/>
        <pt x="576" y="0" on="1"/>
        <pt x="558" y="0" on="1"/>
        <pt x="358" y="301" on="1"/>
        <pt x="348" y="300" on="0"/>
      </contour>
    </TTGlyph>
    <TTGlyph name="uni0052.ss03" xMin="99" yMin="0" xMax="557" yMax="660">
      <contour>
        <pt x="115" y="646" on="1"/>
        <pt x="115" y="314" on="1"/>
        <pt x="338" y="314" on="1"/>
        <pt x="429" y="314" on="0"/>
        <pt x="531" y="402" on="0"/>
        <pt x="531" y="480" on="1"/>
        <pt x="531" y="558" on="0"/>
        <pt x="429" y="646" on="0"/>
        <pt x="338" y="646" on="1"/>
      </contour>
      <contour>
        <pt x="115" y="0" on="1"/>
        <pt x="99" y="0" on="1"/>
        <pt x="99" y="660" on="1"/>
        <pt x="338" y="660" on="1"/>
        <pt x="435" y="660" on="0"/>
        <pt x="547" y="564" on="0"/>
        <pt x="547" y="480" on="1"/>
        <pt x="547" y="408" on="0"/>
        <pt x="465" y="319" on="0"/>
        <pt x="399" y="309" on="1"/>
        <pt x="399" y="308" on="1"/>
        <pt x="528" y="289" on="0"/>
        <pt x="531" y="160" on="1"/>
        <pt x="534" y="57" on="0"/>
        <pt x="550" y="11" on="0"/>
        <pt x="557" y="2" on="1"/>
        <pt x="557" y="0" on="1"/>
        <pt x="539" y="0" on="1"/>
        <pt x="533" y="11" on="0"/>
        <pt x="517" y="66" on="0"/>
        <pt x="515" y="157" on="1"/>
        <pt x="514" y="223" on="0"/>
        <pt x="432" y="300" on="0"/>
        <pt x="351" y="300" on="1"/>
        <pt x="115" y="300" on="1"/>
      </contour>
    </TTGlyph>
    <TTGlyph name="uni0052.swsh" xMin="10" yMin="-110" xMax="790" yMax="660">
      <contour>
        <pt x="552" y="646" on="1"/>
        <pt x="329" y="646" on="1"/>
        <pt x="329" y="314" on="1"/>
        <pt x="552" y="314" on="1"/>
        <pt x="643" y="314" on="0"/>
        <pt x="745" y="402" on="0"/>
        <pt x="745" y="480" on="1"/>
        <pt x="745" y="558" on="0"/>
        <pt x="643" y="646" on="0"/>
      </contour>
      <contour>
        <pt x="179" y="-110" on="1"/>
        <pt x="112" y="-110" on="0"/>
        <pt x="35" y="-38" on="0"/>
        <pt x="35" y="26" on="1"/>
        <pt x="48" y="33" on="1"/>
        <pt x="48" y="-28" on="0"/>
        <pt x="118" y="-96" on="0"/>
        <pt x="179" y="-96" on="1"/>
        <pt x="242" y="-96" on="0"/>
        <pt x="313" y="-22" on="0"/>
        <pt x="313" y="43" on="1"/>
        <pt x="313" y="660" on="1"/>
        <pt x="552" y="660" on="1"/>
        <pt x="649" y="660" on="0"/>
        <pt x="761" y="564" on="0"/>
        <pt x="761" y="480" on="1"/>
        <pt x="761" y="405" on="0"/>
        <pt x="670" y="312" on="0"/>
        <pt x="591" y="302" on="1"/>
        <pt x="790" y="0" on="1"/>
        <pt x="772" y="0" on="1"/>
        <pt x="572" y="301" on="1"/>
        <pt x="562" y="300" on="0"/>
        <pt x="552" y="300" on="1"/>
        <pt x="329" y="300" on="1"/>
        <pt x="329" y="46" on="1"/>
        <pt x="329" y="-28" on="0"/>
        <pt x="250" y="-110" on="0"/>
      </contour>
      <contour>
        <pt x="143" y="361" on="1"/>
        <pt x="132" y="350" on="1"/>
        <pt x="77" y="362" on="0"/>
        <pt x="10" y="438" on="0"/>
        <pt x="10" y="502" on="1"/>
        <pt x="10" y="660" on="0"/>
        <pt x="183" y="660" on="1"/>
        <pt x="433" y="660" on="1"/>
        <pt x="433" y="646" on="1"/>
        <pt x="188" y="646" on="1"/>
        <pt x="26" y="646" on="0"/>
        <pt x="26" y="502" on="1"/>
        <pt x="26" y="444" on="0"/>
        <pt x="89" y="373" on="0"/>
      </contour>
    </TTGlyph>
    <TTGlyph name="uni0052.swsh.001" xMin="99" yMin="-104" xMax="664" yMax="660">
      <contour>
        <pt x="657" y="-104" on="1"/>
        <pt x="617" y="-94" on="0"/>
        <pt x="567" y="-51" on="0"/>
        <pt x="552" y="-29" on="1"/>
        <pt x="329" y="300" on="1"/>
        <pt x="115" y="300" on="1"/>
        <pt x="115" y="0" on="1"/>
        <pt x="99" y="0" on="1"/>
        <pt x="99" y="660" on="1"/>
        <pt x="338" y="660" on="1"/>
        <pt x="435" y="660" on="0"/>
        <pt x="547" y="564" on="0"/>
        <pt x="547" y="480" on="1"/>
        <pt x="547" y="398" on="0"/>
        <pt x="440" y="302" on="0"/>
        <pt x="347" y="300" on="1"/>
        <pt x="568" y="-24" on="1"/>
        <pt x="582" y="-44" on="0"/>
        <pt x="630" y="-85" on="0"/>
        <pt x="664" y="-92" on="1"/>
      </contour>
      <contour>
        <pt x="338" y="646" on="1"/>
        <pt x="115" y="646" on="1"/>
        <pt x="115" y="314" on="1"/>
        <pt x="338" y="314" on="1"/>
        <pt x="429" y="314" on="0"/>
        <pt x="531" y="402" on="0"/>
        <pt x="531" y="480" on="1"/>
        <pt x="531" y="558" on="0"/>
        <pt x="429" y="646" on="0"/>
      </contour>
    </TTGlyph>
    <TTGlyph name="uni0053" xMin="42" yMin="-10" xMax="548" yMax="670">
      <contour>
        <pt x="60" y="492" on="1"/>
        <pt x="60" y="563" on="0"/>
        <pt x="184" y="670" on="0"/>
        <pt x="295" y="670" on="1"/>
        <pt x="389" y="670" on="0"/>
        <pt x="513" y="597" on="0"/>
        <pt x="536" y="517" on="1"/>
        <pt x="523" y="507" on="1"/>
        <pt x="503" y="584" on="0"/>
        <pt x="385" y="656" on="0"/>
        <pt x="295" y="656" on="1"/>
        <pt x="195" y="656" on="0"/>
        <pt x="76" y="561" on="0"/>
        <pt x="76" y="492" on="1"/>
        <pt x="76" y="428" on="0"/>
        <pt x="177" y="355" on="0"/>
        <pt x="316" y="331" on="1"/>
        <pt x="444" y="309" on="0"/>
        <pt x="548" y="231" on="0"/>
        <pt x="548" y="160" on="1"/>
        <pt x="548" y="85" on="0"/>
        <pt x="415" y="-10" on="0"/>
        <pt x="309" y="-10" on="1"/>
        <pt x="206" y="-10" on="0"/>
        <pt x="59" y="75" on="0"/>
        <pt x="42" y="166" on="1"/>
        <pt x="57" y="174" on="1"/>
        <pt x="71" y="86" on="0"/>
        <pt x="212" y="4" on="0"/>
        <pt x="309" y="4" on="1"/>
        <pt x="402" y="4" on="0"/>
        <pt x="532" y="85" on="0"/>
        <pt x="532" y="160" on="1"/>
        <pt x="532" y="222" on="0"/>
        <pt x="435" y="295" on="0"/>
        <pt x="313" y="315" on="1"/>
        <pt x="169" y="339" on="0"/>
        <pt x="60" y="419" on="0"/>
      </contour>
    </TTGlyph>
    <TTGlyph name="uni0053.swsh" xMin="75" yMin="-110" xMax="548" yMax="670">
      <contour>
        <pt x="548" y="76" on="1"/>
        <pt x="548" y="-10" on="0"/>
        <pt x="420" y="-110" on="0"/>
        <pt x="309" y="-110" on="1"/>
        <pt x="199" y="-110" on="0"/>
        <pt x="75" y="-20" on="0"/>
        <pt x="75" y="61" on="1"/>
        <pt x="75" y="88" on="0"/>
        <pt x="84" y="124" on="1"/>
        <pt x="99" y="129" on="1"/>
        <pt x="90" y="96" on="0"/>
        <pt x="90" y="63" on="1"/>
        <pt x="90" y="-13" on="0"/>
        <pt x="205" y="-96" on="0"/>
        <pt x="309" y="-96" on="1"/>
        <pt x="414" y="-96" on="0"/>
        <pt x="532" y="-5" on="0"/>
        <pt x="532" y="76" on="1"/>
        <pt x="532" y="141" on="0"/>
        <pt x="437" y="227" on="0"/>
        <pt x="318" y="264" on="1"/>
        <pt x="191" y="304" on="0"/>
        <pt x="90" y="399" on="0"/>
        <pt x="90" y="472" on="1"/>
        <pt x="90" y="563" on="0"/>
        <pt x="206" y="670" on="0"/>
        <pt x="305" y="670" on="1"/>
        <pt x="539" y="670" on="0"/>
        <pt x="525" y="474" on="1"/>
        <pt x="511" y="467" on="1"/>
        <pt x="526" y="656" on="0"/>
        <pt x="305" y="656" on="1"/>
        <pt x="212" y="656" on="0"/>
        <pt x="106" y="558" on="0"/>
        <pt x="106" y="472" on="1"/>
        <pt x="106" y="405" on="0"/>
        <pt x="201" y="317" on="0"/>
        <pt x="325" y="277" on="1"/>
        <pt x="450" y="237" on="0"/>
        <pt x="548" y="147" on="0"/>
      </contour>
    </TTGlyph>
    <TTGlyph name="uni0054" xMin="11" yMin="0" xMax="533" yMax="660">
      <contour>
        <pt x="533" y="646" on="1"/>
        <pt x="280" y="646" on="1"/>
        <pt x="280" y="0" on="1"/>
        <pt x="264" y="0" on="1"/>
        <pt x="264" y="646" on="1"/>
        <pt x="11" y="646" on="1"/>
        <pt x="11" y="660" on="1"/>
        <pt x="533" y="660" on="1"/>
      </contour>
    </TTGlyph>
    <TTGlyph name="uni0054.swsh" xMin="10" yMin="0" xMax="609" yMax="660">
      <contour>
        <pt x="609" y="646" on="1"/>
        <pt x="356" y="646" on="1"/>
        <pt x="356" y="0" on="1"/>
        <pt x="340" y="0" on="1"/>
        <pt x="340" y="646" on="1"/>
        <pt x="188" y="646" on="1"/>
        <pt x="26" y="646" on="0"/>
        <pt x="26" y="502" on="1"/>
        <pt x="26" y="444" on="0"/>
        <pt x="89" y="373" on="0"/>
        <pt x="143" y="361" on="1"/>
        <pt x="132" y="350" on="1"/>
        <pt x="77" y="362" on="0"/>
        <pt x="10" y="438" on="0"/>
        <pt x="10" y="502" on="1"/>
        <pt x="10" y="660" on="0"/>
        <pt x="183" y="660" on="1"/>
        <pt x="609" y="660" on="1"/>
      </contour>
    </TTGlyph>
    <TTGlyph name="uni0055" xMin="91" yMin="-10" xMax="589" yMax="660">
      <contour>
        <pt x="573" y="660" on="1"/>
        <pt x="589" y="660" on="1"/>
        <pt x="589" y="235" on="1"/>
        <pt x="589" y="117" on="0"/>
        <pt x="457" y="-10" on="0"/>
        <pt x="340" y="-10" on="1"/>
        <pt x="223" y="-10" on="0"/>
        <pt x="91" y="117" on="0"/>
        <pt x="91" y="235" on="1"/>
        <pt x="91" y="660" on="1"/>
        <pt x="107" y="660" on="1"/>
        <pt x="107" y="235" on="1"/>
        <pt x="107" y="125" on="0"/>
        <pt x="231" y="4" on="0"/>
        <pt x="340" y="4" on="1"/>
        <pt x="450" y="4" on="0"/>
        <pt x="573" y="125" on="0"/>
        <pt x="573" y="235" on="1"/>
      </contour>
    </TTGlyph>
    <TTGlyph name="uni0056" xMin="17" yMin="0" xMax="559" yMax="660">
      <contour>
        <pt x="542" y="660" on="1"/>
        <pt x="559" y="660" on="1"/>
        <pt x="299" y="0" on="1"/>
        <pt x="277" y="0" on="1"/>
        <pt x="17" y="660" on="1"/>
        <pt x="34" y="660" on="1"/>
        <pt x="261" y="87" on="1"/>
        <pt x="288" y="18" on="1"/>
        <pt x="315" y="87" on="1"/>
      </contour>
    </TTGlyph>
    <TTGlyph name="uni0057" xMin="23" yMin="0" xMax="886" yMax="660">
      <contour>
        <pt x="454" y="638" on="1"/>
        <pt x="414" y="502" on="1"/>
        <pt x="262" y="0" on="1"/>
        <pt x="241" y="0" on="1"/>
        <pt x="23" y="660" on="1"/>
        <pt x="40" y="660" on="1"/>
        <pt x="252" y="16" on="1"/>
        <pt x="444" y="660" on="1"/>
        <pt x="465" y="660" on="1"/>
        <pt x="657" y="16" on="1"/>
        <pt x="869" y="660" on="1"/>
        <pt x="886" y="660" on="1"/>
        <pt x="668" y="0" on="1"/>
        <pt x="647" y="0" on="1"/>
        <pt x="496" y="502" on="1"/>
        <pt x="455" y="638" on="1"/>
      </contour>
    </TTGlyph>
    <TTGlyph name="uni0057.swsh" xMin="10" yMin="0" xMax="1086" yMax="660">
      <contour>
        <pt x="143" y="361" on="1"/>
        <pt x="132" y="350" on="1"/>
        <pt x="77" y="362" on="0"/>
        <pt x="10" y="438" on="0"/>
        <pt x="10" y="502" on="1"/>
        <pt x="10" y="660" on="0"/>
        <pt x="183" y="660" on="1"/>
        <pt x="233" y="660" on="1"/>
        <pt x="233" y="646" on="1"/>
        <pt x="188" y="646" on="1"/>
        <pt x="26" y="646" on="0"/>
        <pt x="26" y="502" on="1"/>
        <pt x="26" y="444" on="0"/>
        <pt x="89" y="373" on="0"/>
      </contour>
      <contour>
        <pt x="654" y="638" on="1"/>
        <pt x="614" y="502" on="1"/>
        <pt x="462" y="0" on="1"/>
        <pt x="441" y="0" on="1"/>
        <pt x="223" y="660" on="1"/>
        <pt x="240" y="660" on="1"/>
        <pt x="452" y="16" on="1"/>
        <pt x="644" y="660" on="1"/>
        <pt x="665" y="660" on="1"/>
        <pt x="857" y="16" on="1"/>
        <pt x="1069" y="660" on="1"/>
        <pt x="1086" y="660" on="1"/>
        <pt x="868" y="0" on="1"/>
        <pt x="847" y="0" on="1"/>
        <pt x="696" y="502" on="1"/>
        <pt x="655" y="638" on="1"/>
      </contour>
    </TTGlyph>
    <TTGlyph name="uni0058" xMin="12" yMin="0" xMax="509" yMax="660">
      <contour>
        <pt x="489" y="0" on="1"/>
        <pt x="263" y="326" on="1"/>
        <pt x="33" y="0" on="1"/>
        <pt x="12" y="0" on="1"/>
        <pt x="253" y="342" on="1"/>
        <pt x="33" y="660" on="1"/>
        <pt x="53" y="660" on="1"/>
        <pt x="263" y="356" on="1"/>
        <pt x="478" y="660" on="1"/>
        <pt x="500" y="660" on="1"/>
        <pt x="274" y="340" on="1"/>
        <pt x="509" y="0" on="1"/>
      </contour>
    </TTGlyph>
    <TTGlyph name="uni0059" xMin="16" yMin="0" xMax="496" yMax="660">
      <contour>
        <pt x="477" y="660" on="1"/>
        <pt x="496" y="660" on="1"/>
        <pt x="264" y="256" on="1"/>
        <pt x="264" y="0" on="1"/>
        <pt x="248" y="0" on="1"/>
        <pt x="248" y="256" on="1"/>
        <pt x="16" y="660" on="1"/>
        <pt x="35" y="660" on="1"/>
        <pt x="164" y="434" on="1"/>
        <pt x="256" y="273" on="1"/>
        <pt x="348" y="434" on="1"/>
      </contour>
    </TTGlyph>
    <TTGlyph name="uni005A" xMin="29" yMin="0" xMax="528" yMax="660">
      <contour>
        <pt x="528" y="0" on="1"/>
        <pt x="29" y="0" on="1"/>
        <pt x="29" y="14" on="1"/>
        <pt x="490" y="646" on="1"/>
        <pt x="36" y="646" on="1"/>
        <pt x="36" y="660" on="1"/>
        <pt x="508" y="660" on="1"/>
        <pt x="508" y="646" on="1"/>
        <pt x="47" y="14" on="1"/>
        <pt x="528" y="14" on="1"/>
      </contour>
    </TTGlyph>
    <TTGlyph name="uni005B" xMin="76" yMin="-168" xMax="257" yMax="730">
      <contour>
        <pt x="76" y="-168" on="1"/>
        <pt x="76" y="730" on="1"/>
        <pt x="257" y="730" on="1"/>
        <pt x="257" y="716" on="1"/>
        <pt x="91" y="716" on="1"/>
        <pt x="91" y="-154" on="1"/>
        <pt x="257" y="-154" on="1"/>
        <pt x="257" y="-168" on="1"/>
      </contour>
    </TTGlyph>
    <TTGlyph name="uni005B.case" xMin="76" yMin="-97" xMax="257" yMax="752">
      <contour>
        <pt x="76" y="-97" on="1"/>
        <pt x="76" y="752" on="1"/>
        <pt x="257" y="752" on="1"/>
        <pt x="257" y="738" on="1"/>
        <pt x="91" y="738" on="1"/>
        <pt x="91" y="-83" on="1"/>
        <pt x="257" y="-83" on="1"/>
        <pt x="257" y="-97" on="1"/>
      </contour>
    </TTGlyph>
    <TTGlyph name="uni005C" xMin="36" yMin="-70" xMax="314" yMax="730">
      <component glyphName="uni002F" x="349" y="0" scalex="-1.0" scaley="1.0" flags="0x4"/>
    </TTGlyph>
    <TTGlyph name="uni005D" xMin="11" yMin="-168" xMax="192" yMax="730">
      <component glyphName="uni005B" x="268" y="0" scalex="-1.0" scaley="1.0" flags="0x4"/>
    </TTGlyph>
    <TTGlyph name="uni005D.case" xMin="11" yMin="-97" xMax="192" yMax="752">
      <component glyphName="uni005B.case" x="268" y="0" scalex="-1.0" scaley="1.0" flags="0x4"/>
    </TTGlyph>
    <TTGlyph name="uni005E" xMin="37" yMin="355" xMax="496" yMax="730">
      <contour>
        <pt x="477" y="355" on="1"/>
        <pt x="267" y="714" on="1"/>
        <pt x="56" y="355" on="1"/>
        <pt x="37" y="355" on="1"/>
        <pt x="257" y="730" on="1"/>
        <pt x="276" y="730" on="1"/>
        <pt x="496" y="355" on="1"/>
      </contour>
    </TTGlyph>
    <TTGlyph name="uni005F" xMin="0" yMin="-111" xMax="499" yMax="-97">
      <contour>
        <pt x="0" y="-97" on="1"/>
        <pt x="499" y="-97" on="1"/>
        <pt x="499" y="-111" on="1"/>
        <pt x="0" y="-111" on="1"/>
      </contour>
    </TTGlyph>
    <TTGlyph name="uni0060" xMin="152" yMin="583" xMax="255" yMax="730">
      <contour>
        <pt x="152" y="730" on="1"/>
        <pt x="170" y="730" on="1"/>
        <pt x="255" y="583" on="1"/>
        <pt x="240" y="583" on="1"/>
      </contour>
    </TTGlyph>
    <TTGlyph name="uni0061" xMin="46" yMin="-10" xMax="516" yMax="510">
      <contour>
        <pt x="479" y="-10" on="1"/>
        <pt x="456" y="-10" on="0"/>
        <pt x="407" y="24" on="0"/>
        <pt x="407" y="82" on="1"/>
        <pt x="407" y="96" on="1"/>
        <pt x="386" y="41" on="0"/>
        <pt x="264" y="-10" on="0"/>
        <pt x="202" y="-10" on="1"/>
        <pt x="129" y="-10" on="0"/>
        <pt x="46" y="53" on="0"/>
        <pt x="46" y="108" on="1"/>
        <pt x="46" y="167" on="0"/>
        <pt x="133" y="235" on="0"/>
        <pt x="230" y="253" on="1"/>
        <pt x="407" y="286" on="1"/>
        <pt x="407" y="348" on="1"/>
        <pt x="407" y="418" on="0"/>
        <pt x="325" y="496" on="0"/>
        <pt x="248" y="496" on="1"/>
        <pt x="180" y="496" on="0"/>
        <pt x="92" y="441" on="0"/>
        <pt x="69" y="378" on="1"/>
        <pt x="56" y="388" on="1"/>
        <pt x="102" y="510" on="0"/>
        <pt x="248" y="510" on="1"/>
        <pt x="423" y="510" on="0"/>
        <pt x="423" y="348" on="1"/>
        <pt x="423" y="76" on="1"/>
        <pt x="423" y="4" on="0"/>
        <pt x="478" y="4" on="1"/>
        <pt x="504" y="4" on="0"/>
        <pt x="516" y="13" on="1"/>
        <pt x="515" y="-1" on="1"/>
        <pt x="502" y="-10" on="0"/>
      </contour>
      <contour>
        <pt x="207" y="4" on="1"/>
        <pt x="246" y="4" on="0"/>
        <pt x="340" y="34" on="0"/>
        <pt x="407" y="99" on="0"/>
        <pt x="407" y="151" on="1"/>
        <pt x="407" y="272" on="1"/>
        <pt x="241" y="241" on="1"/>
        <pt x="143" y="223" on="0"/>
        <pt x="62" y="158" on="0"/>
        <pt x="62" y="108" on="1"/>
        <pt x="62" y="59" on="0"/>
        <pt x="139" y="4" on="0"/>
      </contour>
    </TTGlyph>
    <TTGlyph name="uni0061.sc" xMin="14" yMin="0" xMax="510" yMax="560">
      <contour>
        <pt x="247" y="503" on="1"/>
        <pt x="122" y="211" on="1"/>
        <pt x="402" y="211" on="1"/>
        <pt x="277" y="503" on="1"/>
        <pt x="262" y="543" on="1"/>
      </contour>
      <contour>
        <pt x="493" y="0" on="1"/>
        <pt x="408" y="197" on="1"/>
        <pt x="116" y="197" on="1"/>
        <pt x="31" y="0" on="1"/>
        <pt x="14" y="0" on="1"/>
        <pt x="253" y="560" on="1"/>
        <pt x="271" y="560" on="1"/>
        <pt x="510" y="0" on="1"/>
      </contour>
    </TTGlyph>
    <TTGlyph name="uni0062" xMin="85" yMin="-10" xMax="534" yMax="730">
      <contour>
        <pt x="101" y="0" on="1"/>
        <pt x="85" y="0" on="1"/>
        <pt x="85" y="730" on="1"/>
        <pt x="101" y="730" on="1"/>
      </contour>
      <contour>
        <pt x="534" y="250" on="1"/>
        <pt x="534" y="372" on="0"/>
        <pt x="413" y="510" on="0"/>
        <pt x="305" y="510" on="1"/>
        <pt x="208" y="510" on="0"/>
        <pt x="91" y="382" on="0"/>
        <pt x="91" y="267" on="1"/>
        <pt x="101" y="253" on="1"/>
        <pt x="101" y="366" on="0"/>
        <pt x="211" y="496" on="0"/>
        <pt x="302" y="496" on="1"/>
        <pt x="404" y="496" on="0"/>
        <pt x="518" y="366" on="0"/>
        <pt x="518" y="250" on="1"/>
        <pt x="518" y="134" on="0"/>
        <pt x="404" y="4" on="0"/>
        <pt x="302" y="4" on="1"/>
        <pt x="211" y="4" on="0"/>
        <pt x="101" y="133" on="0"/>
        <pt x="101" y="246" on="1"/>
        <pt x="92" y="230" on="1"/>
        <pt x="92" y="117" on="0"/>
        <pt x="208" y="-10" on="0"/>
        <pt x="305" y="-10" on="1"/>
        <pt x="413" y="-10" on="0"/>
        <pt x="534" y="128" on="0"/>
      </contour>
    </TTGlyph>
    <TTGlyph name="uni0062.sc" xMin="90" yMin="0" xMax="490" yMax="560">
      <contour>
        <pt x="295" y="0" on="1"/>
        <pt x="90" y="0" on="1"/>
        <pt x="90" y="560" on="1"/>
        <pt x="295" y="560" on="1"/>
        <pt x="473" y="560" on="0"/>
        <pt x="473" y="418" on="1"/>
        <pt x="473" y="300" on="0"/>
        <pt x="358" y="283" on="1"/>
        <pt x="358" y="282" on="1"/>
        <pt x="490" y="265" on="0"/>
        <pt x="490" y="144" on="1"/>
        <pt x="490" y="0" on="0"/>
      </contour>
      <contour>
        <pt x="106" y="546" on="1"/>
        <pt x="106" y="289" on="1"/>
        <pt x="295" y="289" on="1"/>
        <pt x="457" y="289" on="0"/>
        <pt x="457" y="417" on="1"/>
        <pt x="457" y="546" on="0"/>
        <pt x="295" y="546" on="1"/>
      </contour>
      <contour>
        <pt x="106" y="275" on="1"/>
        <pt x="106" y="14" on="1"/>
        <pt x="295" y="14" on="1"/>
        <pt x="474" y="14" on="0"/>
        <pt x="474" y="145" on="1"/>
        <pt x="474" y="275" on="0"/>
        <pt x="295" y="275" on="1"/>
      </contour>
    </TTGlyph>
    <TTGlyph name="uni0063" xMin="51" yMin="-10" xMax="482" yMax="510">
      <contour>
        <pt x="51" y="250" on="1"/>
        <pt x="51" y="372" on="0"/>
        <pt x="172" y="510" on="0"/>
        <pt x="281" y="510" on="1"/>
        <pt x="355" y="510" on="0"/>
        <pt x="460" y="439" on="0"/>
        <pt x="478" y="373" on="1"/>
        <pt x="464" y="366" on="1"/>
        <pt x="430" y="496" on="0"/>
        <pt x="281" y="496" on="1"/>
        <pt x="180" y="496" on="0"/>
        <pt x="67" y="365" on="0"/>
        <pt x="67" y="250" on="1"/>
        <pt x="67" y="135" on="0"/>
        <pt x="177" y="4" on="0"/>
        <pt x="278" y="4" on="1"/>
        <pt x="348" y="4" on="0"/>
        <pt x="458" y="78" on="0"/>
        <pt x="468" y="142" on="1"/>
        <pt x="482" y="137" on="1"/>
        <pt x="469" y="70" on="0"/>
        <pt x="354" y="-10" on="0"/>
        <pt x="278" y="-10" on="1"/>
        <pt x="169" y="-10" on="0"/>
        <pt x="51" y="129" on="0"/>
      </contour>
    </TTGlyph>
    <TTGlyph name="uni0063.sc" xMin="52" yMin="-8" xMax="540" yMax="568">
      <contour>
        <pt x="525" y="146" on="1"/>
        <pt x="540" y="140" on="1"/>
        <pt x="518" y="70" on="0"/>
        <pt x="398" y="-8" on="0"/>
        <pt x="310" y="-8" on="1"/>
        <pt x="195" y="-8" on="0"/>
        <pt x="52" y="147" on="0"/>
        <pt x="52" y="280" on="1"/>
        <pt x="52" y="413" on="0"/>
        <pt x="194" y="568" on="0"/>
        <pt x="310" y="568" on="1"/>
        <pt x="491" y="568" on="0"/>
        <pt x="536" y="421" on="1"/>
        <pt x="521" y="414" on="1"/>
        <pt x="478" y="554" on="0"/>
        <pt x="310" y="554" on="1"/>
        <pt x="201" y="554" on="0"/>
        <pt x="68" y="406" on="0"/>
        <pt x="68" y="280" on="1"/>
        <pt x="68" y="153" on="0"/>
        <pt x="202" y="6" on="0"/>
        <pt x="310" y="6" on="1"/>
        <pt x="483" y="6" on="0"/>
      </contour>
    </TTGlyph>
    <TTGlyph name="uni00630074" xMin="51" yMin="-10" xMax="821" yMax="735">
      <contour>
        <pt x="725" y="-10" on="1"/>
        <pt x="605" y="-10" on="0"/>
        <pt x="605" y="126" on="1"/>
        <pt x="605" y="582" on="1"/>
        <pt x="605" y="721" on="0"/>
        <pt x="507" y="721" on="1"/>
        <pt x="467" y="721" on="0"/>
        <pt x="410" y="665" on="0"/>
        <pt x="410" y="592" on="1"/>
        <pt x="410" y="555" on="0"/>
        <pt x="441" y="458" on="0"/>
        <pt x="479" y="373" on="1"/>
        <pt x="464" y="366" on="1"/>
        <pt x="430" y="496" on="0"/>
        <pt x="281" y="496" on="1"/>
        <pt x="180" y="496" on="0"/>
        <pt x="67" y="365" on="0"/>
        <pt x="67" y="250" on="1"/>
        <pt x="67" y="135" on="0"/>
        <pt x="177" y="4" on="0"/>
        <pt x="278" y="4" on="1"/>
        <pt x="348" y="4" on="0"/>
        <pt x="458" y="78" on="0"/>
        <pt x="468" y="142" on="1"/>
        <pt x="482" y="137" on="1"/>
        <pt x="469" y="70" on="0"/>
        <pt x="354" y="-10" on="0"/>
        <pt x="278" y="-10" on="1"/>
        <pt x="169" y="-10" on="0"/>
        <pt x="51" y="129" on="0"/>
        <pt x="51" y="250" on="1"/>
        <pt x="51" y="372" on="0"/>
        <pt x="172" y="510" on="0"/>
        <pt x="281" y="510" on="1"/>
        <pt x="371" y="510" on="0"/>
        <pt x="426" y="460" on="1"/>
        <pt x="394" y="529" on="0"/>
        <pt x="394" y="595" on="1"/>
        <pt x="394" y="670" on="0"/>
        <pt x="459" y="735" on="0"/>
        <pt x="507" y="735" on="1"/>
        <pt x="621" y="735" on="0"/>
        <pt x="621" y="592" on="1"/>
        <pt x="621" y="500" on="1"/>
        <pt x="814" y="500" on="1"/>
        <pt x="814" y="486" on="1"/>
        <pt x="621" y="486" on="1"/>
        <pt x="621" y="126" on="1"/>
        <pt x="621" y="4" on="0"/>
        <pt x="725" y="4" on="1"/>
        <pt x="779" y="4" on="0"/>
        <pt x="813" y="41" on="1"/>
        <pt x="821" y="28" on="1"/>
        <pt x="806" y="12" on="0"/>
        <pt x="755" y="-10" on="0"/>
      </contour>
    </TTGlyph>
    <TTGlyph name="uni0064" xMin="51" yMin="-10" xMax="500" yMax="730">
      <contour>
        <pt x="500" y="0" on="1"/>
        <pt x="484" y="0" on="1"/>
        <pt x="484" y="730" on="1"/>
        <pt x="500" y="730" on="1"/>
      </contour>
      <contour>
        <pt x="51" y="250" on="1"/>
        <pt x="51" y="372" on="0"/>
        <pt x="172" y="510" on="0"/>
        <pt x="280" y="510" on="1"/>
        <pt x="377" y="510" on="0"/>
        <pt x="494" y="382" on="0"/>
        <pt x="494" y="267" on="1"/>
        <pt x="484" y="253" on="1"/>
        <pt x="484" y="366" on="0"/>
        <pt x="375" y="496" on="0"/>
        <pt x="283" y="496" on="1"/>
        <pt x="181" y="496" on="0"/>
        <pt x="67" y="366" on="0"/>
        <pt x="67" y="250" on="1"/>
        <pt x="67" y="134" on="0"/>
        <pt x="181" y="4" on="0"/>
        <pt x="283" y="4" on="1"/>
        <pt x="374" y="4" on="0"/>
        <pt x="484" y="133" on="0"/>
        <pt x="484" y="246" on="1"/>
        <pt x="493" y="230" on="1"/>
        <pt x="493" y="117" on="0"/>
        <pt x="378" y="-10" on="0"/>
        <pt x="280" y="-10" on="1"/>
        <pt x="172" y="-10" on="0"/>
        <pt x="51" y="128" on="0"/>
      </contour>
    </TTGlyph>
    <TTGlyph name="uni0064.sc" xMin="90" yMin="0" xMax="555" yMax="560">
      <contour>
        <pt x="269" y="546" on="1"/>
        <pt x="106" y="546" on="1"/>
        <pt x="106" y="14" on="1"/>
        <pt x="269" y="14" on="1"/>
        <pt x="539" y="14" on="0"/>
        <pt x="539" y="288" on="1"/>
        <pt x="539" y="546" on="0"/>
      </contour>
      <contour>
        <pt x="90" y="0" on="1"/>
        <pt x="90" y="560" on="1"/>
        <pt x="269" y="560" on="1"/>
        <pt x="555" y="560" on="0"/>
        <pt x="555" y="288" on="1"/>
        <pt x="555" y="0" on="0"/>
        <pt x="269" y="0" on="1"/>
      </contour>
    </TTGlyph>
    <TTGlyph name="uni0065" xMin="51" yMin="-10" xMax="486" yMax="510">
      <contour>
        <pt x="275" y="496" on="1"/>
        <pt x="177" y="496" on="0"/>
        <pt x="67" y="367" on="0"/>
        <pt x="67" y="254" on="1"/>
        <pt x="472" y="254" on="1"/>
        <pt x="470" y="368" on="0"/>
        <pt x="369" y="496" on="0"/>
      </contour>
      <contour>
        <pt x="482" y="109" on="1"/>
        <pt x="426" y="-10" on="0"/>
        <pt x="280" y="-10" on="1"/>
        <pt x="172" y="-10" on="0"/>
        <pt x="51" y="128" on="0"/>
        <pt x="51" y="250" on="1"/>
        <pt x="51" y="372" on="0"/>
        <pt x="170" y="510" on="0"/>
        <pt x="275" y="510" on="1"/>
        <pt x="374" y="510" on="0"/>
        <pt x="486" y="370" on="0"/>
        <pt x="486" y="246" on="1"/>
        <pt x="486" y="239" on="1"/>
        <pt x="67" y="239" on="1"/>
        <pt x="70" y="128" on="0"/>
        <pt x="181" y="4" on="0"/>
        <pt x="280" y="4" on="1"/>
        <pt x="343" y="4" on="0"/>
        <pt x="444" y="64" on="0"/>
        <pt x="469" y="116" on="1"/>
      </contour>
    </TTGlyph>
    <TTGlyph name="uni0065.sc" xMin="90" yMin="0" xMax="490" yMax="560">
      <contour>
        <pt x="90" y="0" on="1"/>
        <pt x="90" y="560" on="1"/>
        <pt x="475" y="560" on="1"/>
        <pt x="475" y="546" on="1"/>
        <pt x="106" y="546" on="1"/>
        <pt x="106" y="293" on="1"/>
        <pt x="402" y="293" on="1"/>
        <pt x="402" y="279" on="1"/>
        <pt x="106" y="279" on="1"/>
        <pt x="106" y="14" on="1"/>
        <pt x="490" y="14" on="1"/>
        <pt x="490" y="0" on="1"/>
      </contour>
    </TTGlyph>
    <TTGlyph name="uni0066" xMin="12" yMin="0" xMax="322" yMax="735">
      <contour>
        <pt x="314" y="486" on="1"/>
        <pt x="128" y="486" on="1"/>
        <pt x="128" y="0" on="1"/>
        <pt x="112" y="0" on="1"/>
        <pt x="112" y="486" on="1"/>
        <pt x="12" y="486" on="1"/>
        <pt x="12" y="500" on="1"/>
        <pt x="112" y="500" on="1"/>
        <pt x="112" y="583" on="1"/>
        <pt x="112" y="654" on="0"/>
        <pt x="183" y="735" on="0"/>
        <pt x="245" y="735" on="1"/>
        <pt x="274" y="735" on="0"/>
        <pt x="310" y="718" on="0"/>
        <pt x="322" y="704" on="1"/>
        <pt x="315" y="692" on="1"/>
        <pt x="290" y="721" on="0"/>
        <pt x="245" y="721" on="1"/>
        <pt x="190" y="721" on="0"/>
        <pt x="128" y="648" on="0"/>
        <pt x="128" y="583" on="1"/>
        <pt x="128" y="500" on="1"/>
        <pt x="314" y="500" on="1"/>
      </contour>
    </TTGlyph>
    <TTGlyph name="uni0066.sc" xMin="90" yMin="0" xMax="475" yMax="560">
      <contour>
        <pt x="402" y="279" on="1"/>
        <pt x="106" y="279" on="1"/>
        <pt x="106" y="0" on="1"/>
        <pt x="90" y="0" on="1"/>
        <pt x="90" y="560" on="1"/>
        <pt x="475" y="560" on="1"/>
        <pt x="475" y="546" on="1"/>
        <pt x="106" y="546" on="1"/>
        <pt x="106" y="293" on="1"/>
        <pt x="402" y="293" on="1"/>
      </contour>
    </TTGlyph>
    <TTGlyph name="uni0067" xMin="34" yMin="-215" xMax="496" yMax="592">
      <contour>
        <pt x="379" y="470" on="1"/>
        <pt x="379" y="526" on="0"/>
        <pt x="439" y="592" on="0"/>
        <pt x="491" y="592" on="1"/>
        <pt x="496" y="578" on="1"/>
        <pt x="446" y="578" on="0"/>
        <pt x="392" y="516" on="0"/>
        <pt x="392" y="465" on="1"/>
      </contour>
      <contour>
        <pt x="438" y="353" on="1"/>
        <pt x="438" y="418" on="0"/>
        <pt x="340" y="496" on="0"/>
        <pt x="258" y="496" on="1"/>
        <pt x="176" y="496" on="0"/>
        <pt x="76" y="418" on="0"/>
        <pt x="76" y="353" on="1"/>
        <pt x="76" y="289" on="0"/>
        <pt x="176" y="210" on="0"/>
        <pt x="258" y="210" on="1"/>
        <pt x="340" y="210" on="0"/>
        <pt x="438" y="289" on="0"/>
      </contour>
      <contour>
        <pt x="492" y="-73" on="1"/>
        <pt x="492" y="-136" on="0"/>
        <pt x="366" y="-215" on="0"/>
        <pt x="264" y="-215" on="1"/>
        <pt x="157" y="-215" on="0"/>
        <pt x="34" y="-141" on="0"/>
        <pt x="34" y="-81" on="1"/>
        <pt x="34" y="-39" on="0"/>
        <pt x="96" y="20" on="0"/>
        <pt x="146" y="29" on="1"/>
        <pt x="65" y="50" on="0"/>
        <pt x="65" y="114" on="1"/>
        <pt x="65" y="153" on="0"/>
        <pt x="124" y="203" on="0"/>
        <pt x="169" y="210" on="1"/>
        <pt x="60" y="247" on="0"/>
        <pt x="60" y="353" on="1"/>
        <pt x="60" y="424" on="0"/>
        <pt x="169" y="510" on="0"/>
        <pt x="258" y="510" on="1"/>
        <pt x="347" y="510" on="0"/>
        <pt x="454" y="424" on="0"/>
        <pt x="454" y="353" on="1"/>
        <pt x="454" y="282" on="0"/>
        <pt x="347" y="196" on="0"/>
        <pt x="258" y="196" on="1"/>
        <pt x="227" y="196" on="0"/>
        <pt x="200" y="201" on="1"/>
        <pt x="149" y="198" on="0"/>
        <pt x="81" y="150" on="0"/>
        <pt x="81" y="116" on="1"/>
        <pt x="81" y="82" on="0"/>
        <pt x="143" y="37" on="0"/>
        <pt x="203" y="37" on="1"/>
        <pt x="326" y="37" on="1"/>
        <pt x="403" y="37" on="0"/>
        <pt x="492" y="-24" on="0"/>
      </contour>
      <contour>
        <pt x="266" y="-201" on="1"/>
        <pt x="355" y="-201" on="0"/>
        <pt x="476" y="-131" on="0"/>
        <pt x="476" y="-75" on="1"/>
        <pt x="476" y="-31" on="0"/>
        <pt x="394" y="23" on="0"/>
        <pt x="325" y="23" on="1"/>
        <pt x="197" y="23" on="1"/>
        <pt x="133" y="23" on="0"/>
        <pt x="50" y="-34" on="0"/>
        <pt x="50" y="-79" on="1"/>
        <pt x="50" y="-133" on="0"/>
        <pt x="166" y="-201" on="0"/>
      </contour>
    </TTGlyph>
    <TTGlyph name="uni0067.sc" xMin="52" yMin="-8" xMax="540" yMax="568">
      <contour>
        <pt x="525" y="0" on="1"/>
        <pt x="525" y="168" on="1"/>
        <pt x="509" y="85" on="0"/>
        <pt x="399" y="-8" on="0"/>
        <pt x="307" y="-8" on="1"/>
        <pt x="191" y="-8" on="0"/>
        <pt x="52" y="147" on="0"/>
        <pt x="52" y="280" on="1"/>
        <pt x="52" y="413" on="0"/>
        <pt x="200" y="568" on="0"/>
        <pt x="314" y="568" on="1"/>
        <pt x="495" y="568" on="0"/>
        <pt x="540" y="421" on="1"/>
        <pt x="526" y="414" on="1"/>
        <pt x="483" y="554" on="0"/>
        <pt x="314" y="554" on="1"/>
        <pt x="208" y="554" on="0"/>
        <pt x="68" y="406" on="0"/>
        <pt x="68" y="280" on="1"/>
        <pt x="68" y="153" on="0"/>
        <pt x="198" y="6" on="0"/>
        <pt x="307" y="6" on="1"/>
        <pt x="393" y="6" on="0"/>
        <pt x="488" y="83" on="0"/>
        <pt x="525" y="195" on="0"/>
        <pt x="525" y="247" on="1"/>
        <pt x="525" y="251" on="1"/>
        <pt x="310" y="251" on="1"/>
        <pt x="310" y="265" on="1"/>
        <pt x="539" y="265" on="1"/>
        <pt x="539" y="0" on="1"/>
      </contour>
    </TTGlyph>
    <TTGlyph name="uni0067.sc.ss04" xMin="52" yMin="-8" xMax="546" yMax="568">
      <contour>
        <pt x="546" y="249" on="1"/>
        <pt x="546" y="184" on="0"/>
        <pt x="502" y="66" on="0"/>
        <pt x="399" y="-8" on="0"/>
        <pt x="308" y="-8" on="1"/>
        <pt x="191" y="-8" on="0"/>
        <pt x="52" y="147" on="0"/>
        <pt x="52" y="280" on="1"/>
        <pt x="52" y="413" on="0"/>
        <pt x="194" y="568" on="0"/>
        <pt x="310" y="568" on="1"/>
        <pt x="491" y="568" on="0"/>
        <pt x="536" y="421" on="1"/>
        <pt x="522" y="414" on="1"/>
        <pt x="479" y="554" on="0"/>
        <pt x="310" y="554" on="1"/>
        <pt x="201" y="554" on="0"/>
        <pt x="68" y="406" on="0"/>
        <pt x="68" y="280" on="1"/>
        <pt x="68" y="153" on="0"/>
        <pt x="199" y="6" on="0"/>
        <pt x="309" y="6" on="1"/>
        <pt x="402" y="6" on="0"/>
        <pt x="497" y="88" on="0"/>
        <pt x="530" y="202" on="0"/>
        <pt x="530" y="251" on="1"/>
        <pt x="314" y="251" on="1"/>
        <pt x="314" y="265" on="1"/>
        <pt x="546" y="265" on="1"/>
      </contour>
    </TTGlyph>
    <TTGlyph name="uni0067.ss01" xMin="51" yMin="-215" xMax="500" yMax="510">
      <contour>
        <pt x="283" y="4" on="1"/>
        <pt x="374" y="4" on="0"/>
        <pt x="484" y="133" on="0"/>
        <pt x="484" y="246" on="1"/>
        <pt x="484" y="255" on="1"/>
        <pt x="483" y="368" on="0"/>
        <pt x="373" y="496" on="0"/>
        <pt x="283" y="496" on="1"/>
        <pt x="182" y="496" on="0"/>
        <pt x="68" y="366" on="0"/>
        <pt x="68" y="250" on="1"/>
        <pt x="68" y="134" on="0"/>
        <pt x="182" y="4" on="0"/>
      </contour>
      <contour>
        <pt x="271" y="-215" on="1"/>
        <pt x="188" y="-215" on="0"/>
        <pt x="79" y="-149" on="0"/>
        <pt x="67" y="-90" on="1"/>
        <pt x="83" y="-83" on="1"/>
        <pt x="93" y="-139" on="0"/>
        <pt x="192" y="-201" on="0"/>
        <pt x="271" y="-201" on="1"/>
        <pt x="372" y="-201" on="0"/>
        <pt x="484" y="-91" on="0"/>
        <pt x="484" y="7" on="1"/>
        <pt x="484" y="148" on="1"/>
        <pt x="445" y="-10" on="0"/>
        <pt x="280" y="-10" on="1"/>
        <pt x="173" y="-10" on="0"/>
        <pt x="51" y="128" on="0"/>
        <pt x="51" y="250" on="1"/>
        <pt x="51" y="372" on="0"/>
        <pt x="173" y="510" on="0"/>
        <pt x="280" y="510" on="1"/>
        <pt x="357" y="510" on="0"/>
        <pt x="464" y="427" on="0"/>
        <pt x="484" y="351" on="1"/>
        <pt x="484" y="499" on="1"/>
        <pt x="500" y="499" on="1"/>
        <pt x="500" y="8" on="1"/>
        <pt x="500" y="-97" on="0"/>
        <pt x="379" y="-215" on="0"/>
      </contour>
    </TTGlyph>
    <TTGlyph name="uni0068" xMin="85" yMin="0" xMax="495" yMax="730">
      <contour>
        <pt x="101" y="302" on="1"/>
        <pt x="101" y="0" on="1"/>
        <pt x="85" y="0" on="1"/>
        <pt x="85" y="730" on="1"/>
        <pt x="101" y="730" on="1"/>
        <pt x="101" y="368" on="1"/>
        <pt x="119" y="430" on="0"/>
        <pt x="231" y="511" on="0"/>
        <pt x="309" y="511" on="1"/>
        <pt x="395" y="511" on="0"/>
        <pt x="495" y="416" on="0"/>
        <pt x="495" y="330" on="1"/>
        <pt x="495" y="1" on="1"/>
        <pt x="479" y="1" on="1"/>
        <pt x="479" y="328" on="1"/>
        <pt x="479" y="408" on="0"/>
        <pt x="386" y="497" on="0"/>
        <pt x="306" y="497" on="1"/>
        <pt x="218" y="497" on="0"/>
        <pt x="101" y="380" on="0"/>
      </contour>
    </TTGlyph>
    <TTGlyph name="uni0068.sc" xMin="90" yMin="0" xMax="529" yMax="560">
      <contour>
        <pt x="513" y="0" on="1"/>
        <pt x="513" y="279" on="1"/>
        <pt x="106" y="279" on="1"/>
        <pt x="106" y="0" on="1"/>
        <pt x="90" y="0" on="1"/>
        <pt x="90" y="560" on="1"/>
        <pt x="106" y="560" on="1"/>
        <pt x="106" y="293" on="1"/>
        <pt x="513" y="293" on="1"/>
        <pt x="513" y="560" on="1"/>
        <pt x="529" y="560" on="1"/>
        <pt x="529" y="0" on="1"/>
      </contour>
    </TTGlyph>
    <TTGlyph name="uni0069" xMin="71" yMin="0" xMax="115" yMax="642">
      <contour>
        <pt x="115" y="620" on="1"/>
        <pt x="115" y="598" on="0"/>
        <pt x="93" y="598" on="1"/>
        <pt x="71" y="598" on="0"/>
        <pt x="71" y="620" on="1"/>
        <pt x="71" y="642" on="0"/>
        <pt x="93" y="642" on="1"/>
        <pt x="115" y="642" on="0"/>
      </contour>
      <contour>
        <pt x="85" y="500" on="1"/>
        <pt x="101" y="500" on="1"/>
        <pt x="101" y="0" on="1"/>
        <pt x="85" y="0" on="1"/>
      </contour>
    </TTGlyph>
    <TTGlyph name="uni0069.sc" xMin="90" yMin="0" xMax="106" yMax="560">
      <contour>
        <pt x="90" y="560" on="1"/>
        <pt x="106" y="560" on="1"/>
        <pt x="106" y="0" on="1"/>
        <pt x="90" y="0" on="1"/>
      </contour>
    </TTGlyph>
    <TTGlyph name="uni006A" xMin="-102" yMin="-215" xMax="115" yMax="642">
      <contour>
        <pt x="71" y="620" on="1"/>
        <pt x="71" y="642" on="0"/>
        <pt x="93" y="642" on="1"/>
        <pt x="115" y="642" on="0"/>
        <pt x="115" y="620" on="1"/>
        <pt x="115" y="598" on="0"/>
        <pt x="93" y="598" on="1"/>
        <pt x="71" y="598" on="0"/>
      </contour>
      <contour>
        <pt x="85" y="500" on="1"/>
        <pt x="101" y="500" on="1"/>
        <pt x="101" y="-64" on="1"/>
        <pt x="101" y="-133" on="0"/>
        <pt x="29" y="-215" on="0"/>
        <pt x="-31" y="-215" on="1"/>
        <pt x="-77" y="-215" on="0"/>
        <pt x="-102" y="-193" on="1"/>
        <pt x="-97" y="-179" on="1"/>
        <pt x="-74" y="-201" on="0"/>
        <pt x="-31" y="-201" on="1"/>
        <pt x="22" y="-201" on="0"/>
        <pt x="85" y="-126" on="0"/>
        <pt x="85" y="-64" on="1"/>
      </contour>
    </TTGlyph>
    <TTGlyph name="uni006A.sc" xMin="19" yMin="-8" xMax="362" yMax="560">
      <contour>
        <pt x="346" y="560" on="1"/>
        <pt x="362" y="560" on="1"/>
        <pt x="362" y="178" on="1"/>
        <pt x="362" y="93" on="0"/>
        <pt x="275" y="-8" on="0"/>
        <pt x="190" y="-8" on="1"/>
        <pt x="102" y="-8" on="0"/>
        <pt x="19" y="90" on="0"/>
        <pt x="31" y="170" on="1"/>
        <pt x="47" y="177" on="1"/>
        <pt x="34" y="95" on="0"/>
        <pt x="111" y="6" on="0"/>
        <pt x="190" y="6" on="1"/>
        <pt x="268" y="6" on="0"/>
        <pt x="346" y="99" on="0"/>
        <pt x="346" y="178" on="1"/>
      </contour>
    </TTGlyph>
    <TTGlyph name="uni006B" xMin="85" yMin="0" xMax="470" yMax="730">
      <contour>
        <pt x="450" y="0" on="1"/>
        <pt x="233" y="285" on="1"/>
        <pt x="101" y="162" on="1"/>
        <pt x="101" y="0" on="1"/>
        <pt x="85" y="0" on="1"/>
        <pt x="85" y="730" on="1"/>
        <pt x="101" y="730" on="1"/>
        <pt x="101" y="184" on="1"/>
        <pt x="441" y="500" on="1"/>
        <pt x="465" y="500" on="1"/>
        <pt x="245" y="296" on="1"/>
        <pt x="470" y="0" on="1"/>
      </contour>
    </TTGlyph>
    <TTGlyph name="uni006B.sc" xMin="90" yMin="0" xMax="484" yMax="560">
      <contour>
        <pt x="463" y="0" on="1"/>
        <pt x="235" y="324" on="1"/>
        <pt x="106" y="198" on="1"/>
        <pt x="106" y="0" on="1"/>
        <pt x="90" y="0" on="1"/>
        <pt x="90" y="560" on="1"/>
        <pt x="106" y="560" on="1"/>
        <pt x="106" y="220" on="1"/>
        <pt x="453" y="560" on="1"/>
        <pt x="475" y="560" on="1"/>
        <pt x="247" y="335" on="1"/>
        <pt x="484" y="0" on="1"/>
      </contour>
    </TTGlyph>
    <TTGlyph name="uni006C" xMin="81" yMin="-10" xMax="228" yMax="730">
      <contour>
        <pt x="81" y="730" on="1"/>
        <pt x="97" y="730" on="1"/>
        <pt x="97" y="107" on="1"/>
        <pt x="97" y="4" on="0"/>
        <pt x="170" y="4" on="1"/>
        <pt x="192" y="4" on="0"/>
        <pt x="216" y="10" on="0"/>
        <pt x="228" y="16" on="1"/>
        <pt x="228" y="2" on="1"/>
        <pt x="206" y="-10" on="0"/>
        <pt x="170" y="-10" on="1"/>
        <pt x="81" y="-10" on="0"/>
        <pt x="81" y="107" on="1"/>
      </contour>
    </TTGlyph>
    <TTGlyph name="uni006C.sc" xMin="90" yMin="0" xMax="471" yMax="560">
      <contour>
        <pt x="90" y="0" on="1"/>
        <pt x="90" y="560" on="1"/>
        <pt x="106" y="560" on="1"/>
        <pt x="106" y="14" on="1"/>
        <pt x="471" y="14" on="1"/>
        <pt x="471" y="0" on="1"/>
      </contour>
    </TTGlyph>
    <TTGlyph name="uni006C.ss02" xMin="89" yMin="0" xMax="105" yMax="730">
      <contour>
        <pt x="89" y="730" on="1"/>
        <pt x="105" y="730" on="1"/>
        <pt x="105" y="0" on="1"/>
        <pt x="89" y="0" on="1"/>
      </contour>
    </TTGlyph>
    <TTGlyph name="uni006D" xMin="85" yMin="0" xMax="889" yMax="512">
      <contour>
        <pt x="101" y="301" on="1"/>
        <pt x="101" y="0" on="1"/>
        <pt x="85" y="0" on="1"/>
        <pt x="85" y="500" on="1"/>
        <pt x="101" y="500" on="1"/>
        <pt x="101" y="367" on="1"/>
        <pt x="119" y="429" on="0"/>
        <pt x="231" y="510" on="0"/>
        <pt x="309" y="510" on="1"/>
        <pt x="387" y="510" on="0"/>
        <pt x="484" y="433" on="0"/>
        <pt x="493" y="361" on="1"/>
        <pt x="508" y="426" on="0"/>
        <pt x="622" y="512" on="0"/>
        <pt x="703" y="512" on="1"/>
        <pt x="789" y="512" on="0"/>
        <pt x="889" y="417" on="0"/>
        <pt x="889" y="331" on="1"/>
        <pt x="889" y="2" on="1"/>
        <pt x="873" y="2" on="1"/>
        <pt x="873" y="329" on="1"/>
        <pt x="873" y="409" on="0"/>
        <pt x="780" y="498" on="0"/>
        <pt x="700" y="498" on="1"/>
        <pt x="612" y="498" on="0"/>
        <pt x="495" y="381" on="0"/>
        <pt x="495" y="303" on="1"/>
        <pt x="495" y="0" on="1"/>
        <pt x="479" y="0" on="1"/>
        <pt x="479" y="327" on="1"/>
        <pt x="479" y="407" on="0"/>
        <pt x="386" y="496" on="0"/>
        <pt x="306" y="496" on="1"/>
        <pt x="218" y="496" on="0"/>
        <pt x="101" y="379" on="0"/>
      </contour>
    </TTGlyph>
    <TTGlyph name="uni006D.sc" xMin="90" yMin="0" xMax="609" yMax="560">
      <contour>
        <pt x="106" y="0" on="1"/>
        <pt x="90" y="0" on="1"/>
        <pt x="90" y="560" on="1"/>
        <pt x="114" y="560" on="1"/>
        <pt x="329" y="66" on="1"/>
        <pt x="349" y="19" on="1"/>
        <pt x="350" y="19" on="1"/>
        <pt x="370" y="66" on="1"/>
        <pt x="585" y="560" on="1"/>
        <pt x="609" y="560" on="1"/>
        <pt x="609" y="0" on="1"/>
        <pt x="593" y="0" on="1"/>
        <pt x="593" y="487" on="1"/>
        <pt x="594" y="539" on="1"/>
        <pt x="593" y="539" on="1"/>
        <pt x="359" y="0" on="1"/>
        <pt x="340" y="0" on="1"/>
        <pt x="106" y="539" on="1"/>
        <pt x="105" y="539" on="1"/>
        <pt x="106" y="487" on="1"/>
      </contour>
    </TTGlyph>
    <TTGlyph name="uni006E" xMin="85" yMin="0" xMax="495" yMax="510">
      <contour>
        <pt x="101" y="301" on="1"/>
        <pt x="101" y="0" on="1"/>
        <pt x="85" y="0" on="1"/>
        <pt x="85" y="500" on="1"/>
        <pt x="101" y="500" on="1"/>
        <pt x="101" y="367" on="1"/>
        <pt x="119" y="429" on="0"/>
        <pt x="231" y="510" on="0"/>
        <pt x="309" y="510" on="1"/>
        <pt x="395" y="510" on="0"/>
        <pt x="495" y="415" on="0"/>
        <pt x="495" y="329" on="1"/>
        <pt x="495" y="0" on="1"/>
        <pt x="479" y="0" on="1"/>
        <pt x="479" y="327" on="1"/>
        <pt x="479" y="407" on="0"/>
        <pt x="386" y="496" on="0"/>
        <pt x="306" y="496" on="1"/>
        <pt x="218" y="496" on="0"/>
        <pt x="101" y="379" on="0"/>
      </contour>
    </TTGlyph>
    <TTGlyph name="uni006E.sc" xMin="90" yMin="0" xMax="528" yMax="560">
      <contour>
        <pt x="512" y="560" on="1"/>
        <pt x="528" y="560" on="1"/>
        <pt x="528" y="0" on="1"/>
        <pt x="506" y="0" on="1"/>
        <pt x="133" y="505" on="1"/>
        <pt x="106" y="541" on="1"/>
        <pt x="105" y="541" on="1"/>
        <pt x="106" y="491" on="1"/>
        <pt x="106" y="0" on="1"/>
        <pt x="90" y="0" on="1"/>
        <pt x="90" y="560" on="1"/>
        <pt x="112" y="560" on="1"/>
        <pt x="477" y="66" on="1"/>
        <pt x="512" y="19" on="1"/>
        <pt x="513" y="19" on="1"/>
        <pt x="512" y="69" on="1"/>
      </contour>
    </TTGlyph>
    <TTGlyph name="uni006E.swsh" xMin="85" yMin="-90" xMax="610" yMax="510">
      <contour>
        <pt x="553" y="-90" on="1"/>
        <pt x="512" y="-90" on="0"/>
        <pt x="479" y="-52" on="0"/>
        <pt x="479" y="-20" on="1"/>
        <pt x="479" y="327" on="1"/>
        <pt x="479" y="407" on="0"/>
        <pt x="386" y="496" on="0"/>
        <pt x="306" y="496" on="1"/>
        <pt x="218" y="496" on="0"/>
        <pt x="101" y="379" on="0"/>
        <pt x="101" y="301" on="1"/>
        <pt x="101" y="0" on="1"/>
        <pt x="85" y="0" on="1"/>
        <pt x="85" y="500" on="1"/>
        <pt x="101" y="500" on="1"/>
        <pt x="101" y="367" on="1"/>
        <pt x="119" y="429" on="0"/>
        <pt x="231" y="510" on="0"/>
        <pt x="309" y="510" on="1"/>
        <pt x="395" y="510" on="0"/>
        <pt x="495" y="415" on="0"/>
        <pt x="495" y="329" on="1"/>
        <pt x="495" y="-20" on="1"/>
        <pt x="495" y="-76" on="0"/>
        <pt x="553" y="-76" on="1"/>
        <pt x="587" y="-76" on="0"/>
        <pt x="610" y="-57" on="1"/>
        <pt x="607" y="-74" on="1"/>
        <pt x="589" y="-90" on="0"/>
      </contour>
    </TTGlyph>
    <TTGlyph name="uni006F" xMin="51" yMin="-10" xMax="518" yMax="510">
      <contour>
        <pt x="51" y="250" on="1"/>
        <pt x="51" y="372" on="0"/>
        <pt x="176" y="510" on="0"/>
        <pt x="285" y="510" on="1"/>
        <pt x="394" y="510" on="0"/>
        <pt x="518" y="372" on="0"/>
        <pt x="518" y="250" on="1"/>
        <pt x="518" y="129" on="0"/>
        <pt x="394" y="-10" on="0"/>
        <pt x="285" y="-10" on="1"/>
        <pt x="176" y="-10" on="0"/>
        <pt x="51" y="129" on="0"/>
      </contour>
      <contour>
        <pt x="502" y="250" on="1"/>
        <pt x="502" y="365" on="0"/>
        <pt x="386" y="496" on="0"/>
        <pt x="285" y="496" on="1"/>
        <pt x="184" y="496" on="0"/>
        <pt x="67" y="365" on="0"/>
        <pt x="67" y="250" on="1"/>
        <pt x="67" y="135" on="0"/>
        <pt x="184" y="4" on="0"/>
        <pt x="285" y="4" on="1"/>
        <pt x="386" y="4" on="0"/>
        <pt x="502" y="135" on="0"/>
      </contour>
    </TTGlyph>
    <TTGlyph name="uni006F.sc" xMin="52" yMin="-8" xMax="582" yMax="568">
      <contour>
        <pt x="52" y="280" on="1"/>
        <pt x="52" y="413" on="0"/>
        <pt x="195" y="568" on="0"/>
        <pt x="317" y="568" on="1"/>
        <pt x="439" y="568" on="0"/>
        <pt x="582" y="413" on="0"/>
        <pt x="582" y="280" on="1"/>
        <pt x="582" y="147" on="0"/>
        <pt x="439" y="-8" on="0"/>
        <pt x="317" y="-8" on="1"/>
        <pt x="195" y="-8" on="0"/>
        <pt x="52" y="147" on="0"/>
      </contour>
      <contour>
        <pt x="566" y="280" on="1"/>
        <pt x="566" y="407" on="0"/>
        <pt x="432" y="554" on="0"/>
        <pt x="317" y="554" on="1"/>
        <pt x="202" y="554" on="0"/>
        <pt x="68" y="407" on="0"/>
        <pt x="68" y="280" on="1"/>
        <pt x="68" y="153" on="0"/>
        <pt x="202" y="6" on="0"/>
        <pt x="317" y="6" on="1"/>
        <pt x="432" y="6" on="0"/>
        <pt x="566" y="153" on="0"/>
      </contour>
    </TTGlyph>
    <TTGlyph name="uni0070" xMin="85" yMin="-210" xMax="534" yMax="510">
      <contour>
        <pt x="101" y="-210" on="1"/>
        <pt x="85" y="-210" on="1"/>
        <pt x="85" y="500" on="1"/>
        <pt x="101" y="500" on="1"/>
      </contour>
      <contour>
        <pt x="534" y="250" on="1"/>
        <pt x="534" y="128" on="0"/>
        <pt x="413" y="-10" on="0"/>
        <pt x="305" y="-10" on="1"/>
        <pt x="208" y="-10" on="0"/>
        <pt x="91" y="118" on="0"/>
        <pt x="91" y="233" on="1"/>
        <pt x="101" y="247" on="1"/>
        <pt x="101" y="134" on="0"/>
        <pt x="211" y="4" on="0"/>
        <pt x="302" y="4" on="1"/>
        <pt x="404" y="4" on="0"/>
        <pt x="518" y="134" on="0"/>
        <pt x="518" y="250" on="1"/>
        <pt x="518" y="366" on="0"/>
        <pt x="404" y="496" on="0"/>
        <pt x="302" y="496" on="1"/>
        <pt x="211" y="496" on="0"/>
        <pt x="101" y="367" on="0"/>
        <pt x="101" y="254" on="1"/>
        <pt x="92" y="270" on="1"/>
        <pt x="92" y="383" on="0"/>
        <pt x="208" y="510" on="0"/>
        <pt x="305" y="510" on="1"/>
        <pt x="413" y="510" on="0"/>
        <pt x="534" y="372" on="0"/>
      </contour>
    </TTGlyph>
    <TTGlyph name="uni0070.sc" xMin="90" yMin="0" xMax="469" yMax="560">
      <contour>
        <pt x="270" y="546" on="1"/>
        <pt x="106" y="546" on="1"/>
        <pt x="106" y="260" on="1"/>
        <pt x="270" y="260" on="1"/>
        <pt x="356" y="260" on="0"/>
        <pt x="453" y="335" on="0"/>
        <pt x="453" y="402" on="1"/>
        <pt x="453" y="470" on="0"/>
        <pt x="356" y="546" on="0"/>
      </contour>
      <contour>
        <pt x="271" y="246" on="1"/>
        <pt x="106" y="246" on="1"/>
        <pt x="106" y="0" on="1"/>
        <pt x="90" y="0" on="1"/>
        <pt x="90" y="560" on="1"/>
        <pt x="271" y="560" on="1"/>
        <pt x="364" y="560" on="0"/>
        <pt x="469" y="476" on="0"/>
        <pt x="469" y="402" on="1"/>
        <pt x="469" y="329" on="0"/>
        <pt x="364" y="246" on="0"/>
      </contour>
    </TTGlyph>
    <TTGlyph name="uni0071" xMin="52" yMin="-210" xMax="501" yMax="510">
      <contour>
        <pt x="501" y="-210" on="1"/>
        <pt x="485" y="-210" on="1"/>
        <pt x="485" y="500" on="1"/>
        <pt x="501" y="500" on="1"/>
      </contour>
      <contour>
        <pt x="52" y="250" on="1"/>
        <pt x="52" y="128" on="0"/>
        <pt x="173" y="-10" on="0"/>
        <pt x="281" y="-10" on="1"/>
        <pt x="378" y="-10" on="0"/>
        <pt x="495" y="118" on="0"/>
        <pt x="495" y="233" on="1"/>
        <pt x="485" y="247" on="1"/>
        <pt x="485" y="134" on="0"/>
        <pt x="376" y="4" on="0"/>
        <pt x="284" y="4" on="1"/>
        <pt x="182" y="4" on="0"/>
        <pt x="68" y="134" on="0"/>
        <pt x="68" y="250" on="1"/>
        <pt x="68" y="366" on="0"/>
        <pt x="182" y="496" on="0"/>
        <pt x="284" y="496" on="1"/>
        <pt x="375" y="496" on="0"/>
        <pt x="485" y="367" on="0"/>
        <pt x="485" y="254" on="1"/>
        <pt x="494" y="270" on="1"/>
        <pt x="494" y="383" on="0"/>
        <pt x="379" y="510" on="0"/>
        <pt x="281" y="510" on="1"/>
        <pt x="173" y="510" on="0"/>
        <pt x="52" y="372" on="0"/>
      </contour>
    </TTGlyph>
    <TTGlyph name="uni0071.sc" xMin="52" yMin="-165" xMax="582" yMax="568">
      <contour>
        <pt x="310" y="-3" on="1"/>
        <pt x="323" y="-2" on="1"/>
        <pt x="327" y="-76" on="0"/>
        <pt x="406" y="-151" on="0"/>
        <pt x="469" y="-151" on="1"/>
        <pt x="495" y="-151" on="0"/>
        <pt x="544" y="-136" on="0"/>
        <pt x="560" y="-119" on="1"/>
        <pt x="568" y="-133" on="1"/>
        <pt x="533" y="-165" on="0"/>
        <pt x="469" y="-165" on="1"/>
        <pt x="401" y="-165" on="0"/>
        <pt x="313" y="-81" on="0"/>
      </contour>
      <contour>
        <pt x="52" y="280" on="1"/>
        <pt x="52" y="413" on="0"/>
        <pt x="195" y="568" on="0"/>
        <pt x="317" y="568" on="1"/>
        <pt x="439" y="568" on="0"/>
        <pt x="582" y="413" on="0"/>
        <pt x="582" y="280" on="1"/>
        <pt x="582" y="147" on="0"/>
        <pt x="439" y="-8" on="0"/>
        <pt x="317" y="-8" on="1"/>
        <pt x="195" y="-8" on="0"/>
        <pt x="52" y="147" on="0"/>
      </contour>
      <contour>
        <pt x="566" y="280" on="1"/>
        <pt x="566" y="407" on="0"/>
        <pt x="432" y="554" on="0"/>
        <pt x="317" y="554" on="1"/>
        <pt x="202" y="554" on="0"/>
        <pt x="68" y="407" on="0"/>
        <pt x="68" y="280" on="1"/>
        <pt x="68" y="153" on="0"/>
        <pt x="202" y="6" on="0"/>
        <pt x="317" y="6" on="1"/>
        <pt x="432" y="6" on="0"/>
        <pt x="566" y="153" on="0"/>
      </contour>
    </TTGlyph>
    <TTGlyph name="uni0072" xMin="85" yMin="0" xMax="336" yMax="510">
      <contour>
        <pt x="101" y="291" on="1"/>
        <pt x="101" y="0" on="1"/>
        <pt x="85" y="0" on="1"/>
        <pt x="85" y="500" on="1"/>
        <pt x="101" y="500" on="1"/>
        <pt x="101" y="370" on="1"/>
        <pt x="118" y="429" on="0"/>
        <pt x="204" y="510" on="0"/>
        <pt x="265" y="510" on="1"/>
        <pt x="292" y="510" on="0"/>
        <pt x="326" y="497" on="0"/>
        <pt x="336" y="486" on="1"/>
        <pt x="327" y="474" on="1"/>
        <pt x="317" y="484" on="0"/>
        <pt x="291" y="496" on="0"/>
        <pt x="263" y="496" on="1"/>
        <pt x="193" y="496" on="0"/>
        <pt x="101" y="369" on="0"/>
      </contour>
    </TTGlyph>
    <TTGlyph name="uni0072.sc" xMin="90" yMin="0" xMax="511" yMax="560">
      <contour>
        <pt x="301" y="546" on="1"/>
        <pt x="106" y="546" on="1"/>
        <pt x="106" y="268" on="1"/>
        <pt x="301" y="268" on="1"/>
        <pt x="380" y="268" on="0"/>
        <pt x="469" y="342" on="0"/>
        <pt x="469" y="407" on="1"/>
        <pt x="469" y="472" on="0"/>
        <pt x="380" y="546" on="0"/>
      </contour>
      <contour>
        <pt x="301" y="254" on="1"/>
        <pt x="106" y="254" on="1"/>
        <pt x="106" y="0" on="1"/>
        <pt x="90" y="0" on="1"/>
        <pt x="90" y="560" on="1"/>
        <pt x="301" y="560" on="1"/>
        <pt x="387" y="560" on="0"/>
        <pt x="485" y="479" on="0"/>
        <pt x="485" y="407" on="1"/>
        <pt x="485" y="273" on="0"/>
        <pt x="337" y="256" on="1"/>
        <pt x="511" y="0" on="1"/>
        <pt x="490" y="0" on="1"/>
        <pt x="319" y="254" on="1"/>
        <pt x="310" y="254" on="0"/>
      </contour>
    </TTGlyph>
    <TTGlyph name="uni0072.sc.ss03" xMin="90" yMin="0" xMax="494" yMax="560">
      <contour>
        <pt x="106" y="546" on="1"/>
        <pt x="106" y="268" on="1"/>
        <pt x="301" y="268" on="1"/>
        <pt x="381" y="268" on="0"/>
        <pt x="469" y="341" on="0"/>
        <pt x="469" y="407" on="1"/>
        <pt x="469" y="472" on="0"/>
        <pt x="381" y="546" on="0"/>
        <pt x="301" y="546" on="1"/>
      </contour>
      <contour>
        <pt x="106" y="0" on="1"/>
        <pt x="90" y="0" on="1"/>
        <pt x="90" y="560" on="1"/>
        <pt x="301" y="560" on="1"/>
        <pt x="387" y="560" on="0"/>
        <pt x="485" y="478" on="0"/>
        <pt x="485" y="407" on="1"/>
        <pt x="485" y="346" on="0"/>
        <pt x="414" y="270" on="0"/>
        <pt x="355" y="262" on="1"/>
        <pt x="355" y="261" on="1"/>
        <pt x="468" y="245" on="0"/>
        <pt x="471" y="136" on="1"/>
        <pt x="473" y="49" on="0"/>
        <pt x="488" y="10" on="0"/>
        <pt x="494" y="2" on="1"/>
        <pt x="494" y="0" on="1"/>
        <pt x="476" y="0" on="1"/>
        <pt x="471" y="9" on="0"/>
        <pt x="457" y="57" on="0"/>
        <pt x="455" y="133" on="1"/>
        <pt x="454" y="189" on="0"/>
        <pt x="382" y="254" on="0"/>
        <pt x="311" y="254" on="1"/>
        <pt x="106" y="254" on="1"/>
      </contour>
    </TTGlyph>
    <TTGlyph name="uni0072.swsh" xMin="85" yMin="0" xMax="438" yMax="510">
      <contour>
        <pt x="101" y="334" on="1"/>
        <pt x="101" y="0" on="1"/>
        <pt x="85" y="0" on="1"/>
        <pt x="85" y="500" on="1"/>
        <pt x="101" y="500" on="1"/>
        <pt x="101" y="401" on="1"/>
        <pt x="133" y="510" on="0"/>
        <pt x="248" y="510" on="1"/>
        <pt x="292" y="510" on="0"/>
        <pt x="343" y="480" on="0"/>
        <pt x="394" y="446" on="0"/>
        <pt x="438" y="440" on="1"/>
        <pt x="431" y="429" on="1"/>
        <pt x="386" y="435" on="0"/>
        <pt x="337" y="468" on="0"/>
        <pt x="291" y="496" on="0"/>
        <pt x="251" y="496" on="1"/>
        <pt x="188" y="496" on="0"/>
        <pt x="102" y="416" on="0"/>
      </contour>
    </TTGlyph>
    <TTGlyph name="uni0073" xMin="37" yMin="-10" xMax="432" yMax="510">
      <contour>
        <pt x="432" y="124" on="1"/>
        <pt x="432" y="62" on="0"/>
        <pt x="329" y="-10" on="0"/>
        <pt x="240" y="-10" on="1"/>
        <pt x="162" y="-10" on="0"/>
        <pt x="51" y="51" on="0"/>
        <pt x="37" y="111" on="1"/>
        <pt x="52" y="118" on="1"/>
        <pt x="65" y="62" on="0"/>
        <pt x="167" y="4" on="0"/>
        <pt x="243" y="4" on="1"/>
        <pt x="323" y="4" on="0"/>
        <pt x="416" y="69" on="0"/>
        <pt x="416" y="124" on="1"/>
        <pt x="416" y="169" on="0"/>
        <pt x="343" y="224" on="0"/>
        <pt x="246" y="240" on="1"/>
        <pt x="141" y="258" on="0"/>
        <pt x="59" y="320" on="0"/>
        <pt x="59" y="374" on="1"/>
        <pt x="59" y="432" on="0"/>
        <pt x="164" y="510" on="0"/>
        <pt x="244" y="510" on="1"/>
        <pt x="402" y="510" on="0"/>
        <pt x="429" y="385" on="1"/>
        <pt x="415" y="377" on="1"/>
        <pt x="390" y="496" on="0"/>
        <pt x="244" y="496" on="1"/>
        <pt x="171" y="496" on="0"/>
        <pt x="75" y="428" on="0"/>
        <pt x="75" y="378" on="1"/>
        <pt x="75" y="329" on="0"/>
        <pt x="152" y="271" on="0"/>
        <pt x="251" y="254" on="1"/>
        <pt x="352" y="237" on="0"/>
        <pt x="432" y="177" on="0"/>
      </contour>
    </TTGlyph>
    <TTGlyph name="uni0073.sc" xMin="40" yMin="-8" xMax="486" yMax="568">
      <contour>
        <pt x="56" y="417" on="1"/>
        <pt x="56" y="477" on="0"/>
        <pt x="166" y="568" on="0"/>
        <pt x="263" y="568" on="1"/>
        <pt x="346" y="568" on="0"/>
        <pt x="455" y="506" on="0"/>
        <pt x="476" y="439" on="1"/>
        <pt x="461" y="430" on="1"/>
        <pt x="443" y="495" on="0"/>
        <pt x="342" y="554" on="0"/>
        <pt x="263" y="554" on="1"/>
        <pt x="175" y="554" on="0"/>
        <pt x="72" y="475" on="0"/>
        <pt x="72" y="417" on="1"/>
        <pt x="72" y="359" on="0"/>
        <pt x="156" y="306" on="0"/>
        <pt x="279" y="283" on="0"/>
        <pt x="402" y="258" on="0"/>
        <pt x="486" y="199" on="0"/>
        <pt x="486" y="136" on="1"/>
        <pt x="486" y="72" on="0"/>
        <pt x="369" y="-8" on="0"/>
        <pt x="275" y="-8" on="1"/>
        <pt x="184" y="-8" on="0"/>
        <pt x="55" y="64" on="0"/>
        <pt x="40" y="140" on="1"/>
        <pt x="55" y="148" on="1"/>
        <pt x="68" y="75" on="0"/>
        <pt x="190" y="6" on="0"/>
        <pt x="275" y="6" on="1"/>
        <pt x="357" y="6" on="0"/>
        <pt x="470" y="73" on="0"/>
        <pt x="470" y="136" on="1"/>
        <pt x="470" y="194" on="0"/>
        <pt x="386" y="246" on="0"/>
        <pt x="263" y="269" on="0"/>
        <pt x="140" y="294" on="0"/>
        <pt x="56" y="353" on="0"/>
      </contour>
    </TTGlyph>
    <TTGlyph name="uni00730074" xMin="37" yMin="-10" xMax="781" yMax="735">
      <contour>
        <pt x="685" y="-10" on="1"/>
        <pt x="565" y="-10" on="0"/>
        <pt x="565" y="126" on="1"/>
        <pt x="565" y="582" on="1"/>
        <pt x="565" y="721" on="0"/>
        <pt x="465" y="721" on="1"/>
        <pt x="370" y="721" on="0"/>
        <pt x="370" y="591" on="1"/>
        <pt x="370" y="519" on="0"/>
        <pt x="432" y="386" on="1"/>
        <pt x="417" y="379" on="1"/>
        <pt x="389" y="496" on="0"/>
        <pt x="244" y="496" on="1"/>
        <pt x="171" y="496" on="0"/>
        <pt x="75" y="428" on="0"/>
        <pt x="75" y="378" on="1"/>
        <pt x="75" y="329" on="0"/>
        <pt x="152" y="271" on="0"/>
        <pt x="251" y="254" on="1"/>
        <pt x="352" y="237" on="0"/>
        <pt x="432" y="177" on="0"/>
        <pt x="432" y="124" on="1"/>
        <pt x="432" y="62" on="0"/>
        <pt x="329" y="-10" on="0"/>
        <pt x="240" y="-10" on="1"/>
        <pt x="162" y="-10" on="0"/>
        <pt x="51" y="51" on="0"/>
        <pt x="37" y="111" on="1"/>
        <pt x="52" y="118" on="1"/>
        <pt x="65" y="62" on="0"/>
        <pt x="167" y="4" on="0"/>
        <pt x="243" y="4" on="1"/>
        <pt x="323" y="4" on="0"/>
        <pt x="416" y="69" on="0"/>
        <pt x="416" y="124" on="1"/>
        <pt x="416" y="169" on="0"/>
        <pt x="343" y="222" on="0"/>
        <pt x="246" y="239" on="1"/>
        <pt x="141" y="258" on="0"/>
        <pt x="59" y="320" on="0"/>
        <pt x="59" y="374" on="1"/>
        <pt x="59" y="432" on="0"/>
        <pt x="164" y="510" on="0"/>
        <pt x="244" y="510" on="1"/>
        <pt x="338" y="510" on="0"/>
        <pt x="385" y="468" on="1"/>
        <pt x="354" y="533" on="0"/>
        <pt x="354" y="590" on="1"/>
        <pt x="354" y="735" on="0"/>
        <pt x="465" y="735" on="1"/>
        <pt x="581" y="735" on="0"/>
        <pt x="581" y="592" on="1"/>
        <pt x="581" y="500" on="1"/>
        <pt x="774" y="500" on="1"/>
        <pt x="774" y="486" on="1"/>
        <pt x="581" y="486" on="1"/>
        <pt x="581" y="126" on="1"/>
        <pt x="581" y="4" on="0"/>
        <pt x="685" y="4" on="1"/>
        <pt x="739" y="4" on="0"/>
        <pt x="773" y="41" on="1"/>
        <pt x="781" y="28" on="1"/>
        <pt x="766" y="12" on="0"/>
        <pt x="715" y="-10" on="0"/>
      </contour>
    </TTGlyph>
</ttFont>
